<svg width="196" height="40" viewBox="0 0 196 40" fill="none" xmlns="http://www.w3.org/2000/svg">
<path d="M8.49755 8.00004C9.39798 8.00004 10.1279 7.40309 10.1279 6.66671C10.1279 5.93033 9.39798 5.33337 8.49755 5.33337C7.59713 5.33337 6.86719 5.93033 6.86719 6.66671C6.86719 7.40309 7.59713 8.00004 8.49755 8.00004Z" fill="#D35847" fill-opacity="0.1"/>
<path d="M16.6489 9.79753C17.5493 9.79753 18.2793 9.20057 18.2793 8.46419C18.2793 7.72781 17.5493 7.13086 16.6489 7.13086C15.7485 7.13086 15.0186 7.72781 15.0186 8.46419C15.0186 9.20057 15.7485 9.79753 16.6489 9.79753Z" fill="#D35847" fill-opacity="0.1"/>
<path d="M24.8013 11.7223C25.7017 11.7223 26.4316 11.1254 26.4316 10.389C26.4316 9.65262 25.7017 9.05566 24.8013 9.05566C23.9008 9.05566 23.1709 9.65262 23.1709 10.389C23.1709 11.1254 23.9008 11.7223 24.8013 11.7223Z" fill="#D35847" fill-opacity="0.1"/>
<path d="M32.9526 13.7177C33.8531 13.7177 34.583 13.1207 34.583 12.3844C34.583 11.648 33.8531 11.051 32.9526 11.051C32.0522 11.051 31.3223 11.648 31.3223 12.3844C31.3223 13.1207 32.0522 13.7177 32.9526 13.7177Z" fill="#D35847" fill-opacity="0.1"/>
<path d="M41.105 13.4461C42.0054 13.4461 42.7353 12.8491 42.7353 12.1128C42.7353 11.3764 42.0054 10.7794 41.105 10.7794C40.2045 10.7794 39.4746 11.3764 39.4746 12.1128C39.4746 12.8491 40.2045 13.4461 41.105 13.4461Z" fill="#D35847" fill-opacity="0.1"/>
<path d="M49.2563 13.2146C50.1568 13.2146 50.8867 12.6177 50.8867 11.8813C50.8867 11.1449 50.1568 10.548 49.2563 10.548C48.3559 10.548 47.626 11.1449 47.626 11.8813C47.626 12.6177 48.3559 13.2146 49.2563 13.2146Z" fill="#D35847" fill-opacity="0.1"/>
<path d="M57.4087 13.1509C58.3091 13.1509 59.0391 12.554 59.0391 11.8176C59.0391 11.0812 58.3091 10.4843 57.4087 10.4843C56.5083 10.4843 55.7783 11.0812 55.7783 11.8176C55.7783 12.554 56.5083 13.1509 57.4087 13.1509Z" fill="#D35847" fill-opacity="0.1"/>
<path d="M65.56 32.1148C66.4605 32.1148 67.1904 31.5178 67.1904 30.7815C67.1904 30.0451 66.4605 29.4481 65.56 29.4481C64.6596 29.4481 63.9297 30.0451 63.9297 30.7815C63.9297 31.5178 64.6596 32.1148 65.56 32.1148Z" fill="#D35847" fill-opacity="0.1"/>
<path d="M73.7124 26.2931C74.6128 26.2931 75.3428 25.6962 75.3428 24.9598C75.3428 24.2234 74.6128 23.6265 73.7124 23.6265C72.812 23.6265 72.082 24.2234 72.082 24.9598C72.082 25.6962 72.812 26.2931 73.7124 26.2931Z" fill="#D35847" fill-opacity="0.1"/>
<path d="M81.8638 26.1724C82.7642 26.1724 83.4941 25.5754 83.4941 24.8391C83.4941 24.1027 82.7642 23.5057 81.8638 23.5057C80.9633 23.5057 80.2334 24.1027 80.2334 24.8391C80.2334 25.5754 80.9633 26.1724 81.8638 26.1724Z" fill="#D35847" fill-opacity="0.1"/>
<path d="M90.0161 34.6667C90.9165 34.6667 91.6465 34.0697 91.6465 33.3333C91.6465 32.597 90.9165 32 90.0161 32C89.1157 32 88.3857 32.597 88.3857 33.3333C88.3857 34.0697 89.1157 34.6667 90.0161 34.6667Z" fill="#D35847" fill-opacity="0.1"/>
<path d="M98.1675 29.3749C99.0679 29.3749 99.7978 28.778 99.7978 28.0416C99.7978 27.3052 99.0679 26.7083 98.1675 26.7083C97.267 26.7083 96.5371 27.3052 96.5371 28.0416C96.5371 28.778 97.267 29.3749 98.1675 29.3749Z" fill="#D35847" fill-opacity="0.1"/>
<path d="M106.32 27.0979C107.22 27.0979 107.95 26.501 107.95 25.7646C107.95 25.0282 107.22 24.4313 106.32 24.4313C105.419 24.4313 104.689 25.0282 104.689 25.7646C104.689 26.501 105.419 27.0979 106.32 27.0979Z" fill="#D35847" fill-opacity="0.1"/>
<path d="M114.471 27.5373C115.372 27.5373 116.102 26.9403 116.102 26.2039C116.102 25.4676 115.372 24.8706 114.471 24.8706C113.571 24.8706 112.841 25.4676 112.841 26.2039C112.841 26.9403 113.571 27.5373 114.471 27.5373Z" fill="#D35847" fill-opacity="0.1"/>
<path d="M122.624 23.4225C123.524 23.4225 124.254 22.8256 124.254 22.0892C124.254 21.3528 123.524 20.7559 122.624 20.7559C121.723 20.7559 120.993 21.3528 120.993 22.0892C120.993 22.8256 121.723 23.4225 122.624 23.4225Z" fill="#D35847" fill-opacity="0.1"/>
<path d="M130.775 24.9283C131.675 24.9283 132.405 24.3313 132.405 23.5949C132.405 22.8586 131.675 22.2616 130.775 22.2616C129.874 22.2616 129.145 22.8586 129.145 23.5949C129.145 24.3313 129.874 24.9283 130.775 24.9283Z" fill="#D35847" fill-opacity="0.1"/>
<path d="M138.927 28.6071C139.828 28.6071 140.558 28.0101 140.558 27.2738C140.558 26.5374 139.828 25.9404 138.927 25.9404C138.027 25.9404 137.297 26.5374 137.297 27.2738C137.297 28.0101 138.027 28.6071 138.927 28.6071Z" fill="#D35847" fill-opacity="0.1"/>
<path d="M147.079 26.5313C147.979 26.5313 148.709 25.9343 148.709 25.198C148.709 24.4616 147.979 23.8646 147.079 23.8646C146.178 23.8646 145.448 24.4616 145.448 25.198C145.448 25.9343 146.178 26.5313 147.079 26.5313Z" fill="#D35847" fill-opacity="0.1"/>
<path d="M155.231 24.7908C156.131 24.7908 156.861 24.1939 156.861 23.4575C156.861 22.7211 156.131 22.1241 155.231 22.1241C154.331 22.1241 153.601 22.7211 153.601 23.4575C153.601 24.1939 154.331 24.7908 155.231 24.7908Z" fill="#D35847" fill-opacity="0.1"/>
<path d="M163.382 25.5419C164.283 25.5419 165.013 24.945 165.013 24.2086C165.013 23.4722 164.283 22.8752 163.382 22.8752C162.482 22.8752 161.752 23.4722 161.752 24.2086C161.752 24.945 162.482 25.5419 163.382 25.5419Z" fill="#D35847" fill-opacity="0.1"/>
<path d="M171.535 27.7284C172.435 27.7284 173.165 27.1315 173.165 26.3951C173.165 25.6587 172.435 25.0618 171.535 25.0618C170.634 25.0618 169.904 25.6587 169.904 26.3951C169.904 27.1315 170.634 27.7284 171.535 27.7284Z" fill="#D35847" fill-opacity="0.1"/>
<path d="M179.686 28.4461C180.586 28.4461 181.316 27.8491 181.316 27.1128C181.316 26.3764 180.586 25.7794 179.686 25.7794C178.786 25.7794 178.056 26.3764 178.056 27.1128C178.056 27.8491 178.786 28.4461 179.686 28.4461Z" fill="#D35847" fill-opacity="0.1"/>
<path d="M187.837 26.4709C188.738 26.4709 189.468 25.8739 189.468 25.1375C189.468 24.4012 188.738 23.8042 187.837 23.8042C186.937 23.8042 186.207 24.4012 186.207 25.1375C186.207 25.8739 186.937 26.4709 187.837 26.4709Z" fill="#D35847" fill-opacity="0.1"/>
<path d="M8.49707 6.66675L16.6489 8.4642L24.8007 10.3891L32.9526 12.3844L41.1044 12.1128L49.2562 11.8814L57.4081 11.8177L65.5599 30.7814L73.7117 24.9598L81.8636 24.8391L90.0154 33.3334L98.1672 28.0417L106.319 25.7647L114.471 26.204L122.623 22.0893L130.775 23.595L138.926 27.2737L147.078 25.1979L155.23 23.4575L163.382 24.2087L171.534 26.3951L179.686 27.1128L187.837 25.1376V33.3334H8.49707V6.66675Z" fill="#D35847" fill-opacity="0.1"/>
<path d="M8.49707 6.66675L16.6489 8.4642L24.8007 10.3891L32.9526 12.3844L41.1044 12.1128L49.2562 11.8814L57.4081 11.8177L65.5599 30.7814L73.7117 24.9598L81.8636 24.8391L90.0154 33.3334L98.1672 28.0417L106.319 25.7647L114.471 26.204L122.623 22.0893L130.775 23.595L138.926 27.2737L147.078 25.1979L155.23 23.4575L163.382 24.2087L171.534 26.3951L179.686 27.1128L187.837 25.1376" stroke="#D35847" stroke-width="2" stroke-linecap="round" stroke-linejoin="round"/>
</svg>
