<svg width="204" height="40" viewBox="0 0 204 40" fill="none" xmlns="http://www.w3.org/2000/svg">
<path d="M8.82719 16.7306C9.76405 16.7306 10.5235 16.1337 10.5235 15.3973C10.5235 14.6609 9.76405 14.064 8.82719 14.064C7.89033 14.064 7.13086 14.6609 7.13086 15.3973C7.13086 16.1337 7.89033 16.7306 8.82719 16.7306Z" fill="#7ED321" fill-opacity="0.1"/>
<path d="M17.3086 18.406C18.2455 18.406 19.005 17.8091 19.005 17.0727C19.005 16.3363 18.2455 15.7394 17.3086 15.7394C16.3718 15.7394 15.6123 16.3363 15.6123 17.0727C15.6123 17.8091 16.3718 18.406 17.3086 18.406Z" fill="#7ED321" fill-opacity="0.1"/>
<path d="M25.7901 25.6221C26.7269 25.6221 27.4864 25.0252 27.4864 24.2888C27.4864 23.5524 26.7269 22.9554 25.7901 22.9554C24.8532 22.9554 24.0938 23.5524 24.0938 24.2888C24.0938 25.0252 24.8532 25.6221 25.7901 25.6221Z" fill="#7ED321" fill-opacity="0.1"/>
<path d="M34.2725 28.5379C35.2094 28.5379 35.9688 27.9409 35.9688 27.2045C35.9688 26.4682 35.2094 25.8712 34.2725 25.8712C33.3356 25.8712 32.5762 26.4682 32.5762 27.2045C32.5762 27.9409 33.3356 28.5379 34.2725 28.5379Z" fill="#7ED321" fill-opacity="0.1"/>
<path d="M42.754 33.8211C43.6908 33.8211 44.4503 33.2241 44.4503 32.4878C44.4503 31.7514 43.6908 31.1544 42.754 31.1544C41.8171 31.1544 41.0576 31.7514 41.0576 32.4878C41.0576 33.2241 41.8171 33.8211 42.754 33.8211Z" fill="#7ED321" fill-opacity="0.1"/>
<path d="M51.2354 34.6667C52.1723 34.6667 52.9317 34.0697 52.9317 33.3333C52.9317 32.597 52.1723 32 51.2354 32C50.2985 32 49.5391 32.597 49.5391 33.3333C49.5391 34.0697 50.2985 34.6667 51.2354 34.6667Z" fill="#7ED321" fill-opacity="0.1"/>
<path d="M59.7168 30.4257C60.6537 30.4257 61.4132 29.8287 61.4132 29.0924C61.4132 28.356 60.6537 27.759 59.7168 27.759C58.78 27.759 58.0205 28.356 58.0205 29.0924C58.0205 29.8287 58.78 30.4257 59.7168 30.4257Z" fill="#7ED321" fill-opacity="0.1"/>
<path d="M68.1993 25.4201C69.1361 25.4201 69.8956 24.8231 69.8956 24.0868C69.8956 23.3504 69.1361 22.7534 68.1993 22.7534C67.2624 22.7534 66.5029 23.3504 66.5029 24.0868C66.5029 24.8231 67.2624 25.4201 68.1993 25.4201Z" fill="#7ED321" fill-opacity="0.1"/>
<path d="M76.6807 24.6431C77.6176 24.6431 78.377 24.0462 78.377 23.3098C78.377 22.5734 77.6176 21.9764 76.6807 21.9764C75.7438 21.9764 74.9844 22.5734 74.9844 23.3098C74.9844 24.0462 75.7438 24.6431 76.6807 24.6431Z" fill="#7ED321" fill-opacity="0.1"/>
<path d="M85.1622 24.8971C86.099 24.8971 86.8585 24.3002 86.8585 23.5638C86.8585 22.8274 86.099 22.2305 85.1622 22.2305C84.2253 22.2305 83.4658 22.8274 83.4658 23.5638C83.4658 24.3002 84.2253 24.8971 85.1622 24.8971Z" fill="#7ED321" fill-opacity="0.1"/>
<path d="M93.6436 30.67C94.5805 30.67 95.3399 30.073 95.3399 29.3366C95.3399 28.6002 94.5805 28.0033 93.6436 28.0033C92.7067 28.0033 91.9473 28.6002 91.9473 29.3366C91.9473 30.073 92.7067 30.67 93.6436 30.67Z" fill="#7ED321" fill-opacity="0.1"/>
<path d="M102.126 28.6435C103.063 28.6435 103.822 28.0465 103.822 27.3101C103.822 26.5738 103.063 25.9768 102.126 25.9768C101.189 25.9768 100.43 26.5738 100.43 27.3101C100.43 28.0465 101.189 28.6435 102.126 28.6435Z" fill="#7ED321" fill-opacity="0.1"/>
<path d="M110.607 26.8955C111.544 26.8955 112.304 26.2986 112.304 25.5622C112.304 24.8258 111.544 24.2289 110.607 24.2289C109.671 24.2289 108.911 24.8258 108.911 25.5622C108.911 26.2986 109.671 26.8955 110.607 26.8955Z" fill="#7ED321" fill-opacity="0.1"/>
<path d="M119.089 27.8955C120.026 27.8955 120.785 27.2986 120.785 26.5622C120.785 25.8258 120.026 25.2289 119.089 25.2289C118.152 25.2289 117.393 25.8258 117.393 26.5622C117.393 27.2986 118.152 27.8955 119.089 27.8955Z" fill="#7ED321" fill-opacity="0.1"/>
<path d="M127.57 27.7527C128.507 27.7527 129.267 27.1558 129.267 26.4194C129.267 25.683 128.507 25.0861 127.57 25.0861C126.633 25.0861 125.874 25.683 125.874 26.4194C125.874 27.1558 126.633 27.7527 127.57 27.7527Z" fill="#7ED321" fill-opacity="0.1"/>
<path d="M136.053 27.164C136.99 27.164 137.749 26.567 137.749 25.8306C137.749 25.0943 136.99 24.4973 136.053 24.4973C135.116 24.4973 134.356 25.0943 134.356 25.8306C134.356 26.567 135.116 27.164 136.053 27.164Z" fill="#7ED321" fill-opacity="0.1"/>
<path d="M144.534 27.8938C145.471 27.8938 146.231 27.2969 146.231 26.5605C146.231 25.8241 145.471 25.2272 144.534 25.2272C143.597 25.2272 142.838 25.8241 142.838 26.5605C142.838 27.2969 143.597 27.8938 144.534 27.8938Z" fill="#7ED321" fill-opacity="0.1"/>
<path d="M153.016 21.975C153.953 21.975 154.712 21.3781 154.712 20.6417C154.712 19.9053 153.953 19.3083 153.016 19.3083C152.079 19.3083 151.319 19.9053 151.319 20.6417C151.319 21.3781 152.079 21.975 153.016 21.975Z" fill="#7ED321" fill-opacity="0.1"/>
<path d="M161.497 20.3571C162.434 20.3571 163.193 19.7601 163.193 19.0238C163.193 18.2874 162.434 17.6904 161.497 17.6904C160.56 17.6904 159.801 18.2874 159.801 19.0238C159.801 19.7601 160.56 20.3571 161.497 20.3571Z" fill="#7ED321" fill-opacity="0.1"/>
<path d="M169.979 17.014C170.915 17.014 171.675 16.417 171.675 15.6806C171.675 14.9442 170.915 14.3473 169.979 14.3473C169.042 14.3473 168.282 14.9442 168.282 15.6806C168.282 16.417 169.042 17.014 169.979 17.014Z" fill="#7ED321" fill-opacity="0.1"/>
<path d="M178.461 17.7664C179.398 17.7664 180.157 17.1694 180.157 16.4331C180.157 15.6967 179.398 15.0997 178.461 15.0997C177.524 15.0997 176.765 15.6967 176.765 16.4331C176.765 17.1694 177.524 17.7664 178.461 17.7664Z" fill="#7ED321" fill-opacity="0.1"/>
<path d="M186.942 9.1536C187.879 9.1536 188.639 8.55665 188.639 7.82027C188.639 7.08389 187.879 6.48694 186.942 6.48694C186.006 6.48694 185.246 7.08389 185.246 7.82027C185.246 8.55665 186.006 9.1536 186.942 9.1536Z" fill="#7ED321" fill-opacity="0.1"/>
<path d="M195.424 8.00004C196.361 8.00004 197.12 7.40309 197.12 6.66671C197.12 5.93033 196.361 5.33337 195.424 5.33337C194.487 5.33337 193.728 5.93033 193.728 6.66671C193.728 7.40309 194.487 8.00004 195.424 8.00004Z" fill="#7ED321" fill-opacity="0.1"/>
<path d="M8.82715 15.3973L17.3088 17.0728L25.7905 24.2888L34.2722 27.2046L42.7538 32.4878L51.2355 33.3334L59.7172 29.0924L68.1989 24.0867L76.6805 23.3098L85.1622 23.5638L93.6439 29.3367L102.126 27.3102L110.607 25.5623L119.089 26.5623L127.571 26.4194L136.052 25.8307L144.534 26.5606L153.016 20.6417L161.497 19.0238L169.979 15.6806L178.461 16.4331L186.942 7.8203L195.424 6.66675V33.3334H8.82715V15.3973Z" fill="#7ED321" fill-opacity="0.1"/>
<path d="M8.82715 15.3973L17.3088 17.0728L25.7905 24.2888L34.2722 27.2046L42.7538 32.4878L51.2355 33.3334L59.7172 29.0924L68.1989 24.0867L76.6806 23.3098L85.1622 23.5638L93.6439 29.3367L102.126 27.3102L110.607 25.5623L119.089 26.5623L127.571 26.4194L136.052 25.8307L144.534 26.5606L153.016 20.6417L161.497 19.0238L169.979 15.6806L178.461 16.4331L186.942 7.8203L195.424 6.66675" stroke="#3EB0A0" stroke-width="2" stroke-linecap="round" stroke-linejoin="round"/>
</svg>
