<?xml version="1.0" encoding="UTF-8"?>
<svg width="250px" height="250px" viewBox="0 0 250 250" version="1.1" xmlns="http://www.w3.org/2000/svg" xmlns:xlink="http://www.w3.org/1999/xlink">
    <!-- Generator: Sketch 55 (78076) - https://sketchapp.com -->
    <title>MACD SImple</title>
    <desc>Created with Sketch.</desc>
    <defs>
        <circle id="path-1" cx="125" cy="125" r="125"></circle>
    </defs>
    <g id="MACD-SImple" stroke="none" stroke-width="1" fill="none" fill-rule="evenodd">
        <mask id="mask-2" fill="white">
            <use xlink:href="#path-1"></use>
        </mask>
        <use id="Oval" fill="#D8D8D8" xlink:href="#path-1"></use>
        <rect id="Rectangle" fill="#734DE1" mask="url(#mask-2)" x="0" y="0" width="250" height="250"></rect>
        <g id="Group" mask="url(#mask-2)" fill="#FFFFFF" fill-rule="nonzero">
            <g transform="translate(82.500000, 137.000000) rotate(-360.000000) translate(-82.500000, -137.000000) translate(-47.000000, 48.000000)">
                <path d="M20.191195,19.8946166 C21.1226995,21.7529896 22.0882309,24.5257529 23.0537265,28.1006375 C24.797079,34.5556478 26.4805916,43.3635097 28.1007079,54.0298175 C29.0469082,60.2592856 29.9344084,66.8702133 30.8006275,73.9555914 C31.1317217,76.6638296 31.4471591,79.3370955 31.7796013,82.2295534 C31.9694136,83.8810407 32.4993497,88.5561405 32.4894926,88.4697368 C34.0694782,102.319376 35.1013026,110.551512 36.7124742,120.841787 C40.6993995,146.305589 44.3610932,159.312108 50.8175713,159.982879 C55.6582893,160.485787 58.6224503,154.932035 61.5564331,143.063742 C64.382361,131.632542 67.1791799,113.631931 69.9521231,88.4581679 L63.9881956,87.8012287 C61.2418664,112.73338 58.4808744,130.503406 55.7317769,141.623818 C54.490839,146.643553 53.2702387,150.224386 52.1199988,152.379515 C51.8263522,152.929701 51.5536287,153.355189 51.3173435,153.657415 C51.0469527,153.315906 50.741935,152.83382 50.4200157,152.219742 C49.5004131,150.465554 48.5474551,147.845869 47.5966342,144.468506 C45.8744897,138.351362 44.2200718,130.003679 42.6402548,119.91366 C41.0459739,109.731264 40.0216211,101.558738 38.450826,87.7896598 C38.4611604,87.8802474 37.9308151,83.201538 37.7403601,81.5444586 C37.4063774,78.638598 37.0892942,75.9513842 36.7562855,73.2274857 C35.8835178,66.0885428 34.9885624,59.4220819 34.0326703,53.1288057 C29.9402402,26.1856046 26.2848879,12.6511434 19.7916274,12.03055 C14.9017103,11.5631961 12.0219622,17.3739384 9.14397611,29.9657925 C6.37395034,42.0852955 3.65487944,61.1616478 0.985079662,87.8308682 L6.95523899,88.4285284 C9.60223348,61.987115 12.2903179,43.1281567 14.9931425,31.3026742 C16.2168184,25.9488092 17.4274518,22.1186179 18.5788025,19.7954276 C18.856607,19.2348751 19.1177496,18.7899757 19.3491499,18.4608276 C19.6064339,18.8168445 19.8918238,19.2973642 20.191195,19.8946166 Z" id="Path-2"></path>
                <path d="M83.2003729,45.1220721 C84.1323225,46.3274243 85.0983153,48.1258556 86.0642722,50.4445478 C87.8084578,54.6313071 89.4927749,60.3441406 91.1136654,67.2623734 C92.0603178,71.3028447 92.9482421,75.5907331 93.8148751,80.186353 C94.1461276,81.9429329 94.4617157,83.6768296 94.7943168,85.5528956 C94.9842198,86.6240604 95.5144091,89.6563589 95.5045474,89.6003169 C97.0852879,98.583278 98.1176054,103.922692 99.7295469,110.597028 C103.718377,127.113006 107.381821,135.549115 113.841384,135.984181 C118.684415,136.31037 121.649993,132.708173 124.585378,125.010324 C127.412656,117.595978 130.210811,105.920671 132.98508,89.5928133 L127.018302,89.1667185 C124.270661,105.337865 121.508349,116.863614 118.757938,124.076381 C117.516407,127.332212 116.295224,129.654762 115.144434,131.052592 C114.850647,131.409446 114.577793,131.685421 114.341395,131.881446 C114.070875,131.659941 113.765712,131.347257 113.443639,130.948963 C112.523597,129.811185 111.570183,128.112042 110.618908,125.921463 C108.895941,121.953846 107.240732,116.539487 105.66016,109.995039 C104.065117,103.390674 103.040275,98.0899239 101.468729,89.1592148 C101.479069,89.2179705 100.94847,86.1833308 100.757924,85.1085389 C100.423782,83.2237798 100.106547,81.4808365 99.7733791,79.7140991 C98.9001944,75.0837368 98.0048113,70.7598293 97.0484624,66.6779716 C92.9540767,49.2024456 89.2969777,40.4239109 82.8006143,40.0213901 C77.9083605,39.7182615 75.0272362,43.4871447 72.1478749,51.6542988 C69.3765255,59.515083 66.6561552,71.8881224 63.9850797,89.1859428 L69.9580919,89.5735889 C72.6063513,72.4235255 75.2957202,60.1914891 77.9998364,52.5214085 C79.2240971,49.0488587 80.4353089,46.564573 81.5872099,45.0577376 C81.8651471,44.6941597 82.1264145,44.4055952 82.3579254,44.1921078 C82.6153323,44.4230225 82.9008586,44.7346905 83.2003729,45.1220721 Z" id="Path-2-Copy"></path>
                <path d="M145.357925,7.72541633 C145.615332,8.15116535 145.900859,8.72580332 146.200373,9.44003814 C147.132322,11.6624062 148.098315,14.978264 149.064272,19.2533526 C150.808458,26.9726902 152.492775,37.5057268 154.113665,50.2612187 C155.060318,57.7108376 155.948242,65.6166318 156.814875,74.0898059 C157.146128,77.3285002 157.461716,80.5253722 157.794317,83.9843689 C157.98422,85.9593291 158.514409,91.5501294 158.504547,91.446802 C160.085288,108.009136 161.117605,117.853681 162.729547,130.159487 C166.718377,160.610823 170.381821,176.164898 176.841384,176.967052 C181.684415,177.568463 184.649993,170.926911 187.585378,156.734003 C190.412656,143.063802 193.210811,121.537455 195.98508,91.4329671 L190.018302,90.6473548 C187.270661,120.462907 184.508349,141.713505 181.757938,155.012045 C180.516407,161.014983 179.295224,165.297186 178.144434,167.874434 C177.850647,168.532384 177.577793,169.041212 177.341395,169.402634 C177.070875,168.994234 176.765712,168.417723 176.443639,167.683367 C175.523597,165.58559 174.570183,162.452795 173.618908,158.413915 C171.895941,151.098621 170.240732,141.115897 168.66016,129.049571 C167.065117,116.872774 166.040275,107.099515 164.468729,90.63352 C164.479069,90.7418507 163.94847,85.1467338 163.757924,83.1650863 C163.423782,79.6900617 163.106547,76.4765099 162.773379,73.2190878 C161.900194,64.6818574 161.004811,56.7096529 160.048462,49.1837279 C155.954077,16.9632268 152.296978,0.777803314 145.800614,0.0356556846 C140.90836,-0.523237706 138.027236,6.42564073 135.147875,21.483831 C132.376525,35.9771519 129.656155,58.7899434 126.98508,90.6827998 L132.958092,91.3975222 C135.606351,59.7770928 138.29572,37.2242757 140.999836,23.0825645 C142.224097,16.6800508 143.435309,12.0996492 144.58721,9.32142126 C144.865147,8.65107465 145.126414,8.11903384 145.357925,7.72541633 Z" id="Path-2"></path>
                <path d="M209.200373,49.8022228 C210.132322,50.9322404 211.098315,52.6182698 212.064272,54.7920437 C213.808458,58.7171306 215.492775,64.072912 217.113665,70.5587553 C218.060318,74.3466971 218.948242,78.3665925 219.814875,82.6749861 C220.146128,84.3217798 220.461716,85.9473079 220.794317,87.7061198 C220.98422,88.7103368 221.514409,91.5531166 221.504547,91.5005773 C223.085288,99.9221033 224.117605,104.927804 225.729547,111.184993 C229.718377,126.668723 233.381821,134.577575 239.841384,134.98545 C244.684415,135.291252 247.649993,131.914192 250.585378,124.697459 C253.412656,117.74651 256.210811,106.800909 258.98508,91.4935426 L253.018302,91.0940787 C250.270661,106.254529 247.508349,117.059918 244.757938,123.821887 C243.516407,126.874229 242.295224,129.05162 241.144434,130.362085 C240.850647,130.696636 240.577793,130.955362 240.341395,131.139136 C240.070875,130.931475 239.765712,130.638334 239.443639,130.264933 C238.523597,129.198266 237.570183,127.605319 236.618908,125.551652 C234.895941,121.832011 233.240732,116.756049 231.66016,110.620629 C230.065117,104.429037 229.040275,99.4595839 227.468729,91.0870441 C227.479069,91.1421275 226.94847,88.2971528 226.757924,87.2895354 C226.423782,85.5225738 226.106547,83.8885643 225.773379,82.2322481 C224.900194,77.8912834 224.004811,73.8376201 223.048462,70.0108786 C218.954077,53.6275729 215.296978,45.3976966 208.800614,45.0203334 C203.90836,44.7361503 201.027236,48.2694784 198.147875,55.9261853 C195.376525,63.2956705 192.656155,74.895395 189.98508,91.1121016 L195.958092,91.4755198 C198.606351,75.3973354 201.29572,63.9298012 203.999836,56.7391006 C205.224097,53.4835852 206.435309,51.1545674 207.58721,49.7419091 C207.865147,49.4010549 208.126414,49.1305257 208.357925,48.9303812 C208.615332,49.1468638 208.900859,49.4390525 209.200373,49.8022228 Z" id="Path-2-Copy-2"></path>
            </g>
        </g>
        <path d="M-44.6960407,191.349229 C-19.6993058,161.375505 3.94760588,140.710925 27.0444157,130.375774 C53.7834822,118.410819 79.1084424,120.69635 103.564284,139.310784 C105.668251,140.912207 115.033609,148.075416 117.54463,149.984501 C122.912399,154.065521 127.20818,157.275226 131.324581,160.261016 C141.578646,167.698699 150.236085,173.36765 158.481221,177.88316 C178.56653,188.883028 196.007467,192.758379 212.868024,188.584404 C229.165915,184.549722 244.496248,172.938275 259.411189,152.790894 L254.588811,149.220927 C240.443557,168.328599 226.227589,179.096008 211.426197,182.760219 C196.247745,186.517774 180.246836,182.962395 161.363264,172.620667 C153.372591,168.244516 144.913667,162.705554 134.847468,155.404138 C130.773184,152.448897 126.510917,149.264233 121.175984,145.208178 C118.673791,143.305804 109.310178,136.14393 107.198247,134.536445 C80.9479254,114.556153 53.2867669,112.059783 24.5937515,124.899074 C0.501059793,135.679853 -23.7741338,156.893477 -49.3039593,187.506432 L-44.6960407,191.349229 Z" id="Path-4" fill="#000000" fill-rule="nonzero" mask="url(#mask-2)"></path>
    </g>
</svg>