<svg width="20" height="19" viewBox="0 0 20 19" fill="none" xmlns="http://www.w3.org/2000/svg">
<path d="M3.33317 14.3091H4.99984V17.4196L9.25067 14.3091H13.3332C14.2523 14.3091 14.9998 13.6254 14.9998 12.7847V6.68711C14.9998 5.84641 14.2523 5.16272 13.3332 5.16272H3.33317C2.414 5.16272 1.6665 5.84641 1.6665 6.68711V12.7847C1.6665 13.6254 2.414 14.3091 3.33317 14.3091Z" fill="white"/>
<path d="M16.6667 2.11401H6.66667C5.7475 2.11401 5 2.7977 5 3.6384H15C15.9192 3.6384 16.6667 4.32209 16.6667 5.16279V11.2604C17.5858 11.2604 18.3333 10.5767 18.3333 9.73597V3.6384C18.3333 2.7977 17.5858 2.11401 16.6667 2.11401Z" fill="white"/>
</svg>
