<svg width="20" height="20" viewBox="0 0 20 20" fill="none" xmlns="http://www.w3.org/2000/svg">
<path d="M2.14282 7.23141L9.75282 11.1893C9.82916 11.229 9.91393 11.2497 9.99997 11.2497C10.086 11.2497 10.1708 11.229 10.2471 11.1893L17.8571 7.23213V14.1071C17.8571 14.7001 17.6303 15.2706 17.2231 15.7016C16.8158 16.1326 16.2591 16.3914 15.6671 16.425L15.5357 16.4286H4.46425C3.8713 16.4286 3.3008 16.2017 2.8698 15.7945C2.4388 15.3873 2.17996 14.8306 2.14639 14.2386L2.14282 14.1071V7.23141ZM4.46425 3.57141H15.5357C16.1286 3.57137 16.6991 3.79824 17.1301 4.20546C17.5611 4.61269 17.82 5.16941 17.8535 5.76141L17.8571 5.89284V6.02427L9.99997 10.11L2.14282 6.02427V5.89284C2.14278 5.29988 2.36965 4.72939 2.77687 4.29839C3.1841 3.86739 3.74082 3.60855 4.33282 3.57498L4.46425 3.57141H15.5357H4.46425Z" fill="#007DEF"/>
</svg>
