<svg width="18" height="16" viewBox="0 0 18 16" fill="none" xmlns="http://www.w3.org/2000/svg">
<path d="M13.6348 15.9666C13.4997 15.9663 13.3667 15.9331 13.2473 15.87L8.99982 13.6366L4.75232 15.87C4.61479 15.942 4.45987 15.9742 4.30502 15.9629C4.15017 15.9516 4.00155 15.8973 3.87592 15.8061C3.75029 15.7149 3.65265 15.5903 3.594 15.4466C3.53535 15.3028 3.51803 15.1455 3.54399 14.9925L4.35482 10.2625L0.918157 6.91246C0.806982 6.80392 0.728369 6.66645 0.691194 6.51558C0.65402 6.36471 0.659764 6.20646 0.70778 6.05869C0.755796 5.91091 0.84417 5.77951 0.962923 5.6793C1.08168 5.5791 1.22608 5.5141 1.37982 5.49163L6.12899 4.80163L8.25316 0.498297C8.32968 0.368165 8.43886 0.260276 8.5699 0.185316C8.70093 0.110355 8.84928 0.0709229 9.00024 0.0709229C9.1512 0.0709229 9.29955 0.110355 9.43058 0.185316C9.56162 0.260276 9.6708 0.368165 9.74732 0.498297L11.8707 4.80163L16.6198 5.49163C16.7736 5.5141 16.918 5.5791 17.0367 5.6793C17.1555 5.77951 17.2439 5.91091 17.2919 6.05869C17.3399 6.20646 17.3456 6.36471 17.3085 6.51558C17.2713 6.66645 17.1927 6.80392 17.0815 6.91246L13.6448 10.2625L14.4565 14.9925C14.477 15.112 14.4711 15.2346 14.4393 15.3517C14.4076 15.4688 14.3506 15.5775 14.2724 15.6703C14.1942 15.763 14.0968 15.8376 13.9868 15.8888C13.8768 15.94 13.757 15.9666 13.6357 15.9666H13.6348Z" fill="#102450"/>
</svg>
