<svg width="20" height="20" viewBox="0 0 20 20" fill="none" xmlns="http://www.w3.org/2000/svg">
<path d="M9.99989 3.56654C10.1472 3.56654 10.2885 3.50801 10.3927 3.40383C10.4969 3.29964 10.5554 3.15833 10.5554 3.01099V1.06099C10.5554 0.913645 10.4969 0.772337 10.3927 0.668151C10.2885 0.563964 10.1472 0.505432 9.99989 0.505432C9.85255 0.505432 9.71124 0.563964 9.60705 0.668151C9.50287 0.772337 9.44434 0.913645 9.44434 1.06099V3.01099C9.44434 3.15833 9.50287 3.29964 9.60705 3.40383C9.71124 3.50801 9.85255 3.56654 9.99989 3.56654Z" fill="white"/>
<path d="M9.99989 16.4332C9.85255 16.4332 9.71124 16.4918 9.60705 16.5959C9.50287 16.7001 9.44434 16.8414 9.44434 16.9888V18.9388C9.44434 19.0861 9.50287 19.2274 9.60705 19.3316C9.71124 19.4358 9.85255 19.4943 9.99989 19.4943C10.1472 19.4943 10.2885 19.4358 10.3927 19.3316C10.4969 19.2274 10.5554 19.0861 10.5554 18.9388V16.9888C10.5554 16.8414 10.4969 16.7001 10.3927 16.5959C10.2885 16.4918 10.1472 16.4332 9.99989 16.4332Z" fill="white"/>
<path d="M4.66664 5.44997C4.77292 5.54099 4.90963 5.58855 5.04945 5.58314C5.18927 5.57774 5.3219 5.51978 5.42084 5.42084C5.51978 5.3219 5.57774 5.18927 5.58314 5.04945C5.58855 4.90963 5.54099 4.77292 5.44997 4.66664L4.07219 3.28886C3.96592 3.19785 3.82921 3.15029 3.68939 3.15569C3.54957 3.16109 3.41693 3.21905 3.31799 3.31799C3.21905 3.41693 3.16109 3.54957 3.15569 3.68939C3.15029 3.82921 3.19785 3.96592 3.28886 4.07219L4.66664 5.44997Z" fill="white"/>
<path d="M15.3329 14.5501C15.2267 14.4591 15.0899 14.4115 14.9501 14.4169C14.8103 14.4223 14.6777 14.4803 14.5787 14.5792C14.4798 14.6782 14.4218 14.8108 14.4164 14.9506C14.411 15.0904 14.4586 15.2271 14.5496 15.3334L15.9274 16.7112C16.0337 16.8022 16.1704 16.8498 16.3102 16.8444C16.45 16.839 16.5826 16.781 16.6816 16.6821C16.7805 16.5831 16.8385 16.4505 16.8439 16.3107C16.8493 16.1709 16.8017 16.0341 16.7107 15.9279L15.3329 14.5501Z" fill="white"/>
<path d="M3.56697 9.99995C3.56697 9.85261 3.50844 9.7113 3.40425 9.60711C3.30007 9.50293 3.15876 9.4444 3.01142 9.4444H1.06141C0.914072 9.4444 0.772765 9.50293 0.668578 9.60711C0.564391 9.7113 0.505859 9.85261 0.505859 9.99995C0.505859 10.1473 0.564391 10.2886 0.668578 10.3928C0.772765 10.497 0.914072 10.5555 1.06141 10.5555H3.01142C3.15876 10.5555 3.30007 10.497 3.40425 10.3928C3.50844 10.2886 3.56697 10.1473 3.56697 9.99995Z" fill="white"/>
<path d="M18.9391 9.4444H16.9891C16.8418 9.4444 16.7005 9.50293 16.5963 9.60711C16.4921 9.7113 16.4336 9.85261 16.4336 9.99995C16.4336 10.1473 16.4921 10.2886 16.5963 10.3928C16.7005 10.497 16.8418 10.5555 16.9891 10.5555H18.9391C19.0865 10.5555 19.2278 10.497 19.332 10.3928C19.4362 10.2886 19.4947 10.1473 19.4947 9.99995C19.4947 9.85261 19.4362 9.7113 19.332 9.60711C19.2278 9.50293 19.0865 9.4444 18.9391 9.4444Z" fill="white"/>
<path d="M4.66664 14.5501L3.28886 15.9279C3.19785 16.0341 3.15029 16.1709 3.15569 16.3107C3.16109 16.4505 3.21905 16.5831 3.31799 16.6821C3.41693 16.781 3.54957 16.839 3.68939 16.8444C3.82921 16.8498 3.96592 16.8022 4.07219 16.7112L5.44997 15.3334C5.54099 15.2271 5.58855 15.0904 5.58314 14.9506C5.57774 14.8108 5.51978 14.6782 5.42084 14.5792C5.3219 14.4803 5.18927 14.4223 5.04945 14.4169C4.90963 14.4115 4.77292 14.4591 4.66664 14.5501Z" fill="white"/>
<path d="M15.3329 5.44997L16.7107 4.07219C16.8017 3.96592 16.8493 3.82921 16.8439 3.68939C16.8385 3.54957 16.7805 3.41693 16.6816 3.31799C16.5826 3.21905 16.45 3.16109 16.3102 3.15569C16.1704 3.15029 16.0337 3.19785 15.9274 3.28886L14.5496 4.66664C14.4586 4.77292 14.411 4.90963 14.4164 5.04945C14.4218 5.18927 14.4798 5.3219 14.5787 5.42084C14.6777 5.51978 14.8103 5.57774 14.9501 5.58314C15.0899 5.58855 15.2267 5.54099 15.3329 5.44997Z" fill="white"/>
<path d="M9.99989 15.5555C13.0681 15.5555 15.5554 13.0682 15.5554 9.99995C15.5554 6.9317 13.0681 4.4444 9.99989 4.4444C6.93164 4.4444 4.44434 6.9317 4.44434 9.99995C4.44434 13.0682 6.93164 15.5555 9.99989 15.5555Z" fill="white"/>
</svg>
