<svg width="33" height="33" viewBox="0 0 33 33" fill="none" xmlns="http://www.w3.org/2000/svg">
<circle cx="16.5" cy="16.5" r="16.5" fill="#BA8601"/>
<path d="M24.1001 14.0042V20.7748C24.1001 21.4047 23.8499 22.0088 23.4045 22.4542C22.9591 22.8996 22.355 23.1498 21.7251 23.1498H11.2751C10.6453 23.1498 10.0412 22.8996 9.59577 22.4542C9.15037 22.0088 8.90015 21.4047 8.90015 20.7748V14.0042L16.2588 18.3343C16.332 18.3774 16.4153 18.4001 16.5001 18.4001C16.585 18.4001 16.6683 18.3774 16.7414 18.3343L24.1001 14.0042ZM21.7251 10.7998C22.3095 10.7997 22.8734 11.0151 23.309 11.4047C23.7445 11.7943 24.0211 12.3309 24.0859 12.9117L16.5001 17.3738L8.9144 12.9117C8.97915 12.3309 9.25575 11.7943 9.6913 11.4047C10.1268 11.0151 10.6908 10.7997 11.2751 10.7998H21.7251Z" fill="white"/>
</svg>
