<svg width="32" height="33" viewBox="0 0 32 33" fill="none" xmlns="http://www.w3.org/2000/svg">
<ellipse cx="16" cy="16.5" rx="16" ry="16.5" fill="#20D561"/>
<g clip-path="url(#clip0)">
<path d="M23.0012 9.76218C22.0843 8.88305 20.9924 8.18607 19.7891 7.71185C18.5858 7.23764 17.2952 6.99567 15.9925 7.00006C10.5337 7.00006 6.085 11.2252 6.08 16.4122C6.08 18.0735 6.5375 19.6897 7.40125 21.1206L6 26.0001L11.255 24.6914C12.7088 25.443 14.3374 25.837 15.9925 25.8374H15.9975C21.4575 25.8374 25.905 21.6122 25.91 16.4205C25.9112 15.1832 25.6548 13.9578 25.1553 12.8151C24.6559 11.6724 23.9234 10.6348 23 9.76218H23.0012ZM15.9925 24.2437C14.5162 24.2442 13.0671 23.8668 11.7975 23.1512L11.4975 22.9802L8.38 23.7569L9.2125 20.8677L9.0175 20.5696C8.19226 19.3231 7.75581 17.88 7.75875 16.4074C7.75875 12.1016 11.455 8.58893 15.9975 8.58893C17.0797 8.58709 18.1515 8.78876 19.1513 9.18232C20.151 9.57588 21.0589 10.1535 21.8225 10.882C22.5888 11.6076 23.1963 12.4702 23.6099 13.42C24.0235 14.3697 24.2351 15.3879 24.2325 16.4157C24.2275 20.7371 20.5312 24.2437 15.9925 24.2437ZM20.5113 18.3846C20.265 18.2671 19.0487 17.6982 18.82 17.6175C18.5925 17.5403 18.4262 17.4999 18.2638 17.7351C18.0975 17.969 17.6225 18.5022 17.48 18.6554C17.3375 18.8133 17.19 18.8311 16.9425 18.7147C16.6962 18.596 15.8975 18.349 14.9525 17.5451C14.215 16.9216 13.7213 16.1497 13.5738 15.9158C13.4313 15.6807 13.56 15.5548 13.6837 15.4372C13.7925 15.3327 13.93 15.1617 14.0538 15.0264C14.1788 14.891 14.22 14.7912 14.3012 14.6345C14.3825 14.4754 14.3438 14.34 14.2825 14.2224C14.22 14.1049 13.7262 12.9447 13.5175 12.4768C13.3175 12.0149 13.1137 12.079 12.9612 12.0731C12.8187 12.0647 12.6525 12.0647 12.4862 12.0647C12.3607 12.0677 12.2372 12.0953 12.1234 12.1458C12.0096 12.1962 11.908 12.2685 11.825 12.3581C11.5975 12.5932 10.9613 13.162 10.9613 14.3222C10.9613 15.4824 11.8487 16.5974 11.9737 16.7554C12.0962 16.9133 13.7162 19.2871 16.2025 20.3084C16.79 20.5518 17.2525 20.6955 17.6138 20.8047C18.2075 20.9852 18.7437 20.9579 19.1712 20.8997C19.6462 20.8309 20.635 20.3297 20.8438 19.7799C21.0487 19.2289 21.0488 18.7587 20.9862 18.6601C20.925 18.5604 20.7587 18.5022 20.5113 18.3846Z" fill="white"/>
</g>
<defs>
<clipPath id="clip0">
<rect width="20" height="19" fill="white" transform="translate(6 7)"/>
</clipPath>
</defs>
</svg>
