<svg width="32" height="33" viewBox="0 0 32 33" fill="none" xmlns="http://www.w3.org/2000/svg">
<ellipse cx="15.2" cy="17.3252" rx="12" ry="12.375" fill="white"/>
<path d="M15.9999 0.660156C7.51669 0.660156 0.639893 7.75186 0.639893 16.5002C0.639893 25.2485 7.51669 32.3402 15.9999 32.3402C24.4831 32.3402 31.3599 25.2485 31.3599 16.5002C31.3599 7.75186 24.4831 0.660156 15.9999 0.660156ZM19.6383 11.6063H17.3295C17.0559 11.6063 16.7519 11.9775 16.7519 12.4709V14.1902H19.6399L19.2031 16.6421H16.7519V24.0027H14.0271V16.6421H11.5551V14.1902H14.0271V12.7481C14.0271 10.679 15.4191 8.99761 17.3295 8.99761H19.6383V11.6063Z" fill="#3B5995"/>
</svg>
