<svg width="33" height="33" viewBox="0 0 33 33" fill="none" xmlns="http://www.w3.org/2000/svg">
<path d="M16.5 0C7.38723 0 0 7.38723 0 16.5C0 25.6128 7.38723 33 16.5 33C25.6128 33 33 25.6128 33 16.5C33 7.38723 25.6128 0 16.5 0Z" fill="#40B3E0"/>
<path d="M24.5287 9.49117L21.5815 24.3501C21.5815 24.3501 21.1694 25.3805 20.0359 24.8859L13.2351 19.6719L10.7621 18.4767L6.59924 17.0752C6.59924 17.0752 5.96038 16.8486 5.8985 16.354C5.83663 15.8594 6.61986 15.5915 6.61986 15.5915L23.1683 9.09981C23.1683 9.09981 24.5285 8.5022 24.5285 9.49142" fill="white"/>
<path d="M12.7126 24.1832C12.7126 24.1832 12.514 24.1647 12.2665 23.3814C12.0194 22.5983 10.7622 18.4767 10.7622 18.4767L20.7573 12.1294C20.7573 12.1294 21.3345 11.779 21.3138 12.1294C21.3138 12.1294 21.4168 12.1912 21.1076 12.4797C20.7986 12.7683 13.2559 19.5484 13.2559 19.5484" fill="#D2E5F1"/>
<path d="M15.8426 21.6709L13.1527 24.1234C13.1527 24.1234 12.9424 24.283 12.7124 24.183L13.2275 19.6274" fill="#B5CFE4"/>
</svg>
