<svg width="33" height="33" viewBox="0 0 33 33" fill="none" xmlns="http://www.w3.org/2000/svg">
<ellipse cx="15.675" cy="17.3252" rx="12.375" ry="12.375" fill="white"/>
<path d="M16.5 33C14.2656 33 12.1279 32.5649 10.0869 31.6948C8.0459 30.8247 6.28955 29.6538 4.81787 28.1821C3.34619 26.7104 2.17529 24.9541 1.30518 22.9131C0.435059 20.8721 0 18.7344 0 16.5C0 14.2656 0.435059 12.1279 1.30518 10.0869C2.17529 8.0459 3.34619 6.28955 4.81787 4.81787C6.28955 3.34619 8.0459 2.17529 10.0869 1.30518C12.1279 0.435059 14.2656 0 16.5 0C18.7344 0 20.8721 0.435059 22.9131 1.30518C24.9541 2.17529 26.7104 3.34619 28.1821 4.81787C29.6538 6.28955 30.8247 8.0459 31.6948 10.0869C32.5649 12.1279 33 14.2656 33 16.5C33 18.7344 32.5649 20.8721 31.6948 22.9131C30.8247 24.9541 29.6538 26.7104 28.1821 28.1821C26.7104 29.6538 24.9541 30.8247 22.9131 31.6948C20.8721 32.5649 18.7344 33 16.5 33ZM26.2002 8.25C26.0713 8.31445 25.8779 8.43262 25.6201 8.60449L24.9917 9.02344L24.3955 9.3457L23.7188 9.57129C22.9238 8.69043 21.9463 8.25 20.7861 8.25C18.2725 8.25 17.0156 9.30273 17.0156 11.4082V13.3096C13.5566 13.1377 10.9033 11.8701 9.05566 9.50684C8.51855 10.0654 8.25 10.6777 8.25 11.3438C8.25 12.7617 8.77637 13.8359 9.8291 14.5664C9.7002 14.5664 9.51758 14.5771 9.28125 14.5986C9.04492 14.6201 8.85693 14.6201 8.71729 14.5986C8.57764 14.5771 8.42188 14.5234 8.25 14.4375C8.25 15.4258 8.51318 16.2476 9.03955 16.9028C9.56592 17.5581 10.291 17.9824 11.2148 18.1758C11 18.4336 10.6992 18.5625 10.3125 18.5625C9.96875 18.5625 9.66797 18.4658 9.41016 18.2725C9.41016 19.1104 9.81299 19.7603 10.6187 20.2222C11.4243 20.6841 12.332 20.9258 13.3418 20.9473C12.9551 21.5273 12.3911 21.9624 11.6499 22.2524C10.9087 22.5425 10.1191 22.6875 9.28125 22.6875C8.98047 22.6875 8.56689 22.6123 8.04053 22.4619C7.51416 22.3115 7.24023 22.2363 7.21875 22.2363C7.5625 22.9238 8.26611 23.5146 9.32959 24.0088C10.3931 24.5029 11.7412 24.75 13.374 24.75C14.8135 24.75 16.1562 24.4976 17.4023 23.9927C18.6484 23.4878 19.7119 22.8164 20.5928 21.9785C21.4736 21.1406 22.231 20.1846 22.8647 19.1104C23.4985 18.0361 23.9712 16.9243 24.2827 15.7749C24.5942 14.6255 24.75 13.4922 24.75 12.375C24.75 12.332 24.8789 12.2407 25.1367 12.1011C25.3945 11.9614 25.6953 11.7734 26.0391 11.5371C26.3828 11.3008 26.6406 11.0537 26.8125 10.7959C25.6523 10.7959 24.8789 10.8174 24.4922 10.8604C25.2441 10.4092 25.8135 9.53906 26.2002 8.25Z" fill="#09A7F1"/>
</svg>
