<svg width="50" height="50" viewBox="0 0 50 50" fill="none" xmlns="http://www.w3.org/2000/svg">
<circle cx="25" cy="25" r="25" fill="#00A3F5"/>
<g clip-path="url(#clip0)">
<path d="M25 15C20.8363 15 17.4609 18.3753 17.4609 22.5391C17.4609 23.9315 17.7335 25.3697 18.5156 26.4063L25 35L31.4844 26.4063C32.1948 25.4648 32.5391 23.8003 32.5391 22.5391C32.5391 18.3753 29.1637 15 25 15ZM25 19.3665C26.7519 19.3665 28.1726 20.7871 28.1726 22.5391C28.1726 24.291 26.7519 25.7117 25 25.7117C23.2481 25.7117 21.8274 24.291 21.8274 22.5391C21.8274 20.7871 23.2481 19.3665 25 19.3665Z" fill="white"/>
</g>
<defs>
<clipPath id="clip0">
<rect width="20" height="20" fill="white" transform="translate(15 15)"/>
</clipPath>
</defs>
</svg>
