<svg width="50" height="50" viewBox="0 0 50 50" fill="none" xmlns="http://www.w3.org/2000/svg">
<circle cx="25" cy="25" r="25" fill="#00A3F5"/>
<path d="M33 22.373V29.5C33 30.163 32.7366 30.7989 32.2678 31.2678C31.7989 31.7366 31.163 32 30.5 32H19.5C18.837 32 18.2011 31.7366 17.7322 31.2678C17.2634 30.7989 17 30.163 17 29.5V22.373L24.746 26.931C24.823 26.9764 24.9107 27.0003 25 27.0003C25.0893 27.0003 25.177 26.9764 25.254 26.931L33 22.373ZM30.5 19C31.1151 18.9999 31.7087 19.2266 32.1672 19.6367C32.6257 20.0469 32.9168 20.6116 32.985 21.223L25 25.92L17.015 21.223C17.0832 20.6116 17.3743 20.0469 17.8328 19.6367C18.2913 19.2266 18.8849 18.9999 19.5 19H30.5Z" fill="white"/>
</svg>
