<svg width="32" height="33" viewBox="0 0 32 33" fill="none" xmlns="http://www.w3.org/2000/svg">
<ellipse cx="16" cy="16.5" rx="16" ry="16.5" fill="#DCDCDC"/>
<g clip-path="url(#clip0)">
<path d="M23.0012 8.76213C22.0843 7.883 20.9924 7.18602 19.7891 6.7118C18.5858 6.23759 17.2952 5.99562 15.9925 6.00001C10.5337 6.00001 6.085 10.2251 6.08 15.4121C6.08 17.0734 6.5375 18.6896 7.40125 20.1206L6 25L11.255 23.6914C12.7088 24.443 14.3374 24.8369 15.9925 24.8373H15.9975C21.4575 24.8373 25.905 20.6122 25.91 15.4204C25.9112 14.1831 25.6548 12.9578 25.1553 11.8151C24.6559 10.6723 23.9234 9.63475 23 8.76213H23.0012ZM15.9925 23.2437C14.5162 23.2442 13.0671 22.8668 11.7975 22.1512L11.4975 21.9802L8.38 22.7568L9.2125 19.8676L9.0175 19.5696C8.19226 18.3231 7.75581 16.8799 7.75875 15.4074C7.75875 11.1015 11.455 7.58888 15.9975 7.58888C17.0797 7.58704 18.1515 7.78871 19.1513 8.18227C20.151 8.57583 21.0589 9.15349 21.8225 9.88195C22.5888 10.6076 23.1963 11.4701 23.6099 12.4199C24.0235 13.3697 24.2351 14.3879 24.2325 15.4157C24.2275 19.737 20.5312 23.2437 15.9925 23.2437ZM20.5113 17.3846C20.265 17.267 19.0487 16.6982 18.82 16.6174C18.5925 16.5403 18.4262 16.4999 18.2638 16.735C18.0975 16.9689 17.6225 17.5021 17.48 17.6553C17.3375 17.8133 17.19 17.8311 16.9425 17.7147C16.6962 17.5959 15.8975 17.3489 14.9525 16.545C14.215 15.9216 13.7213 15.1497 13.5738 14.9158C13.4313 14.6806 13.56 14.5548 13.6837 14.4372C13.7925 14.3327 13.93 14.1617 14.0538 14.0263C14.1788 13.8909 14.22 13.7912 14.3012 13.6344C14.3825 13.4753 14.3438 13.3399 14.2825 13.2224C14.22 13.1048 13.7262 11.9446 13.5175 11.4768C13.3175 11.0148 13.1137 11.0789 12.9612 11.073C12.8187 11.0647 12.6525 11.0647 12.4862 11.0647C12.3607 11.0677 12.2372 11.0952 12.1234 11.1457C12.0096 11.1962 11.908 11.2685 11.825 11.358C11.5975 11.5931 10.9613 12.1619 10.9613 13.3221C10.9613 14.4823 11.8487 15.5974 11.9737 15.7553C12.0962 15.9133 13.7162 18.2871 16.2025 19.3083C16.79 19.5518 17.2525 19.6954 17.6138 19.8047C18.2075 19.9852 18.7437 19.9579 19.1712 19.8997C19.6462 19.8308 20.635 19.3297 20.8438 18.7799C21.0487 18.2289 21.0488 17.7586 20.9862 17.6601C20.925 17.5603 20.7587 17.5021 20.5113 17.3846Z" fill="#02102F"/>
</g>
<defs>
<clipPath id="clip0">
<rect width="20" height="19" fill="white" transform="translate(6 6)"/>
</clipPath>
</defs>
</svg>
