<svg width="40" height="40" viewBox="0 0 40 40" fill="none" xmlns="http://www.w3.org/2000/svg">
<path d="M19.9999 0.799805C9.39593 0.799805 0.799927 9.39581 0.799927 19.9998C0.799927 30.6038 9.39593 39.1998 19.9999 39.1998C30.6039 39.1998 39.1999 30.6038 39.1999 19.9998C39.1999 9.39581 30.6039 0.799805 19.9999 0.799805ZM27.8099 16.5278C27.8179 16.6918 27.8199 16.8558 27.8199 17.0158C27.8199 22.0158 24.0179 27.7778 17.0619 27.7778C15.0065 27.7812 12.9939 27.1909 11.2659 26.0778C11.5599 26.1138 11.8619 26.1278 12.1679 26.1278C13.9399 26.1278 15.5699 25.5258 16.8639 24.5098C16.0754 24.4943 15.3113 24.2332 14.6781 23.7628C14.045 23.2925 13.5744 22.6363 13.3319 21.8858C13.8982 21.9935 14.4816 21.9709 15.0379 21.8198C14.182 21.6467 13.4123 21.183 12.8593 20.5071C12.3064 19.8313 12.0041 18.985 12.0039 18.1118V18.0658C12.5139 18.3478 13.0979 18.5198 13.7179 18.5398C12.9155 18.0057 12.3475 17.1851 12.13 16.2461C11.9125 15.307 12.062 14.3203 12.5479 13.4878C13.4978 14.6558 14.6824 15.6113 16.0251 16.2924C17.3677 16.9736 18.8384 17.3651 20.3419 17.4418C20.1508 16.6304 20.233 15.7786 20.5759 15.0188C20.9188 14.259 21.5032 13.6338 22.2381 13.2403C22.973 12.8469 23.8173 12.7073 24.6397 12.8431C25.4622 12.979 26.2167 13.3829 26.7859 13.9918C27.6323 13.8244 28.4439 13.5139 29.1859 13.0738C28.9039 13.9501 28.3133 14.6942 27.5239 15.1678C28.2736 15.0775 29.0057 14.876 29.6959 14.5698C29.1889 15.3296 28.5502 15.9927 27.8099 16.5278Z" fill="#00A3F5"/>
</svg>
