<svg width="40" height="40" viewBox="0 0 40 40" fill="none" xmlns="http://www.w3.org/2000/svg">
<path d="M23.2059 19.6658L18.7139 17.5698C18.3219 17.3878 17.9999 17.5918 17.9999 18.0258V21.9738C17.9999 22.4078 18.3219 22.6118 18.7139 22.4298L23.2039 20.3338C23.5979 20.1498 23.5979 19.8498 23.2059 19.6658ZM19.9999 0.799805C9.39593 0.799805 0.799927 9.39581 0.799927 19.9998C0.799927 30.6038 9.39593 39.1998 19.9999 39.1998C30.6039 39.1998 39.1999 30.6038 39.1999 19.9998C39.1999 9.39581 30.6039 0.799805 19.9999 0.799805ZM19.9999 27.7998C10.1719 27.7998 9.99993 26.9138 9.99993 19.9998C9.99993 13.0858 10.1719 12.1998 19.9999 12.1998C29.8279 12.1998 29.9999 13.0858 29.9999 19.9998C29.9999 26.9138 29.8279 27.7998 19.9999 27.7998Z" fill="#DCDCDC"/>
</svg>
