<svg width="40" height="40" viewBox="0 0 40 40" fill="none" xmlns="http://www.w3.org/2000/svg">
<path d="M19.9999 0.799805C9.39593 0.799805 0.799927 9.39581 0.799927 19.9998C0.799927 30.6038 9.39593 39.1998 19.9999 39.1998C30.6039 39.1998 39.1999 30.6038 39.1999 19.9998C39.1999 9.39581 30.6039 0.799805 19.9999 0.799805ZM15.2999 27.9578H11.4119V15.4458H15.2999V27.9578ZM13.3319 13.9098C12.1039 13.9098 11.3099 13.0398 11.3099 11.9638C11.3099 10.8658 12.1279 10.0218 13.3819 10.0218C14.6359 10.0218 15.4039 10.8658 15.4279 11.9638C15.4279 13.0398 14.6359 13.9098 13.3319 13.9098ZM29.4999 27.9578H25.6119V21.0238C25.6119 19.4098 25.0479 18.3138 23.6419 18.3138C22.5679 18.3138 21.9299 19.0558 21.6479 19.7698C21.5439 20.0238 21.5179 20.3838 21.5179 20.7418V27.9558H17.6279V19.4358C17.6279 17.8738 17.5779 16.5678 17.5259 15.4438H20.9039L21.0819 17.1818H21.1599C21.6719 16.3658 22.9259 15.1618 25.0239 15.1618C27.5819 15.1618 29.4999 16.8758 29.4999 20.5598V27.9578Z" fill="#DCDCDC"/>
</svg>
