<svg width="33" height="33" viewBox="0 0 33 33" fill="none" xmlns="http://www.w3.org/2000/svg">
<circle cx="16.5" cy="16.5" r="16.5" fill="#DCDCDC"/>
<path d="M24.1004 14.0044V20.775C24.1004 21.4049 23.8502 22.009 23.4048 22.4544C22.9594 22.8998 22.3553 23.15 21.7254 23.15H11.2754C10.6455 23.15 10.0414 22.8998 9.59601 22.4544C9.15061 22.009 8.90039 21.4049 8.90039 20.775V14.0044L16.2591 18.3345C16.3322 18.3776 16.4155 18.4003 16.5004 18.4003C16.5853 18.4003 16.6686 18.3776 16.7417 18.3345L24.1004 14.0044ZM21.7254 10.8C22.3098 10.7999 22.8737 11.0153 23.3092 11.4049C23.7448 11.7945 24.0214 12.3311 24.0861 12.9119L16.5004 17.374L8.91464 12.9119C8.97939 12.3311 9.256 11.7945 9.69155 11.4049C10.1271 11.0153 10.691 10.7999 11.2754 10.8H21.7254Z" fill="#02102F"/>
</svg>
