<svg width="31" height="30" viewBox="0 0 31 30" fill="none" xmlns="http://www.w3.org/2000/svg">
<g clip-path="url(#clip0)">
<path d="M15.6123 30C23.8966 30 30.6123 23.2843 30.6123 15C30.6123 6.71573 23.8966 0 15.6123 0C7.32803 0 0.612305 6.71573 0.612305 15C0.612305 23.2843 7.32803 30 15.6123 30Z" fill="#0D1E30"/>
<g filter="url(#filter0_d)">
<path d="M15.3541 5.68123C15.8031 5.44966 16.3516 5.98498 16.1135 6.42654C15.9738 6.78654 15.4478 6.88216 15.1797 6.60748C14.8956 6.34498 14.9885 5.82373 15.3541 5.68029V5.68123ZM10.5213 6.1931C10.7941 6.08248 11.14 6.3281 11.1119 6.62154C11.14 6.93841 10.7463 7.17279 10.4678 7.02185C10.0994 6.88123 10.1416 6.29248 10.5213 6.1931ZM20.4194 7.03029C19.9928 6.97966 19.9253 6.31966 20.335 6.18654C20.6538 6.03466 20.9463 6.3206 20.9931 6.61779C20.9256 6.87091 20.71 7.10341 20.4194 7.03029ZM11.621 8.21623C12.0775 7.93216 12.7281 8.35498 12.6578 8.87716C12.6344 9.4031 11.9238 9.70873 11.5225 9.35248C11.1344 9.0731 11.1935 8.43185 11.621 8.21623ZM18.5866 8.5181C18.79 8.00248 19.615 7.9856 19.8466 8.4881C20.0763 8.87904 19.7941 9.36373 19.3863 9.49685C18.8453 9.59623 18.3325 9.0206 18.5866 8.5181ZM14.7719 9.46779C14.7672 9.02341 15.1778 8.69341 15.6063 8.66248C15.8913 8.71873 16.2006 8.83779 16.3225 9.11998C16.5503 9.50998 16.3478 10.0453 15.9381 10.2244C15.7506 10.3275 15.5275 10.289 15.3231 10.2769C15.011 10.1269 14.7475 9.82966 14.7719 9.46779ZM7.58501 10.1147C8.0022 9.86154 8.5647 10.3209 8.40626 10.7672C8.32001 11.1525 7.79314 11.309 7.4922 11.0634C7.17064 10.8328 7.22126 10.2787 7.58595 10.1137L7.58501 10.1147ZM23.0181 10.1128C23.3716 9.84279 23.9556 10.1531 23.9125 10.5919C23.9369 10.9922 23.4316 11.295 23.081 11.0887C22.6947 10.9172 22.6544 10.3322 23.0181 10.1137V10.1128ZM16.7931 10.9106C17.3763 10.7044 18.07 10.9509 18.4019 11.4637C18.8406 12.089 18.6081 13.0415 17.9266 13.4006C17.2216 13.8253 16.1913 13.4662 15.9297 12.69C15.6344 11.9962 16.0656 11.1281 16.7922 10.9106H16.7931ZM13.3685 10.979C14.0153 10.679 14.8863 10.9303 15.1985 11.5809C15.566 12.2147 15.2819 13.0969 14.6247 13.424C13.9666 13.7925 13.0375 13.5131 12.7197 12.8334C12.3625 12.1753 12.6794 11.2819 13.3685 10.979ZM9.94001 12.1312C9.9897 11.7215 10.3825 11.4544 10.7791 11.4262C10.9859 11.4481 11.1792 11.5394 11.3273 11.6854C11.4755 11.8313 11.5697 12.0232 11.5947 12.2297C11.5666 12.6515 11.2356 13.0622 10.7819 13.0603C10.2822 13.1025 9.84439 12.6131 9.94001 12.1312ZM20.0669 11.5162C20.5797 11.2228 21.2913 11.6494 21.2688 12.2287C21.3035 12.8428 20.516 13.275 20.006 12.915C19.4753 12.615 19.5166 11.7712 20.0669 11.5162ZM11.9763 13.679C12.5744 13.5169 13.2606 13.7944 13.5541 14.3362C13.8756 14.8819 13.7444 15.6394 13.2447 16.0406C12.6025 16.6275 11.4203 16.3912 11.0791 15.5906C10.6863 14.8565 11.1635 13.8722 11.9753 13.6781L11.9763 13.679ZM18.4703 13.6762C19.0525 13.5122 19.7369 13.7325 20.05 14.2547C20.4644 14.8519 20.2666 15.7434 19.6506 16.1278C19.0038 16.575 18.0044 16.3406 17.6481 15.6412C17.2169 14.9184 17.651 13.8965 18.4703 13.6762ZM8.12033 14.3569C8.63783 14.1647 9.21158 14.7262 9.00158 15.2315C8.87408 15.6909 8.21501 15.8615 7.8747 15.5222C7.47626 15.2034 7.62345 14.4956 8.12033 14.3569ZM22.1538 15.09C22.144 14.8836 22.2162 14.6817 22.3546 14.5283C22.4929 14.3748 22.6862 14.2822 22.8925 14.2706C23.2469 14.3269 23.5919 14.6081 23.5638 14.9878C23.5966 15.4894 22.9825 15.8297 22.5475 15.5944C22.3441 15.4922 22.24 15.2869 22.1538 15.09ZM5.57501 14.6062C5.88626 14.4722 6.27158 14.7375 6.20033 15.0778C6.18345 15.4631 5.60501 15.6122 5.39314 15.2897C5.20564 15.0656 5.31814 14.7215 5.57501 14.6053V14.6062ZM25.2147 14.5978C25.4341 14.445 25.7866 14.5547 25.8728 14.8069C26.02 15.0825 25.75 15.4594 25.435 15.4134C24.9925 15.4528 24.85 14.79 25.2147 14.5978ZM13.6675 16.4475C14.4869 16.2384 15.3681 16.9106 15.3738 17.7412C15.4263 18.5803 14.5581 19.3237 13.72 19.1306C13.0713 19.0275 12.5622 18.4125 12.5838 17.7684C12.5819 17.1515 13.0544 16.5778 13.6675 16.4475ZM16.9131 16.4465C17.7447 16.2178 18.6522 16.9022 18.6391 17.7515C18.6831 18.5747 17.8422 19.2937 17.021 19.1297C16.2475 19.0322 15.6775 18.1969 15.8931 17.4581C16.0019 16.9669 16.42 16.5675 16.9131 16.4456V16.4465ZM10.6544 16.9575C11.23 16.8609 11.77 17.4919 11.5366 18.03C11.366 18.6037 10.5185 18.7584 10.1435 18.2906C9.7047 17.8406 10.0328 17.0194 10.6544 16.9575ZM20.1738 16.9828C20.6875 16.7709 21.3175 17.2078 21.2781 17.7562C21.2988 18.359 20.5206 18.7753 20.0191 18.4228C19.45 18.1069 19.5541 17.1759 20.1738 16.9828ZM22.8344 19.6078C22.6338 19.2394 22.9985 18.7509 23.4156 18.8194C23.6219 18.8156 23.7672 18.9759 23.8994 19.1109C23.9266 19.3294 23.9725 19.59 23.7878 19.7578C23.5375 20.07 22.9703 19.9809 22.8344 19.6078ZM7.58314 18.9215C7.9722 18.6675 8.53189 19.0472 8.44376 19.4934C8.39689 19.89 7.89064 20.1159 7.55783 19.8909C7.1997 19.6875 7.21283 19.1072 7.58314 18.9215ZM15.2641 19.7494C15.7731 19.529 16.4219 19.965 16.3731 20.5162C16.4106 21.1256 15.6091 21.5475 15.1113 21.1819C14.5581 20.8678 14.651 19.9434 15.2641 19.7494ZM11.7072 20.5659C12.1403 20.3419 12.7216 20.729 12.6822 21.2072C12.6953 21.599 12.3072 21.9328 11.9135 21.8747C11.5881 21.8681 11.3763 21.5803 11.2713 21.3075C11.2769 21.0103 11.4016 20.6794 11.7072 20.5669V20.5659ZM18.9128 20.5734C19.3591 20.3015 19.9928 20.6915 19.9506 21.2015C19.9619 21.7359 19.2456 22.0772 18.8303 21.7265C18.4291 21.4519 18.4778 20.7919 18.9128 20.5734ZM20.1663 23.6203C19.9675 23.3259 20.201 22.9706 20.5225 22.9031C20.7822 22.9547 21.0569 23.1469 21.0016 23.4412C20.9641 23.8415 20.3697 23.9634 20.1663 23.6212V23.6203ZM10.2185 23.3644C10.2972 23.13 10.4885 22.8984 10.7688 22.9594C11.1766 22.9875 11.2975 23.5931 10.9403 23.7797C10.6197 23.9925 10.2466 23.7009 10.2185 23.3644ZM15.0185 23.6334C15.0963 23.2865 15.551 23.1187 15.851 23.3025C16.0497 23.3869 16.1078 23.6044 16.1585 23.79C16.1317 23.8864 16.1067 23.9833 16.0835 24.0806C15.9606 24.2231 15.8022 24.3665 15.5978 24.3619C15.2181 24.4059 14.875 23.9831 15.0175 23.6334H15.0185Z" fill="black"/>
</g>
<path d="M15.3541 5.68123C15.8031 5.44966 16.3516 5.98498 16.1135 6.42654C15.9738 6.78654 15.4478 6.88216 15.1797 6.60748C14.8956 6.34498 14.9885 5.82373 15.3541 5.68029V5.68123ZM10.5213 6.1931C10.7941 6.08248 11.14 6.3281 11.1119 6.62154C11.14 6.93841 10.7463 7.17279 10.4678 7.02185C10.0994 6.88123 10.1416 6.29248 10.5213 6.1931ZM20.4194 7.03029C19.9928 6.97966 19.9253 6.31966 20.335 6.18654C20.6538 6.03466 20.9463 6.3206 20.9931 6.61779C20.9256 6.87091 20.71 7.10341 20.4194 7.03029ZM11.621 8.21623C12.0775 7.93216 12.7281 8.35498 12.6578 8.87716C12.6344 9.4031 11.9238 9.70873 11.5225 9.35248C11.1344 9.0731 11.1935 8.43185 11.621 8.21623ZM18.5866 8.5181C18.79 8.00248 19.615 7.9856 19.8466 8.4881C20.0763 8.87904 19.7941 9.36373 19.3863 9.49685C18.8453 9.59623 18.3325 9.0206 18.5866 8.5181ZM14.7719 9.46779C14.7672 9.02341 15.1778 8.69341 15.6063 8.66248C15.8913 8.71873 16.2006 8.83779 16.3225 9.11998C16.5503 9.50998 16.3478 10.0453 15.9381 10.2244C15.7506 10.3275 15.5275 10.289 15.3231 10.2769C15.011 10.1269 14.7475 9.82966 14.7719 9.46779ZM7.58501 10.1147C8.0022 9.86154 8.5647 10.3209 8.40626 10.7672C8.32001 11.1525 7.79314 11.309 7.4922 11.0634C7.17064 10.8328 7.22126 10.2787 7.58595 10.1137L7.58501 10.1147ZM23.0181 10.1128C23.3716 9.84279 23.9556 10.1531 23.9125 10.5919C23.9369 10.9922 23.4316 11.295 23.081 11.0887C22.6947 10.9172 22.6544 10.3322 23.0181 10.1137V10.1128ZM16.7931 10.9106C17.3763 10.7044 18.07 10.9509 18.4019 11.4637C18.8406 12.089 18.6081 13.0415 17.9266 13.4006C17.2216 13.8253 16.1913 13.4662 15.9297 12.69C15.6344 11.9962 16.0656 11.1281 16.7922 10.9106H16.7931ZM13.3685 10.979C14.0153 10.679 14.8863 10.9303 15.1985 11.5809C15.566 12.2147 15.2819 13.0969 14.6247 13.424C13.9666 13.7925 13.0375 13.5131 12.7197 12.8334C12.3625 12.1753 12.6794 11.2819 13.3685 10.979ZM9.94001 12.1312C9.9897 11.7215 10.3825 11.4544 10.7791 11.4262C10.9859 11.4481 11.1792 11.5394 11.3273 11.6854C11.4755 11.8313 11.5697 12.0232 11.5947 12.2297C11.5666 12.6515 11.2356 13.0622 10.7819 13.0603C10.2822 13.1025 9.84439 12.6131 9.94001 12.1312ZM20.0669 11.5162C20.5797 11.2228 21.2913 11.6494 21.2688 12.2287C21.3035 12.8428 20.516 13.275 20.006 12.915C19.4753 12.615 19.5166 11.7712 20.0669 11.5162ZM11.9763 13.679C12.5744 13.5169 13.2606 13.7944 13.5541 14.3362C13.8756 14.8819 13.7444 15.6394 13.2447 16.0406C12.6025 16.6275 11.4203 16.3912 11.0791 15.5906C10.6863 14.8565 11.1635 13.8722 11.9753 13.6781L11.9763 13.679ZM18.4703 13.6762C19.0525 13.5122 19.7369 13.7325 20.05 14.2547C20.4644 14.8519 20.2666 15.7434 19.6506 16.1278C19.0038 16.575 18.0044 16.3406 17.6481 15.6412C17.2169 14.9184 17.651 13.8965 18.4703 13.6762ZM8.12033 14.3569C8.63783 14.1647 9.21158 14.7262 9.00158 15.2315C8.87408 15.6909 8.21501 15.8615 7.8747 15.5222C7.47626 15.2034 7.62345 14.4956 8.12033 14.3569ZM22.1538 15.09C22.144 14.8836 22.2162 14.6817 22.3546 14.5283C22.4929 14.3748 22.6862 14.2822 22.8925 14.2706C23.2469 14.3269 23.5919 14.6081 23.5638 14.9878C23.5966 15.4894 22.9825 15.8297 22.5475 15.5944C22.3441 15.4922 22.24 15.2869 22.1538 15.09ZM5.57501 14.6062C5.88626 14.4722 6.27158 14.7375 6.20033 15.0778C6.18345 15.4631 5.60501 15.6122 5.39314 15.2897C5.20564 15.0656 5.31814 14.7215 5.57501 14.6053V14.6062ZM25.2147 14.5978C25.4341 14.445 25.7866 14.5547 25.8728 14.8069C26.02 15.0825 25.75 15.4594 25.435 15.4134C24.9925 15.4528 24.85 14.79 25.2147 14.5978ZM13.6675 16.4475C14.4869 16.2384 15.3681 16.9106 15.3738 17.7412C15.4263 18.5803 14.5581 19.3237 13.72 19.1306C13.0713 19.0275 12.5622 18.4125 12.5838 17.7684C12.5819 17.1515 13.0544 16.5778 13.6675 16.4475ZM16.9131 16.4465C17.7447 16.2178 18.6522 16.9022 18.6391 17.7515C18.6831 18.5747 17.8422 19.2937 17.021 19.1297C16.2475 19.0322 15.6775 18.1969 15.8931 17.4581C16.0019 16.9669 16.42 16.5675 16.9131 16.4456V16.4465ZM10.6544 16.9575C11.23 16.8609 11.77 17.4919 11.5366 18.03C11.366 18.6037 10.5185 18.7584 10.1435 18.2906C9.7047 17.8406 10.0328 17.0194 10.6544 16.9575ZM20.1738 16.9828C20.6875 16.7709 21.3175 17.2078 21.2781 17.7562C21.2988 18.359 20.5206 18.7753 20.0191 18.4228C19.45 18.1069 19.5541 17.1759 20.1738 16.9828ZM22.8344 19.6078C22.6338 19.2394 22.9985 18.7509 23.4156 18.8194C23.6219 18.8156 23.7672 18.9759 23.8994 19.1109C23.9266 19.3294 23.9725 19.59 23.7878 19.7578C23.5375 20.07 22.9703 19.9809 22.8344 19.6078ZM7.58314 18.9215C7.9722 18.6675 8.53189 19.0472 8.44376 19.4934C8.39689 19.89 7.89064 20.1159 7.55783 19.8909C7.1997 19.6875 7.21283 19.1072 7.58314 18.9215ZM15.2641 19.7494C15.7731 19.529 16.4219 19.965 16.3731 20.5162C16.4106 21.1256 15.6091 21.5475 15.1113 21.1819C14.5581 20.8678 14.651 19.9434 15.2641 19.7494ZM11.7072 20.5659C12.1403 20.3419 12.7216 20.729 12.6822 21.2072C12.6953 21.599 12.3072 21.9328 11.9135 21.8747C11.5881 21.8681 11.3763 21.5803 11.2713 21.3075C11.2769 21.0103 11.4016 20.6794 11.7072 20.5669V20.5659ZM18.9128 20.5734C19.3591 20.3015 19.9928 20.6915 19.9506 21.2015C19.9619 21.7359 19.2456 22.0772 18.8303 21.7265C18.4291 21.4519 18.4778 20.7919 18.9128 20.5734ZM20.1663 23.6203C19.9675 23.3259 20.201 22.9706 20.5225 22.9031C20.7822 22.9547 21.0569 23.1469 21.0016 23.4412C20.9641 23.8415 20.3697 23.9634 20.1663 23.6212V23.6203ZM10.2185 23.3644C10.2972 23.13 10.4885 22.8984 10.7688 22.9594C11.1766 22.9875 11.2975 23.5931 10.9403 23.7797C10.6197 23.9925 10.2466 23.7009 10.2185 23.3644ZM15.0185 23.6334C15.0963 23.2865 15.551 23.1187 15.851 23.3025C16.0497 23.3869 16.1078 23.6044 16.1585 23.79C16.1317 23.8864 16.1067 23.9833 16.0835 24.0806C15.9606 24.2231 15.8022 24.3665 15.5978 24.3619C15.2181 24.4059 14.875 23.9831 15.0175 23.6334H15.0185Z" fill="white"/>
</g>
<defs>
<filter id="filter0_d" x="4.2998" y="5.12537" width="22.6143" height="20.7397" filterUnits="userSpaceOnUse" color-interpolation-filters="sRGB">
<feFlood flood-opacity="0" result="BackgroundImageFix"/>
<feColorMatrix in="SourceAlpha" type="matrix" values="0 0 0 0 0 0 0 0 0 0 0 0 0 0 0 0 0 0 127 0"/>
<feOffset dy="0.5"/>
<feGaussianBlur stdDeviation="0.5"/>
<feColorMatrix type="matrix" values="0 0 0 0 0 0 0 0 0 0 0 0 0 0 0 0 0 0 0.204257 0"/>
<feBlend mode="normal" in2="BackgroundImageFix" result="effect1_dropShadow"/>
<feBlend mode="normal" in="SourceGraphic" in2="effect1_dropShadow" result="shape"/>
</filter>
<clipPath id="clip0">
<rect width="30" height="30" fill="white" transform="translate(0.612305)"/>
</clipPath>
</defs>
</svg>
