<svg width="31" height="30" viewBox="0 0 31 30" fill="none" xmlns="http://www.w3.org/2000/svg">
<g clip-path="url(#clip0)">
<path d="M15.4814 30C23.7657 30 30.4814 23.2843 30.4814 15C30.4814 6.71573 23.7657 0 15.4814 0C7.19717 0 0.481445 6.71573 0.481445 15C0.481445 23.2843 7.19717 30 15.4814 30Z" fill="#8DC351"/>
<path d="M20.3631 9.87557C19.6356 8.02682 17.8112 7.85994 15.6868 8.27244L14.9303 5.63525L13.3253 6.09557L14.0621 8.66432C13.6403 8.78432 13.2109 8.91744 12.7843 9.04869L12.0437 6.46307L10.4396 6.92244L11.1943 9.55963C10.8493 9.6665 10.51 9.7715 10.1771 9.86713L10.1743 9.85775L7.95996 10.4924L8.45215 12.2081C8.45215 12.2081 9.63152 11.8443 9.61746 11.8724C10.2681 11.6859 10.5878 12.0028 10.7425 12.3112L11.605 15.3149C11.649 15.3028 11.7081 15.2878 11.7775 15.2774L11.6078 15.3262L12.8143 19.5356C12.8443 19.7484 12.8181 20.1093 12.3643 20.2406C12.3896 20.2528 11.1962 20.5743 11.1962 20.5743L11.4278 22.5834L13.5165 21.9834C13.9056 21.8737 14.29 21.7706 14.6659 21.6646L15.4318 24.3318L17.035 23.8724L16.2784 21.2334C16.7084 21.1193 17.1372 21.0005 17.5646 20.8771L18.3165 23.5049L19.9225 23.0446L19.1593 20.3821C21.8134 19.4531 23.5075 18.2315 23.0153 15.629C22.6196 13.5346 21.399 12.899 19.7612 12.9703C20.5562 12.2296 20.8984 11.2284 20.3631 9.8765V9.87557ZM19.7537 16.2224C20.3256 18.2165 16.8475 18.9684 15.76 19.2815L14.7465 15.7471C15.834 15.4349 19.1565 14.144 19.7528 16.2234L19.7537 16.2224ZM17.5768 11.4506C18.0962 13.2646 15.189 13.8693 14.2825 14.129L13.3637 10.9237C14.2693 10.664 17.034 9.55963 17.5768 11.4515V11.4506Z" fill="white"/>
</g>
<defs>
<clipPath id="clip0">
<rect width="30" height="30" fill="white" transform="translate(0.481445)"/>
</clipPath>
</defs>
</svg>
