<svg width="31" height="30" viewBox="0 0 31 30" fill="none" xmlns="http://www.w3.org/2000/svg">
<g clip-path="url(#clip0)">
<path d="M15.6123 30C23.8966 30 30.6123 23.2843 30.6123 15C30.6123 6.71573 23.8966 0 15.6123 0C7.32803 0 0.612305 6.71573 0.612305 15C0.612305 23.2843 7.32803 30 15.6123 30Z" fill="#F3BA2F"/>
<path d="M11.9711 13.5038L15.6123 9.8625L19.2554 13.5056L21.3742 11.3869L15.6123 5.625L9.85231 11.385L11.9711 13.5038ZM6.2373 15L8.35606 12.8812L10.4748 15L8.35606 17.1188L6.2373 15ZM11.9711 16.4963L15.6123 20.1375L19.2554 16.4944L21.3742 18.6122L15.6123 24.375L9.85231 18.615L9.84949 18.6122L11.9711 16.4963ZM20.7498 15L22.8686 12.8812L24.9873 15L22.8686 17.1188L20.7498 15ZM17.7611 14.9981H17.7629V15L15.6123 17.1506L13.4645 15.0037L13.4607 15L13.4645 14.9972L13.8404 14.6203L14.0232 14.4375L15.6123 12.8494L17.762 14.9991L17.7611 14.9981Z" fill="white"/>
</g>
<defs>
<clipPath id="clip0">
<rect width="30" height="30" fill="white" transform="translate(0.612305)"/>
</clipPath>
</defs>
</svg>
