<svg width="31" height="30" viewBox="0 0 31 30" fill="none" xmlns="http://www.w3.org/2000/svg">
<g clip-path="url(#clip0)">
<path d="M15.6123 30C23.8966 30 30.6123 23.2843 30.6123 15C30.6123 6.71573 23.8966 0 15.6123 0C7.32803 0 0.612305 6.71573 0.612305 15C0.612305 23.2843 7.32803 30 15.6123 30Z" fill="#F7931A"/>
<path d="M22.3523 13.1438C22.6466 11.1788 21.1495 10.1222 19.1038 9.41719L19.7676 6.75469L18.1476 6.35156L17.5007 8.94375C17.0751 8.83687 16.6382 8.7375 16.2023 8.63812L16.8538 6.02906L15.2338 5.625L14.5701 8.28656C14.2176 8.20594 13.8707 8.12719 13.5351 8.04281L13.537 8.03437L11.302 7.47656L10.8707 9.20719C10.8707 9.20719 12.0735 9.48281 12.0482 9.49969C12.7045 9.66375 12.8226 10.0978 12.8029 10.4428L12.0473 13.4756C12.0923 13.4869 12.1504 13.5037 12.216 13.5291L12.0445 13.4869L10.9851 17.7356C10.9045 17.9344 10.701 18.2334 10.2416 18.12C10.2585 18.1434 9.06414 17.8266 9.06414 17.8266L8.25977 19.6809L10.3691 20.2069C10.761 20.3053 11.1454 20.4084 11.5232 20.505L10.8529 23.1975L12.472 23.6006L13.1357 20.9381C13.5782 21.0572 14.0076 21.1678 14.4276 21.2728L13.7657 23.9241L15.3857 24.3272L16.056 21.6403C18.8198 22.1634 20.8973 21.9525 21.772 19.4531C22.477 17.4412 21.7373 16.2797 20.2832 15.5231C21.3426 15.2794 22.1395 14.5828 22.3523 13.1438ZM18.6491 18.3356C18.1495 20.3484 14.7604 19.26 13.6616 18.9872L14.5523 15.42C15.651 15.6947 19.1732 16.2375 18.6491 18.3356ZM19.1507 13.1147C18.6941 14.9456 15.8741 14.0147 14.9601 13.7869L15.7663 10.5525C16.6804 10.7803 19.627 11.205 19.1507 13.1147Z" fill="white"/>
</g>
<defs>
<clipPath id="clip0">
<rect width="30" height="30" fill="white" transform="translate(0.612305)"/>
</clipPath>
</defs>
</svg>
