<svg width="31" height="30" viewBox="0 0 31 30" fill="none" xmlns="http://www.w3.org/2000/svg">
<g clip-path="url(#clip0)">
<path d="M15.4814 30C23.7657 30 30.4814 23.2843 30.4814 15C30.4814 6.71573 23.7657 0 15.4814 0C7.19717 0 0.481445 6.71573 0.481445 15C0.481445 23.2843 7.19717 30 15.4814 30Z" fill="#E6007A"/>
<path d="M15.7369 6.21094C12.2616 6.21094 9.42188 9.03469 9.42188 12.5259C9.42188 13.2281 9.53812 13.9134 9.75563 14.5809C9.83262 14.8013 9.99305 14.9826 10.2024 15.0859C10.4118 15.1892 10.6533 15.2061 10.875 15.1331C11.0952 15.0559 11.2763 14.8954 11.3794 14.6861C11.4825 14.4768 11.4993 14.2354 11.4262 14.0138C11.243 13.4933 11.1581 12.9433 11.1759 12.3919C11.2425 10.0369 13.1475 8.09812 15.5034 7.98187C16.1206 7.94945 16.7378 8.0429 17.3177 8.25654C17.8975 8.47019 18.4279 8.79956 18.8765 9.22462C19.325 9.64968 19.6824 10.1615 19.9269 10.7291C20.1714 11.2966 20.298 11.908 20.2988 12.5259C20.2974 13.6881 19.8521 14.8059 19.054 15.6507C18.2559 16.4955 17.1652 17.0035 16.005 17.0709C16.005 17.0709 15.1191 17.1206 14.685 17.1881C14.4675 17.2209 14.3006 17.2547 14.1834 17.2716C14.1328 17.2884 14.0831 17.2378 14.0991 17.1872L14.25 16.4531L15.0684 12.6769C15.1161 12.4511 15.0728 12.2156 14.9478 12.0216C14.8228 11.8276 14.6263 11.6908 14.4009 11.6409C14.175 11.5933 13.9394 11.6367 13.7454 11.7619C13.5514 11.8871 13.4147 12.0839 13.365 12.3094C13.365 12.3094 11.3934 21.4987 11.3766 21.5991C11.3289 21.825 11.3724 22.0606 11.4976 22.2546C11.6228 22.4486 11.8195 22.5853 12.045 22.635C12.2709 22.6827 12.5065 22.6392 12.7005 22.514C12.8946 22.3888 13.0313 22.1921 13.0809 21.9666C13.0969 21.8663 13.365 20.6466 13.365 20.6466C13.4599 20.1994 13.6906 19.7924 14.0255 19.4813C14.3605 19.1702 14.7833 18.9701 15.2363 18.9084C15.564 18.8725 15.8925 18.8447 16.2216 18.825C17.8078 18.7014 19.2891 17.9842 20.37 16.8167C21.4508 15.6491 22.0517 14.117 22.0528 12.5259C22.0528 9.03469 19.2122 6.21094 15.7369 6.21094ZM16.1878 20.7469C16.0518 20.7175 15.9113 20.7155 15.7744 20.7408C15.6376 20.7662 15.5072 20.8184 15.3907 20.8946C15.2742 20.9707 15.1739 21.0692 15.0958 21.1843C15.0176 21.2994 14.9631 21.4289 14.9353 21.5653C14.8181 22.1334 15.1697 22.7016 15.7538 22.8188C15.8899 22.8482 16.0306 22.8503 16.1676 22.825C16.3046 22.7997 16.4352 22.7473 16.5518 22.6711C16.6684 22.5949 16.7687 22.4963 16.8469 22.3809C16.9251 22.2656 16.9795 22.1359 17.0072 21.9994C17.1234 21.4153 16.7728 20.8631 16.1878 20.7469Z" fill="white"/>
</g>
<defs>
<clipPath id="clip0">
<rect width="30" height="30" fill="white" transform="translate(0.481445)"/>
</clipPath>
</defs>
</svg>
