<svg width="31" height="30" viewBox="0 0 31 30" fill="none" xmlns="http://www.w3.org/2000/svg">
<g clip-path="url(#clip0)">
<path d="M15.6123 30C23.8966 30 30.6123 23.2843 30.6123 15C30.6123 6.71573 23.8966 0 15.6123 0C7.32803 0 0.612305 6.71573 0.612305 15C0.612305 23.2843 7.32803 30 15.6123 30Z" fill="#627EEA"/>
<path d="M16.0791 3.75V12.0656L23.1075 15.2062L16.0791 3.75Z" fill="white" fill-opacity="0.602"/>
<path d="M16.0792 3.75L9.0498 15.2062L16.0792 12.0656V3.75Z" fill="white"/>
<path d="M16.0791 20.595V26.2453L23.1122 16.515L16.0791 20.595Z" fill="white" fill-opacity="0.602"/>
<path d="M16.0792 26.2453V20.5941L9.0498 16.515L16.0792 26.2453Z" fill="white"/>
<path d="M16.0791 19.2872L23.1075 15.2063L16.0791 12.0675V19.2872Z" fill="white" fill-opacity="0.2"/>
<path d="M9.0498 15.2063L16.0792 19.2872V12.0675L9.0498 15.2063Z" fill="white" fill-opacity="0.602"/>
</g>
<defs>
<clipPath id="clip0">
<rect width="30" height="30" fill="white" transform="translate(0.612305)"/>
</clipPath>
</defs>
</svg>
