<svg width="31" height="30" viewBox="0 0 31 30" fill="none" xmlns="http://www.w3.org/2000/svg">
<g clip-path="url(#clip0)">
<path d="M15.4814 30C23.7657 30 30.4814 23.2843 30.4814 15C30.4814 6.71573 23.7657 0 15.4814 0C7.19717 0 0.481445 6.71573 0.481445 15C0.481445 23.2843 7.19717 30 15.4814 30Z" fill="#2A5ADA"/>
<path d="M15.4814 5.625L13.7949 6.61406L9.2002 9.32344L7.5127 10.3125V19.6875L9.19926 20.6766L13.8371 23.3859L15.5236 24.375L17.2102 23.3859L21.7636 20.6766L23.4502 19.6875V10.3125L21.7636 9.32344L17.168 6.61406L15.4814 5.625ZM10.8858 17.7094V12.2906L15.4814 9.58125L20.0771 12.2906V17.7094L15.4814 20.4188L10.8858 17.7094Z" fill="white"/>
</g>
<defs>
<clipPath id="clip0">
<rect width="30" height="30" fill="white" transform="translate(0.481445)"/>
</clipPath>
</defs>
</svg>
