<svg width="31" height="30" viewBox="0 0 31 30" fill="none" xmlns="http://www.w3.org/2000/svg">
<g clip-path="url(#clip0)">
<path d="M15.4814 30C23.7657 30 30.4814 23.2843 30.4814 15C30.4814 6.71573 23.7657 0 15.4814 0C7.19717 0 0.481445 6.71573 0.481445 15C0.481445 23.2843 7.19717 30 15.4814 30Z" fill="#201A2D"/>
<path d="M21.873 8.9869L21.3105 9.5494C22.6527 11.0172 23.397 12.9342 23.397 14.9231C23.397 16.9121 22.6527 18.8291 21.3105 20.2969L21.873 20.8594C23.3657 19.2403 24.1944 17.1188 24.1944 14.9166C24.1944 12.7144 23.3657 10.5929 21.873 8.97377V8.9869ZM10.0436 9.03565C11.5114 7.69343 13.4284 6.9491 15.4174 6.9491C17.4063 6.9491 19.3233 7.69343 20.7911 9.03565L21.3536 8.47315C19.7345 6.98046 17.613 6.15173 15.4108 6.15173C13.2086 6.15173 11.0871 6.98046 9.46798 8.47315L10.0436 9.03565ZM9.51673 20.3025C8.1761 18.835 7.43275 16.9192 7.43275 14.9316C7.43275 12.9439 8.1761 11.0281 9.51673 9.56065L8.95423 8.99815C7.46154 10.6172 6.63281 12.7388 6.63281 14.941C6.63281 17.1431 7.46154 19.2647 8.95423 20.8838L9.51673 20.3025ZM20.7836 20.8219C19.3158 22.1641 17.3988 22.9084 15.4099 22.9084C13.4209 22.9084 11.5039 22.1641 10.0361 20.8219L9.4736 21.3844C11.0927 22.8771 13.2142 23.7058 15.4164 23.7058C17.6186 23.7058 19.7401 22.8771 21.3592 21.3844L20.7836 20.8219ZM18.963 13.0538C18.8505 11.88 17.838 11.4863 16.5574 11.3663V9.75002H15.5673V11.3363H14.7761V9.75002H13.7936V11.3775H11.7855V12.4369C11.7855 12.4369 12.5167 12.4238 12.5055 12.4369C12.6373 12.4224 12.7697 12.4596 12.8746 12.5408C12.9795 12.6219 13.0488 12.7406 13.068 12.8719V17.3269C13.0652 17.3732 13.0531 17.4184 13.0325 17.46C13.0119 17.5015 12.9831 17.5385 12.948 17.5688C12.9135 17.5996 12.8731 17.6231 12.8293 17.6379C12.7855 17.6528 12.7391 17.6586 12.693 17.655C12.7061 17.6663 11.973 17.655 11.973 17.655L11.7855 18.8381H13.7749V20.4919H14.7649V18.8625H15.5561V20.4844H16.548V18.8494C18.2205 18.7481 19.3867 18.3356 19.533 16.77C19.6511 15.51 19.0586 14.9475 18.1117 14.7206C18.6874 14.4375 19.0436 13.9125 18.963 13.0538ZM17.5755 16.575C17.5755 17.805 15.468 17.6644 14.7967 17.6644V15.4819C15.468 15.4838 17.5755 15.2906 17.5755 16.575ZM17.1161 13.5C17.1161 14.625 15.3574 14.4881 14.7986 14.4881V12.5044C15.3574 12.5044 17.1161 12.3281 17.1161 13.5Z" fill="white"/>
<path d="M15.4102 25.1737C9.75332 25.1728 5.16895 20.5866 5.16895 14.9297C5.16895 9.27375 9.7552 4.6875 15.4111 4.6875C21.068 4.6875 25.6543 9.27187 25.6552 14.9288C25.6554 16.2742 25.3906 17.6065 24.8758 18.8496C24.3611 20.0927 23.6064 21.2222 22.6551 22.1736C21.7037 23.125 20.5742 23.8796 19.3311 24.3944C18.088 24.9092 16.7557 25.174 15.4102 25.1737ZM15.4102 5.48625C10.1986 5.49 5.97707 9.71719 5.97895 14.9288C5.98082 20.1403 10.2071 24.3638 15.4177 24.3638C20.6293 24.3638 24.8546 20.1403 24.8564 14.9288C24.8569 13.6883 24.6129 12.4599 24.1383 11.3138C23.6637 10.1677 22.9679 9.12643 22.0906 8.24947C21.2133 7.3725 20.1717 6.67707 19.0254 6.20294C17.8791 5.7288 16.6507 5.48526 15.4102 5.48625Z" fill="white"/>
</g>
<defs>
<clipPath id="clip0">
<rect width="30" height="30" fill="white" transform="translate(0.481445)"/>
</clipPath>
</defs>
</svg>
