<svg width="31" height="30" viewBox="0 0 31 30" fill="none" xmlns="http://www.w3.org/2000/svg">
<g clip-path="url(#clip0)">
<path d="M15.4814 30C23.7657 30 30.4814 23.2843 30.4814 15C30.4814 6.71573 23.7657 0 15.4814 0C7.19717 0 0.481445 6.71573 0.481445 15C0.481445 23.2843 7.19717 30 15.4814 30Z" fill="#2AB8E6"/>
<path d="M10.7564 5.625H20.2064L21.1064 6.55594V23.4441L20.2064 24.375H10.7564L9.85645 23.4441V6.55594L10.7564 5.625ZM11.6564 22.5122H19.3064V7.48781H11.6564V22.5122ZM18.3446 17.6653H16.388V19.7869H14.6218V17.6663H12.6652V15.8391H18.3446V17.6653ZM18.3446 12.4322V14.2584H12.6652V12.4322H14.6218V10.3106H16.388V12.4322H18.3446Z" fill="white"/>
</g>
<defs>
<clipPath id="clip0">
<rect width="30" height="30" fill="white" transform="translate(0.481445)"/>
</clipPath>
</defs>
</svg>
