<svg width="31" height="30" viewBox="0 0 31 30" fill="none" xmlns="http://www.w3.org/2000/svg">
<g clip-path="url(#clip0)">
<path d="M15.6123 30C23.8966 30 30.6123 23.2843 30.6123 15C30.6123 6.71573 23.8966 0 15.6123 0C7.32803 0 0.612305 6.71573 0.612305 15C0.612305 23.2843 7.32803 30 15.6123 30Z" fill="#FF007A"/>
<path d="M12.1072 5.40645C11.84 5.3652 11.8288 5.35957 11.9544 5.34082C12.1954 5.30332 12.7654 5.35488 13.1582 5.4477C14.0741 5.66613 14.9075 6.22395 15.7982 7.21488L16.0344 7.47738L16.3719 7.42395C17.7969 7.19426 19.2472 7.37707 20.4594 7.93676C20.7932 8.09051 21.3191 8.39707 21.3847 8.47676C21.4063 8.50113 21.4447 8.66332 21.47 8.83582C21.56 9.43301 21.515 9.89051 21.3332 10.2327C21.2338 10.4183 21.2282 10.4764 21.2947 10.6358C21.3263 10.7017 21.3758 10.7573 21.4374 10.7964C21.4991 10.8355 21.5705 10.8565 21.6435 10.8571C21.9454 10.8571 22.2697 10.3696 22.4197 9.69176L22.4797 9.4227L22.5979 9.55676C23.2466 10.2918 23.7557 11.2939 23.8429 12.0064L23.8663 12.193L23.7566 12.0243C23.5691 11.7336 23.3816 11.5349 23.1397 11.3746C22.7047 11.0868 22.2444 10.9893 21.0257 10.9246C19.925 10.8664 19.3016 10.7727 18.6847 10.5711C17.6338 10.2289 17.1041 9.77238 15.8554 8.13457C15.3013 7.40707 14.9582 7.00488 14.6179 6.68145C13.8425 5.94457 13.0813 5.55832 12.1072 5.40645Z" fill="white"/>
<path d="M21.6331 7.03117C21.6612 6.54367 21.7268 6.22211 21.86 5.92867C21.9125 5.81242 21.9621 5.7168 21.9696 5.7168C21.9613 5.78261 21.9439 5.84696 21.9181 5.90805C21.8215 6.19305 21.8056 6.58305 21.8721 7.03586C21.9565 7.61148 22.0053 7.69398 22.6128 8.31555C22.8987 8.60711 23.2306 8.97461 23.3506 9.13305L23.569 9.41992L23.3506 9.21461C23.0834 8.9643 22.4684 8.47398 22.3325 8.40461C22.2415 8.35773 22.2275 8.35867 22.1712 8.41398C22.1196 8.46648 22.1084 8.54336 22.1018 8.90992C22.0906 9.47992 22.0128 9.84742 21.8243 10.213C21.7231 10.4099 21.7072 10.3687 21.799 10.1446C21.8675 9.97773 21.874 9.90461 21.874 9.35242C21.874 8.24242 21.7418 7.97617 20.9684 7.51867C20.7357 7.38363 20.4967 7.25974 20.2521 7.14742C20.1314 7.09897 20.0142 7.04195 19.9015 6.9768C19.9231 6.95523 20.6768 7.17461 20.9796 7.2918C21.4315 7.46523 21.5056 7.48773 21.5609 7.46617C21.5975 7.45211 21.6153 7.34523 21.6331 7.03117ZM12.6265 8.92961C12.0837 8.18242 11.7481 7.03586 11.8203 6.17898L11.8428 5.91367L11.9665 5.93617C12.199 5.97836 12.5993 6.12742 12.7868 6.2418C13.3006 6.55398 13.5237 6.96555 13.7496 8.02117C13.8162 8.33055 13.9034 8.68023 13.9437 8.7993C14.0075 8.98961 14.2512 9.43492 14.45 9.72461C14.5925 9.93273 14.4968 10.0312 14.1818 10.003C13.7 9.95898 13.0475 9.50898 12.6265 8.92961ZM20.975 14.4937C18.4371 13.4718 17.5437 12.5849 17.5437 11.0887C17.5437 10.8684 17.5512 10.6884 17.5596 10.6884C17.569 10.6884 17.6675 10.7605 17.7781 10.8496C18.2928 11.2621 18.8693 11.4384 20.464 11.6709C21.4025 11.8087 21.9312 11.9193 22.4187 12.0805C23.9675 12.5943 24.9256 13.6368 25.1543 15.0562C25.22 15.4687 25.1815 16.2421 25.0737 16.6499C24.9893 16.9724 24.7296 17.5527 24.6612 17.5752C24.6425 17.5809 24.6237 17.5087 24.6181 17.4084C24.5918 16.8759 24.3228 16.3565 23.87 15.9674C23.3553 15.5259 22.6643 15.1734 20.974 14.4937H20.975ZM19.1937 14.9174C19.1637 14.7363 19.1227 14.5573 19.0709 14.3812L19.0053 14.188L19.1262 14.323C19.2921 14.5105 19.4243 14.7487 19.535 15.0674C19.6203 15.3102 19.6296 15.3824 19.6287 15.7771C19.6287 16.1652 19.6184 16.2459 19.5396 16.4652C19.4302 16.7869 19.2468 17.0784 19.0043 17.3165C18.5403 17.789 17.945 18.0496 17.0843 18.1584C16.9343 18.1771 16.4993 18.209 16.1159 18.2287C15.1503 18.2793 14.5156 18.3824 13.9446 18.583C13.8932 18.6061 13.8379 18.6195 13.7815 18.6224C13.759 18.599 14.1471 18.3674 14.4687 18.2127C14.9215 17.9943 15.3715 17.8752 16.3812 17.7074C16.88 17.624 17.3956 17.5237 17.5259 17.4834C18.7615 17.1046 19.3962 16.1277 19.1928 14.9174H19.1937Z" fill="white"/>
<path d="M20.3558 16.9837C20.0183 16.259 19.9414 15.5587 20.1261 14.9062C20.1458 14.8368 20.1777 14.7797 20.1964 14.7797C20.2599 14.8026 20.3196 14.8349 20.3736 14.8753C20.5293 14.9803 20.8405 15.1565 21.6702 15.6084C22.7061 16.1737 23.2968 16.6115 23.6989 17.1103C24.0505 17.5481 24.268 18.0469 24.373 18.6544C24.4321 18.9984 24.3974 19.8262 24.3093 20.1731C24.0308 21.2662 23.383 22.125 22.4605 22.6256C22.3734 22.676 22.2833 22.7207 22.1905 22.7597C22.1774 22.7597 22.2261 22.635 22.3002 22.4812C22.6096 21.8325 22.6461 21.2006 22.4108 20.4975C22.2674 20.0672 21.9739 19.5412 21.3824 18.6544C20.6943 17.6231 20.5255 17.3475 20.3558 16.9837ZM10.8243 20.894C11.7664 20.099 12.9374 19.5347 14.0052 19.3612C14.4646 19.2862 15.2314 19.3162 15.6571 19.425C16.3396 19.5994 16.9508 19.9912 17.2686 20.4572C17.578 20.9128 17.7121 21.3103 17.8499 22.1934C17.9061 22.5422 17.9652 22.8919 17.983 22.9715C18.0861 23.429 18.2896 23.7956 18.5408 23.9794C18.9393 24.2709 19.6264 24.2887 20.3014 24.0262C20.372 23.9939 20.4463 23.9706 20.5227 23.9569C20.5471 23.9812 20.2077 24.209 19.9677 24.329C19.6845 24.4806 19.3673 24.5574 19.0461 24.5522C18.4274 24.5522 17.9136 24.2381 17.4852 23.5959C17.4008 23.4694 17.2114 23.0915 17.0633 22.755C16.6114 21.7237 16.3883 21.4087 15.8633 21.0647C15.4049 20.7647 14.8152 20.7112 14.3718 20.9287C13.7886 21.2147 13.6264 21.96 14.0436 22.4315C14.2096 22.619 14.5189 22.7812 14.7721 22.8122C14.8825 22.8268 14.9948 22.8176 15.1013 22.7851C15.2078 22.7526 15.3062 22.6976 15.3896 22.6238C15.4731 22.55 15.5397 22.4592 15.5851 22.3575C15.6304 22.2557 15.6533 22.1454 15.6524 22.034C15.6524 21.7228 15.5324 21.5465 15.2324 21.4106C14.8227 21.2259 14.3821 21.4415 14.3839 21.8269C14.3849 21.9909 14.4561 22.094 14.6211 22.169C14.7271 22.2159 14.7289 22.2206 14.6427 22.2028C14.2668 22.124 14.1786 21.6712 14.4814 21.3703C14.8443 21.0084 15.5952 21.1678 15.853 21.6609C15.9618 21.8681 15.9739 22.2815 15.8793 22.5309C15.6683 23.0887 15.0514 23.3812 14.4261 23.2219C14.0005 23.1131 13.8271 22.9959 13.3143 22.4672C12.4227 21.5484 12.0768 21.3703 10.7905 21.1697L10.5439 21.1312L10.8252 20.894H10.8243Z" fill="white"/>
<path fill-rule="evenodd" clip-rule="evenodd" d="M6.4209 3.14057L6.5109 3.25025C9.98715 7.5065 11.7834 9.71525 11.8978 9.87275C12.0853 10.1334 12.015 10.3668 11.6925 10.5506C11.5134 10.6528 11.144 10.7559 10.9603 10.7559C10.7512 10.7559 10.5159 10.6556 10.3443 10.4934C10.2234 10.3781 9.73496 9.64869 8.60715 7.89838C8.07901 7.07113 7.54399 6.24828 7.00215 5.42994C6.95621 5.38682 6.95715 5.38775 8.51902 8.18244C9.49965 9.93744 9.83152 10.5571 9.83152 10.6406C9.83152 10.8093 9.78465 10.8974 9.57652 11.1299C9.22965 11.5171 9.07496 11.9521 8.96246 12.8521C8.83684 13.8618 8.48434 14.5743 7.50559 15.794C6.93371 16.5084 6.83996 16.6396 6.69465 16.9274C6.51277 17.2893 6.46309 17.4928 6.44246 17.9503C6.4209 18.434 6.46309 18.7471 6.61121 19.2093C6.74059 19.6143 6.87559 19.8824 7.22059 20.4168C7.51871 20.879 7.69027 21.2221 7.69027 21.3562C7.69027 21.4631 7.7109 21.4631 8.17309 21.359C9.2784 21.1096 10.1756 20.6699 10.6809 20.1318C10.9931 19.799 11.0662 19.6153 11.069 19.1587C11.07 18.8606 11.0596 18.7978 10.979 18.6262C10.8478 18.3468 10.6087 18.1143 10.0818 17.7543C9.3909 17.2818 9.09652 16.9012 9.01496 16.379C8.94746 15.9506 9.02527 15.6478 9.40777 14.8471C9.80246 14.0184 9.9009 13.6659 9.96746 12.8306C10.0096 12.2906 10.0687 12.0778 10.2243 11.9071C10.3856 11.729 10.5318 11.6681 10.9321 11.6137C11.5846 11.5246 12 11.3559 12.3412 11.0418C12.6375 10.7681 12.7612 10.5046 12.78 10.109L12.795 9.809L12.629 9.61588C12.3909 9.33838 10.4212 7.16525 6.71902 3.09463L6.61965 2.98682L6.4209 3.1415V3.14057ZM8.02777 18.4987C8.09318 18.3829 8.11271 18.2467 8.0825 18.1172C8.05229 17.9877 7.97454 17.8742 7.86465 17.7993C7.6509 17.6568 7.31809 17.7243 7.31809 17.9099C7.31809 17.9662 7.34902 18.0074 7.41934 18.044C7.5384 18.1049 7.54684 18.1743 7.45402 18.314C7.35934 18.4565 7.36684 18.5821 7.47559 18.6674C7.64996 18.8043 7.89746 18.7284 8.02871 18.4987H8.02777ZM13.2065 11.7712C12.9 11.8649 12.6028 12.1903 12.51 12.5306C12.4537 12.7378 12.4856 13.1024 12.57 13.2149C12.7059 13.3968 12.8381 13.4446 13.1943 13.4418C13.8918 13.4371 14.4975 13.1381 14.5687 12.764C14.6268 12.4574 14.3596 12.0328 13.9931 11.8453C13.8037 11.7496 13.4015 11.7112 13.2065 11.7712ZM14.0221 12.4087C14.13 12.2559 14.0821 12.0899 13.9003 11.9793C13.5515 11.7665 13.0246 11.9418 13.0246 12.2718C13.0246 12.4349 13.2993 12.614 13.5506 12.614C13.7193 12.614 13.9481 12.5137 14.0221 12.4087Z" fill="white"/>
</g>
<defs>
<clipPath id="clip0">
<rect width="30" height="30" fill="white" transform="translate(0.612305)"/>
</clipPath>
</defs>
</svg>
