<svg width="31" height="30" viewBox="0 0 31 30" fill="none" xmlns="http://www.w3.org/2000/svg">
<g clip-path="url(#clip0)">
<path d="M15.6123 30C23.8966 30 30.6123 23.2843 30.6123 15C30.6123 6.71573 23.8966 0 15.6123 0C7.32803 0 0.612305 6.71573 0.612305 15C0.612305 23.2843 7.32803 30 15.6123 30Z" fill="#2775C9"/>
<path d="M15.3779 25.7812C9.29355 25.7812 4.3623 20.85 4.3623 14.7656C4.3623 8.68125 9.29355 3.75 15.3779 3.75C21.4623 3.75 26.3936 8.68125 26.3936 14.7656C26.3936 17.6872 25.233 20.489 23.1672 22.5548C21.1013 24.6207 18.2995 25.7812 15.3779 25.7812ZM14.7217 10.6781C14.119 10.708 13.5492 10.9621 13.1242 11.3906C12.6993 11.819 12.4498 12.3908 12.4248 12.9937C12.4248 14.1281 13.1186 14.8688 14.5904 15.1781L15.6217 15.4219C16.6248 15.6563 17.0373 15.9937 17.0373 16.5656C17.0373 17.1375 16.3154 17.7 15.3779 17.7C15.0449 17.7305 14.7101 17.6667 14.4116 17.5158C14.1132 17.365 13.8633 17.1331 13.6904 16.8469C13.6392 16.7383 13.5584 16.6463 13.4572 16.5816C13.356 16.5169 13.2386 16.4821 13.1186 16.4812H12.5654C12.5229 16.4891 12.4823 16.5053 12.4461 16.529C12.4098 16.5526 12.3786 16.5831 12.3542 16.6188C12.3298 16.6546 12.3127 16.6948 12.3039 16.7371C12.2951 16.7795 12.2948 16.8231 12.3029 16.8656C12.4377 17.4155 12.7509 17.9052 13.1937 18.2581C13.6364 18.6109 14.1837 18.807 14.7498 18.8156V19.6031C14.7498 19.7784 14.8194 19.9465 14.9434 20.0705C15.0673 20.1944 15.2355 20.2641 15.4107 20.2641C15.586 20.2641 15.7541 20.1944 15.8781 20.0705C16.002 19.9465 16.0717 19.7784 16.0717 19.6031V18.8062C16.7118 18.799 17.3238 18.5421 17.7773 18.0903C18.2308 17.6386 18.4901 17.0276 18.4998 16.3875C18.4998 15.1969 17.8154 14.5125 16.1936 14.1656L15.2561 13.9594C14.3186 13.725 13.8779 13.4156 13.8779 12.8906C13.8779 12.3656 14.4404 11.7844 15.3779 11.7844C15.6732 11.7535 15.971 11.8088 16.2356 11.9436C16.5001 12.0783 16.7199 12.2868 16.8686 12.5437C16.9288 12.6721 17.0242 12.7807 17.1437 12.857C17.2631 12.9334 17.4018 12.9743 17.5436 12.975H17.9842C18.0844 12.9505 18.1709 12.8877 18.2253 12.8C18.2796 12.7124 18.2974 12.6069 18.2748 12.5063C18.1478 11.9985 17.8637 11.5439 17.463 11.2072C17.0623 10.8705 16.5656 10.6689 16.0436 10.6313V9.98437C16.0436 9.80908 15.9739 9.64097 15.85 9.51702C15.726 9.39307 15.5579 9.32344 15.3826 9.32344C15.2073 9.32344 15.0392 9.39307 14.9153 9.51702C14.7913 9.64097 14.7217 9.80908 14.7217 9.98437V10.6781ZM7.11855 14.7656C7.11963 16.4926 7.66322 18.1755 8.67254 19.5768C9.68187 20.9781 11.1059 22.0269 12.7436 22.575H12.8748C12.9867 22.575 13.094 22.5306 13.1731 22.4514C13.2522 22.3723 13.2967 22.265 13.2967 22.1531V21.9562C13.297 21.7817 13.2455 21.6111 13.1487 21.4659C13.0519 21.3207 12.9141 21.2075 12.7529 21.1406C11.4776 20.6258 10.3851 19.7417 9.61585 18.6016C8.84658 17.4615 8.43556 16.1175 8.43556 14.7422C8.43556 13.3668 8.84658 12.0229 9.61585 10.8828C10.3851 9.74271 11.4776 8.85853 12.7529 8.34375C12.9134 8.27857 13.0508 8.16707 13.1477 8.02348C13.2445 7.87988 13.2964 7.7107 13.2967 7.5375V7.32187C13.2973 7.25856 13.2826 7.19604 13.2539 7.13961C13.2252 7.08317 13.1833 7.03449 13.1318 6.99769C13.0803 6.96089 13.0207 6.93706 12.958 6.92821C12.8953 6.91937 12.8314 6.92577 12.7717 6.94687C11.1273 7.49071 9.69602 8.53885 8.68121 9.94242C7.6664 11.346 7.11963 13.0336 7.11855 14.7656ZM23.6373 14.7656C23.6343 13.0403 23.0898 11.3594 22.0806 9.96001C21.0714 8.56061 19.6484 7.51326 18.0123 6.96562H17.8717C17.7548 6.96562 17.6427 7.01205 17.5601 7.09468C17.4775 7.17731 17.4311 7.28939 17.4311 7.40625V7.54688C17.4348 7.72769 17.4908 7.90355 17.5923 8.05326C17.6938 8.20297 17.8364 8.32013 18.0029 8.39062C19.2754 8.90692 20.3649 9.79115 21.1319 10.9302C21.899 12.0692 22.3087 13.4112 22.3087 14.7844C22.3087 16.1576 21.899 17.4996 21.1319 18.6386C20.3649 19.7776 19.2754 20.6618 18.0029 21.1781C17.8396 21.2494 17.6999 21.3657 17.6002 21.5134C17.5006 21.6612 17.4452 21.8343 17.4404 22.0125V22.1719C17.4412 22.2414 17.4585 22.3097 17.4907 22.3713C17.523 22.4328 17.5693 22.4859 17.626 22.5261C17.6827 22.5664 17.7481 22.5926 17.8169 22.6027C17.8856 22.6129 17.9558 22.6066 18.0217 22.5844C19.6591 22.0341 21.0822 20.9832 22.0899 19.5802C23.0975 18.1772 23.6389 16.493 23.6373 14.7656Z" fill="white"/>
</g>
<defs>
<clipPath id="clip0">
<rect width="30" height="30" fill="white" transform="translate(0.612305)"/>
</clipPath>
</defs>
</svg>
