<svg width="31" height="30" viewBox="0 0 31 30" fill="none" xmlns="http://www.w3.org/2000/svg">
<g clip-path="url(#clip0)">
<path d="M15.4814 30C23.7657 30 30.4814 23.2843 30.4814 15C30.4814 6.71573 23.7657 0 15.4814 0C7.19717 0 0.481445 6.71573 0.481445 15C0.481445 23.2843 7.19717 30 15.4814 30Z" fill="#26A17B"/>
<path fill-rule="evenodd" clip-rule="evenodd" d="M17.2833 16.2966V16.2947C17.1802 16.3022 16.6486 16.3341 15.4627 16.3341C14.5158 16.3341 13.8493 16.3059 13.6149 16.2947V16.2975C9.96988 16.1372 7.24926 15.5025 7.24926 14.7431C7.24926 13.9847 9.96988 13.35 13.6149 13.1869V15.6656C13.853 15.6825 14.5355 15.7228 15.4786 15.7228C16.6102 15.7228 17.1774 15.6759 17.2833 15.6666V13.1888C20.9208 13.3509 23.6349 13.9856 23.6349 14.7431C23.6349 15.5025 20.9208 16.1353 17.2833 16.2966ZM17.2833 12.9309V10.7128H22.3589V7.33032H8.53926V10.7128H13.6149V12.93C9.48988 13.1194 6.3877 13.9369 6.3877 14.9156C6.3877 15.8944 9.48988 16.7109 13.6149 16.9013V24.0094H17.2833V16.8994C21.4018 16.71 24.4964 15.8934 24.4964 14.9156C24.4964 13.9378 21.4018 13.1213 17.2833 12.9309Z" fill="white"/>
</g>
<defs>
<clipPath id="clip0">
<rect width="30" height="30" fill="white" transform="translate(0.481445)"/>
</clipPath>
</defs>
</svg>
