<svg width="31" height="30" viewBox="0 0 31 30" fill="none" xmlns="http://www.w3.org/2000/svg">
<g clip-path="url(#clip0)">
<path d="M15.6123 30C23.8966 30 30.6123 23.2843 30.6123 15C30.6123 6.71573 23.8966 0 15.6123 0C7.32803 0 0.612305 6.71573 0.612305 15C0.612305 23.2843 7.32803 30 15.6123 30Z" fill="#23292F"/>
<path d="M22.2404 7.5H24.9498L19.3107 13.0847C18.3248 14.0561 16.9963 14.6006 15.6123 14.6006C14.2283 14.6006 12.8998 14.0561 11.9139 13.0847L6.27012 7.5H8.98418L13.2686 11.7403C13.8925 12.3561 14.7338 12.7014 15.6104 12.7014C16.4871 12.7014 17.3284 12.3561 17.9523 11.7403L22.2404 7.5ZM8.95137 23.0278H6.2373L11.9139 17.4094C12.8998 16.438 14.2283 15.8935 15.6123 15.8935C16.9963 15.8935 18.3248 16.438 19.3107 17.4094L24.9873 23.0269H22.2732L17.9561 18.75C17.3322 18.1342 16.4908 17.7889 15.6142 17.7889C14.7376 17.7889 13.8962 18.1342 13.2723 18.75L8.95043 23.0278H8.95137Z" fill="white"/>
</g>
<defs>
<clipPath id="clip0">
<rect width="30" height="30" fill="white" transform="translate(0.612305)"/>
</clipPath>
</defs>
</svg>
