<svg width="75" height="75" viewBox="0 0 75 75" fill="none" xmlns="http://www.w3.org/2000/svg">
<path d="M8.46778 12.0968C10.4684 12.0968 12.0968 10.4683 12.0968 8.46774C12.0968 6.46716 10.4684 4.83871 8.46778 4.83871C6.4672 4.83871 4.83875 6.46716 4.83875 8.46774C4.83875 10.4683 6.4672 12.0968 8.46778 12.0968ZM8.46778 7.25806C9.13523 7.25806 9.67745 7.80147 9.67745 8.46774C9.67745 9.13401 9.13523 9.67742 8.46778 9.67742C7.80033 9.67742 7.2581 9.13401 7.2581 8.46774C7.2581 7.80147 7.80033 7.25806 8.46778 7.25806Z" fill="url(#paint0_linear)"/>
<path d="M18.1451 12.0968C20.1457 12.0968 21.7742 10.4683 21.7742 8.46774C21.7742 6.46716 20.1457 4.83871 18.1451 4.83871C16.1446 4.83871 14.5161 6.46716 14.5161 8.46774C14.5161 10.4683 16.1446 12.0968 18.1451 12.0968ZM18.1451 7.25806C18.8126 7.25806 19.3548 7.80147 19.3548 8.46774C19.3548 9.13401 18.8126 9.67742 18.1451 9.67742C17.4777 9.67742 16.9355 9.13401 16.9355 8.46774C16.9355 7.80147 17.4777 7.25806 18.1451 7.25806Z" fill="url(#paint1_linear)"/>
<path d="M27.8226 12.0968C29.8232 12.0968 31.4517 10.4683 31.4517 8.46774C31.4517 6.46716 29.8232 4.83871 27.8226 4.83871C25.8221 4.83871 24.1936 6.46716 24.1936 8.46774C24.1936 10.4683 25.8221 12.0968 27.8226 12.0968ZM27.8226 7.25806C28.4901 7.25806 29.0323 7.80147 29.0323 8.46774C29.0323 9.13401 28.4901 9.67742 27.8226 9.67742C27.1552 9.67742 26.613 9.13401 26.613 8.46774C26.613 7.80147 27.1552 7.25806 27.8226 7.25806Z" fill="url(#paint2_linear)"/>
<path d="M15.7258 25.4032H6.04842C5.3792 25.4032 4.83875 25.9455 4.83875 26.6129V31.4516C4.83875 32.1191 5.3792 32.6613 6.04842 32.6613H15.7258C16.3951 32.6613 16.9355 32.1191 16.9355 31.4516V26.6129C16.9355 25.9455 16.3951 25.4032 15.7258 25.4032ZM14.5162 30.2419H7.2581V27.8226H14.5162V30.2419Z" fill="url(#paint3_linear)"/>
<path d="M15.7258 35.0806H6.04842C5.3792 35.0806 4.83875 35.6229 4.83875 36.2903V41.129C4.83875 41.7965 5.3792 42.3387 6.04842 42.3387H15.7258C16.3951 42.3387 16.9355 41.7965 16.9355 41.129V36.2903C16.9355 35.6229 16.3951 35.0806 15.7258 35.0806ZM14.5162 39.9194H7.2581V37.5H14.5162V39.9194Z" fill="url(#paint4_linear)"/>
<path d="M19.3549 30.2419H26.6129V32.6613H19.3549V30.2419Z" fill="url(#paint5_linear)"/>
<path d="M29.0322 30.2419H36.2903V32.6613H29.0322V30.2419Z" fill="url(#paint6_linear)"/>
<path d="M38.7097 30.2419H45.9678V32.6613H38.7097V30.2419Z" fill="url(#paint7_linear)"/>
<path d="M19.3549 39.9194H26.6129V42.3387H19.3549V39.9194Z" fill="url(#paint8_linear)"/>
<path d="M29.0322 39.9194H36.2903V42.3387H29.0322V39.9194Z" fill="url(#paint9_linear)"/>
<path d="M38.7097 39.9194H45.9678V42.3387H38.7097V39.9194Z" fill="url(#paint10_linear)"/>
<path d="M73.7903 53.2258H70.1613V47.1774C70.1613 41.1751 65.2777 36.2903 59.2742 36.2903C57.0374 36.2903 54.957 36.9702 53.2258 38.1314V1.20968C53.2258 0.542229 52.6854 0 52.0161 0H1.20968C0.540457 0 0 0.542229 0 1.20968V56.8548C0 57.5223 0.540457 58.0645 1.20968 58.0645H43.5484V73.7903C43.5484 74.4578 44.0888 75 44.7581 75H73.7903C74.4595 75 75 74.4578 75 73.7903V54.4355C75 53.768 74.4595 53.2258 73.7903 53.2258ZM59.2742 38.7097C63.9422 38.7097 67.7419 42.5082 67.7419 47.1774V53.2258H65.3226V47.1774C65.3226 43.8425 62.6091 41.129 59.2742 41.129C55.9393 41.129 53.2258 43.8425 53.2258 47.1774V53.2258H50.8065V47.1774C50.8065 42.5082 54.6062 38.7097 59.2742 38.7097ZM62.9032 53.2258H55.6452V47.1774C55.6452 45.1768 57.2736 43.5484 59.2742 43.5484C61.2748 43.5484 62.9032 45.1768 62.9032 47.1774V53.2258ZM50.8065 2.41935V14.5161H2.41935V2.41935H50.8065ZM2.41935 55.6452V16.9355H50.8065V40.3499C49.2967 42.2188 48.3871 44.5933 48.3871 47.1774V53.2258H44.7581C44.0888 53.2258 43.5484 53.768 43.5484 54.4355V55.6452H2.41935ZM59.2742 65.3226C57.9399 65.3226 56.8548 64.2375 56.8548 62.9032C56.8548 61.5689 57.9399 60.4839 59.2742 60.4839C60.6085 60.4839 61.6936 61.5689 61.6936 62.9032C61.6936 64.2375 60.6085 65.3226 59.2742 65.3226ZM60.4839 72.5807V67.5701C62.566 67.0296 64.1129 65.1507 64.1129 62.9032C64.1129 60.2346 61.9428 58.0645 59.2742 58.0645C56.6056 58.0645 54.4355 60.2346 54.4355 62.9032C54.4355 65.1507 55.9824 67.0296 58.0645 67.5701V72.5807H45.9677V70.1613H50.8065V67.7419H45.9677V65.3226H50.8065V62.9032H45.9677V55.6452H72.5807V62.9032H67.7419V65.3226H72.5807V67.7419H67.7419V70.1613H72.5807V72.5807H60.4839Z" fill="url(#paint11_linear)"/>
<defs>
<linearGradient id="paint0_linear" x1="8.46778" y1="4.83871" x2="8.46778" y2="12.0968" gradientUnits="userSpaceOnUse">
<stop stop-color="#00C1FA"/>
<stop offset="1" stop-color="#0069EC"/>
</linearGradient>
<linearGradient id="paint1_linear" x1="18.1451" y1="4.83871" x2="18.1451" y2="12.0968" gradientUnits="userSpaceOnUse">
<stop stop-color="#00C1FA"/>
<stop offset="1" stop-color="#0069EC"/>
</linearGradient>
<linearGradient id="paint2_linear" x1="27.8226" y1="4.83871" x2="27.8226" y2="12.0968" gradientUnits="userSpaceOnUse">
<stop stop-color="#00C1FA"/>
<stop offset="1" stop-color="#0069EC"/>
</linearGradient>
<linearGradient id="paint3_linear" x1="10.8871" y1="25.4032" x2="10.8871" y2="32.6613" gradientUnits="userSpaceOnUse">
<stop stop-color="#00C1FA"/>
<stop offset="1" stop-color="#0069EC"/>
</linearGradient>
<linearGradient id="paint4_linear" x1="10.8871" y1="35.0806" x2="10.8871" y2="42.3387" gradientUnits="userSpaceOnUse">
<stop stop-color="#00C1FA"/>
<stop offset="1" stop-color="#0069EC"/>
</linearGradient>
<linearGradient id="paint5_linear" x1="22.9839" y1="30.2419" x2="22.9839" y2="32.6613" gradientUnits="userSpaceOnUse">
<stop stop-color="#00C1FA"/>
<stop offset="1" stop-color="#0069EC"/>
</linearGradient>
<linearGradient id="paint6_linear" x1="32.6613" y1="30.2419" x2="32.6613" y2="32.6613" gradientUnits="userSpaceOnUse">
<stop stop-color="#00C1FA"/>
<stop offset="1" stop-color="#0069EC"/>
</linearGradient>
<linearGradient id="paint7_linear" x1="42.3388" y1="30.2419" x2="42.3388" y2="32.6613" gradientUnits="userSpaceOnUse">
<stop stop-color="#00C1FA"/>
<stop offset="1" stop-color="#0069EC"/>
</linearGradient>
<linearGradient id="paint8_linear" x1="22.9839" y1="39.9194" x2="22.9839" y2="42.3387" gradientUnits="userSpaceOnUse">
<stop stop-color="#00C1FA"/>
<stop offset="1" stop-color="#0069EC"/>
</linearGradient>
<linearGradient id="paint9_linear" x1="32.6613" y1="39.9194" x2="32.6613" y2="42.3387" gradientUnits="userSpaceOnUse">
<stop stop-color="#00C1FA"/>
<stop offset="1" stop-color="#0069EC"/>
</linearGradient>
<linearGradient id="paint10_linear" x1="42.3388" y1="39.9194" x2="42.3388" y2="42.3387" gradientUnits="userSpaceOnUse">
<stop stop-color="#00C1FA"/>
<stop offset="1" stop-color="#0069EC"/>
</linearGradient>
<linearGradient id="paint11_linear" x1="37.5" y1="0" x2="37.5" y2="75" gradientUnits="userSpaceOnUse">
<stop stop-color="#00C1FA"/>
<stop offset="1" stop-color="#0069EC"/>
</linearGradient>
</defs>
</svg>
