<svg width="75" height="75" viewBox="0 0 75 75" fill="none" xmlns="http://www.w3.org/2000/svg">
<g clip-path="url(#clip0)">
<g filter="url(#filter0_d)">
<path d="M42.1883 40.625C37.8737 40.625 34.376 37.1273 34.376 32.8126V28.1253C34.3769 28.0821 34.3769 28.0391 34.376 27.9958C34.3402 26.3057 32.9412 24.9647 31.2511 25.0005H26.5637C25.7007 25.0005 25.0012 25.7 25.0012 26.5629C25.0012 27.4258 25.7007 28.1253 26.5637 28.1253H28.1262C29.852 28.1253 31.2511 29.5244 31.2511 31.2503V40.625C31.2502 40.6682 31.2502 40.7112 31.2511 40.7545C31.2869 42.4446 32.6859 43.7856 34.376 43.7498H48.4382C49.3011 43.7498 50.0006 43.0503 50.0006 42.1874C50.0006 41.3245 49.3011 40.625 48.4382 40.625H42.1883Z" fill="url(#paint0_linear)"/>
<path d="M21.8765 21.8754C19.2877 21.8754 17.1891 23.9741 17.1891 26.5628C17.1891 29.1516 19.2877 31.2502 21.8765 31.2502C24.4652 31.2502 26.5638 29.1516 26.5638 26.5628C26.5638 23.9741 24.4652 21.8754 21.8765 21.8754ZM21.8765 28.1253C21.0135 28.1253 20.314 27.4257 20.314 26.5628C20.314 25.6999 21.0135 25.0003 21.8765 25.0003C22.7394 25.0003 23.439 25.6999 23.439 26.5628C23.4388 27.4257 22.7394 28.1253 21.8765 28.1253Z" fill="url(#paint1_linear)"/>
<path d="M21.8765 37.5001C19.2877 37.5001 17.1891 39.5987 17.1891 42.1875C17.1891 44.7762 19.2877 46.8748 21.8765 46.8748C24.4652 46.8748 26.5638 44.7762 26.5638 42.1875C26.5638 39.5987 24.4652 37.5001 21.8765 37.5001ZM21.8765 43.7498C21.0135 43.7498 20.314 43.0502 20.314 42.1873C20.314 41.3244 21.0135 40.6248 21.8765 40.6248C22.7394 40.6248 23.439 41.3244 23.439 42.1873C23.439 43.0502 22.7394 43.7498 21.8765 43.7498Z" fill="url(#paint2_linear)"/>
<path d="M21.8765 53.1246C19.2877 53.1246 17.1891 55.2232 17.1891 57.812C17.1891 60.4007 19.2877 62.4994 21.8765 62.4994C24.4652 62.4994 26.5638 60.4007 26.5638 57.812C26.5638 55.2232 24.4652 53.1246 21.8765 53.1246ZM21.8765 59.3745C21.0135 59.3745 20.314 58.6749 20.314 57.812C20.314 56.9491 21.0135 56.2495 21.8765 56.2495C22.7394 56.2495 23.439 56.9491 23.439 57.812C23.439 58.6749 22.7394 59.3745 21.8765 59.3745Z" fill="url(#paint3_linear)"/>
<path d="M28.1262 40.625H26.5637C25.7008 40.625 25.0012 41.3245 25.0012 42.1874C25.0012 43.0504 25.7008 43.7499 26.5637 43.7499H28.1262C28.9892 43.7499 29.6887 43.0504 29.6887 42.1874C29.6887 41.3245 28.9892 40.625 28.1262 40.625Z" fill="url(#paint4_linear)"/>
<path d="M7.81389 23.4379C7.81389 25.1608 7.37729 26.8557 6.54486 28.3641L0.195283 39.8703C0.0684309 40.1016 0.00178217 40.3611 0.00148921 40.625C-0.00114744 40.7137 -0.00114744 40.8026 0.00148921 40.8914C0.0750225 43.4066 2.17365 45.386 4.68887 45.3123C6.82348 45.4309 7.81374 47.733 7.81374 49.8709V51.5621C7.81023 51.6804 7.81023 51.7989 7.81374 51.9173C7.897 54.7624 9.92341 57.0932 12.5837 57.6748C13.3943 57.852 14.0636 57.152 14.0636 56.3223V55.0651C14.0636 54.8604 13.8902 54.7002 13.6859 54.6871C12.0643 54.5828 10.8343 53.1838 10.9388 51.5622V45.7374C10.9385 45.2905 10.7469 44.865 10.4122 44.5687C8.85083 43.1282 6.8314 42.2854 4.7098 42.1884C4.69589 42.1878 4.68192 42.1883 4.66807 42.1898C3.27314 42.3376 3.52256 40.3116 4.20018 39.0833L10.745 27.2205C10.8718 26.9892 10.9385 26.7297 10.9388 26.4658V23.4378C10.951 12.7504 19.207 3.9945 29.6902 3.1867C30.5499 3.12046 31.2508 2.42747 31.2508 1.56526C31.2508 0.701649 30.548 -0.00356421 29.6863 0.0541461C17.4781 0.871782 7.82794 11.0258 7.81389 23.4379Z" fill="url(#paint5_linear)"/>
<path d="M59.3754 48.4372C58.5124 48.4372 57.8129 49.1368 57.8129 49.9997V60.1557C57.8129 66.6276 52.5664 71.8741 46.0944 71.8741H30.4698C29.1754 71.8741 28.1261 70.8248 28.1261 69.5304V68.7492C28.1261 67.8863 27.4266 67.1868 26.5637 67.1868C25.7007 67.1868 25.0012 67.8863 25.0012 68.7492V73.4366C25.0012 74.2996 25.7008 74.9992 26.5637 74.9992H59.3754C60.2383 74.9992 60.9379 74.2996 60.9379 73.4366V49.9997C60.9379 49.1368 60.2383 48.4372 59.3754 48.4372Z" fill="url(#paint6_linear)"/>
<path d="M53.1256 0.0010376C41.57 0.0010376 32.1074 8.96123 31.3062 20.3128C31.2454 21.1735 31.9507 21.8754 32.8137 21.8754C33.6766 21.8754 34.3693 21.1735 34.4402 20.3135C35.234 10.6893 43.2966 3.12591 53.1256 3.12591C63.4806 3.12591 71.8751 11.5204 71.8751 21.8754C71.8751 31.7044 64.3118 39.7671 54.6876 40.5608C53.8276 40.6318 53.1256 41.3245 53.1256 42.1874C53.1256 43.0503 53.8275 43.7556 54.6883 43.6949C66.0399 42.8936 75 33.4309 75 21.8754C75 9.79459 65.2066 0.0010376 53.1256 0.0010376Z" fill="url(#paint7_linear)"/>
<path d="M62.4961 26.5582C62.493 23.7471 62.4942 20.0035 62.496 17.1923C62.4983 13.7406 59.7022 10.9405 56.2505 10.9382H45.3132C44.4503 10.9382 43.7507 11.6378 43.7507 12.5007V31.2502C43.7507 32.1131 44.4503 32.8127 45.3132 32.8127H56.2505C58.0427 32.8115 59.7482 32.0409 60.9336 30.6968C61.9831 29.5068 62.4978 28.0292 62.4961 26.5582ZM56.2505 29.6877H50.0007C48.2748 29.6877 46.8758 28.2886 46.8758 26.5627C46.8758 24.8369 48.2748 23.4378 50.0007 23.4378H56.2505C57.9763 23.4378 59.3754 24.8368 59.3754 26.5627C59.3755 28.2887 57.9763 29.6877 56.2505 29.6877ZM56.2505 20.3129H50.0006C48.2748 20.3129 46.8758 18.9139 46.8758 17.1881C46.8758 15.4622 48.2748 14.0632 50.0006 14.0632H56.2505C57.9763 14.0632 59.3754 15.4622 59.3754 17.1881C59.3755 18.9139 57.9763 20.3129 56.2505 20.3129Z" fill="url(#paint8_linear)"/>
<path d="M50.0007 10.9383V9.37577C50.0007 8.51284 49.3011 7.81329 48.4382 7.81329C47.5753 7.81329 46.8757 8.51284 46.8757 9.37577V10.9383C46.8757 11.8012 47.5753 12.5008 48.4382 12.5008C49.3011 12.5008 50.0007 11.8012 50.0007 10.9383Z" fill="url(#paint9_linear)"/>
<path d="M56.2504 10.9383V9.37577C56.2504 8.51284 55.5509 7.81329 54.688 7.81329C53.825 7.81329 53.1255 8.51284 53.1255 9.37577V10.9383C53.1255 11.8012 53.825 12.5008 54.688 12.5008C55.5509 12.5008 56.2504 11.8012 56.2504 10.9383Z" fill="url(#paint10_linear)"/>
<path d="M50.0007 34.3752V32.8127C50.0007 31.9497 49.3011 31.2502 48.4382 31.2502C47.5753 31.2502 46.8757 31.9497 46.8757 32.8127V34.3752C46.8757 35.2381 47.5753 35.9377 48.4382 35.9377C49.3011 35.9377 50.0007 35.2381 50.0007 34.3752Z" fill="url(#paint11_linear)"/>
<path d="M56.2504 34.3752V32.8127C56.2504 31.9497 55.5509 31.2502 54.688 31.2502C53.825 31.2502 53.1255 31.9497 53.1255 32.8127V34.3752C53.1255 35.2381 53.825 35.9377 54.688 35.9377C55.5509 35.9377 56.2504 35.2381 56.2504 34.3752Z" fill="url(#paint12_linear)"/>
<path d="M65.6251 21.8754C65.6251 22.7383 66.3247 23.4379 67.1876 23.4379C68.0505 23.4379 68.7501 22.7383 68.7501 21.8754C68.7501 21.0125 68.0505 20.3129 67.1876 20.3129C66.3247 20.3129 65.6251 21.0125 65.6251 21.8754Z" fill="url(#paint13_linear)"/>
<path d="M37.5009 21.8754C37.5009 22.7383 38.2004 23.4379 39.0633 23.4379C39.9263 23.4379 40.6258 22.7383 40.6258 21.8754C40.6258 21.0125 39.9263 20.3129 39.0633 20.3129C38.2004 20.3129 37.5009 21.0125 37.5009 21.8754Z" fill="url(#paint14_linear)"/>
</g>
</g>
<defs>
<filter id="filter0_d" x="-4.00049" y="0.0010376" width="83.0005" height="82.9981" filterUnits="userSpaceOnUse" color-interpolation-filters="sRGB">
<feFlood flood-opacity="0" result="BackgroundImageFix"/>
<feColorMatrix in="SourceAlpha" type="matrix" values="0 0 0 0 0 0 0 0 0 0 0 0 0 0 0 0 0 0 127 0"/>
<feOffset dy="4"/>
<feGaussianBlur stdDeviation="2"/>
<feColorMatrix type="matrix" values="0 0 0 0 0 0 0 0 0 0 0 0 0 0 0 0 0 0 0.25 0"/>
<feBlend mode="normal" in2="BackgroundImageFix" result="effect1_dropShadow"/>
<feBlend mode="normal" in="SourceGraphic" in2="effect1_dropShadow" result="shape"/>
</filter>
<linearGradient id="paint0_linear" x1="25.5149" y1="43.7505" x2="50.6594" y2="41.9239" gradientUnits="userSpaceOnUse">
<stop stop-color="#00C6FB"/>
<stop offset="1" stop-color="#005BEA"/>
</linearGradient>
<linearGradient id="paint1_linear" x1="17.3817" y1="31.2502" x2="26.8326" y2="30.7352" gradientUnits="userSpaceOnUse">
<stop stop-color="#00C6FB"/>
<stop offset="1" stop-color="#005BEA"/>
</linearGradient>
<linearGradient id="paint2_linear" x1="17.3817" y1="46.8748" x2="26.8326" y2="46.3599" gradientUnits="userSpaceOnUse">
<stop stop-color="#00C6FB"/>
<stop offset="1" stop-color="#005BEA"/>
</linearGradient>
<linearGradient id="paint3_linear" x1="17.3817" y1="62.4994" x2="26.8326" y2="61.9844" gradientUnits="userSpaceOnUse">
<stop stop-color="#00C6FB"/>
<stop offset="1" stop-color="#005BEA"/>
</linearGradient>
<linearGradient id="paint4_linear" x1="25.0975" y1="43.7499" x2="29.8057" y2="43.3651" gradientUnits="userSpaceOnUse">
<stop stop-color="#00C6FB"/>
<stop offset="1" stop-color="#005BEA"/>
</linearGradient>
<linearGradient id="paint5_linear" x1="0.641661" y1="57.8146" x2="32.2128" y2="56.8847" gradientUnits="userSpaceOnUse">
<stop stop-color="#00C6FB"/>
<stop offset="1" stop-color="#005BEA"/>
</linearGradient>
<linearGradient id="paint6_linear" x1="25.7396" y1="74.9992" x2="61.8792" y2="72.3349" gradientUnits="userSpaceOnUse">
<stop stop-color="#00C6FB"/>
<stop offset="1" stop-color="#005BEA"/>
</linearGradient>
<linearGradient id="paint7_linear" x1="32.1502" y1="43.7498" x2="76.2541" y2="41.3466" gradientUnits="userSpaceOnUse">
<stop stop-color="#00C6FB"/>
<stop offset="1" stop-color="#005BEA"/>
</linearGradient>
<linearGradient id="paint8_linear" x1="44.1359" y1="32.8127" x2="63.0483" y2="31.9296" gradientUnits="userSpaceOnUse">
<stop stop-color="#00C6FB"/>
<stop offset="1" stop-color="#005BEA"/>
</linearGradient>
<linearGradient id="paint9_linear" x1="46.9399" y1="12.5008" x2="50.0954" y2="12.3862" gradientUnits="userSpaceOnUse">
<stop stop-color="#00C6FB"/>
<stop offset="1" stop-color="#005BEA"/>
</linearGradient>
<linearGradient id="paint10_linear" x1="53.1897" y1="12.5008" x2="56.3452" y2="12.3862" gradientUnits="userSpaceOnUse">
<stop stop-color="#00C6FB"/>
<stop offset="1" stop-color="#005BEA"/>
</linearGradient>
<linearGradient id="paint11_linear" x1="46.9399" y1="35.9377" x2="50.0954" y2="35.8231" gradientUnits="userSpaceOnUse">
<stop stop-color="#00C6FB"/>
<stop offset="1" stop-color="#005BEA"/>
</linearGradient>
<linearGradient id="paint12_linear" x1="53.1897" y1="35.9377" x2="56.3452" y2="35.8231" gradientUnits="userSpaceOnUse">
<stop stop-color="#00C6FB"/>
<stop offset="1" stop-color="#005BEA"/>
</linearGradient>
<linearGradient id="paint13_linear" x1="65.6893" y1="23.4379" x2="68.8397" y2="23.2662" gradientUnits="userSpaceOnUse">
<stop stop-color="#00C6FB"/>
<stop offset="1" stop-color="#005BEA"/>
</linearGradient>
<linearGradient id="paint14_linear" x1="37.5651" y1="23.4379" x2="40.7154" y2="23.2662" gradientUnits="userSpaceOnUse">
<stop stop-color="#00C6FB"/>
<stop offset="1" stop-color="#005BEA"/>
</linearGradient>
<clipPath id="clip0">
<rect width="75" height="75" fill="white"/>
</clipPath>
</defs>
</svg>
