<svg width="75" height="75" viewBox="0 0 75 75" fill="none" xmlns="http://www.w3.org/2000/svg">
<g clip-path="url(#clip0)">
<g filter="url(#filter0_d)">
<path d="M68.6328 28.5401H59.8828C59.1277 28.5401 58.5156 29.1523 58.5156 29.9073V36.8116C58.5156 37.5665 59.1277 38.1788 59.8828 38.1788C60.6379 38.1788 61.25 37.5665 61.25 36.8116V34.2823C61.25 32.6211 62.5966 31.2745 64.2578 31.2745C65.919 31.2745 67.2656 32.6211 67.2656 34.2823V64.258C67.2656 65.9192 65.919 67.2658 64.2578 67.2658C62.5966 67.2658 61.25 65.9192 61.25 64.258V47.0655C61.25 46.3105 60.6379 45.6983 59.8828 45.6983C59.1277 45.6983 58.5156 46.3105 58.5156 47.0655V65.8986C58.5156 66.6537 57.9035 67.2658 57.1484 67.2658C56.3934 67.2658 55.7812 66.6537 55.7812 65.8986V38.965C55.7812 38.2101 55.1692 37.5978 54.4141 37.5978H45.6641C44.909 37.5978 44.2969 38.2101 44.2969 38.965V65.8986C44.2969 66.6537 43.6848 67.2658 42.9297 67.2658C42.1746 67.2658 41.5625 66.6537 41.5625 65.8986V48.5353C41.5625 47.7804 40.9504 47.1682 40.1953 47.1682H31.4453C30.6902 47.1682 30.0781 47.7804 30.0781 48.5353V65.8986C30.0781 66.6537 29.466 67.2658 28.7109 67.2658C27.9559 67.2658 27.3438 66.6537 27.3438 65.8986V56.3796C27.3438 55.6246 26.7317 55.0124 25.9766 55.0124H17.2266C16.4715 55.0124 15.8594 55.6246 15.8594 56.3796C15.8594 62.3919 10.9854 67.2658 4.97314 67.2658H4.10156C3.3477 67.2658 2.73438 66.6525 2.73438 65.8986V4.10175C2.73438 3.34788 3.3477 2.73456 4.10156 2.73456H30.3477C35.3315 2.73456 39.3716 6.77467 39.3716 11.7584C39.3716 14.02 41.2115 15.86 43.4731 15.86C48.4567 15.86 52.4966 19.8999 52.4966 24.8834V32.676C52.4966 33.4309 53.1087 34.0432 53.8638 34.0432C54.6189 34.0432 55.231 33.4309 55.231 32.676V14.4928C55.231 14.1302 55.0869 13.7825 54.8305 13.526L41.7055 0.400632C41.449 0.144285 41.1013 0.000183105 40.7388 0.000183105H4.10156C1.83996 0.000183105 0 1.84014 0 4.10175V65.8986C0 68.1602 1.83996 70.0002 4.10156 70.0002H68.6328C69.3879 70.0002 70 69.388 70 68.633V29.9073C70 29.1523 69.3879 28.5401 68.6328 28.5401ZM42.106 10.6485C42.106 8.44162 44.7742 7.33642 46.3346 8.89693C47.8951 10.4574 46.7899 13.1256 44.5831 13.1256H43.4731C42.7191 13.1256 42.106 12.5123 42.106 11.7584V10.6485ZM24.6094 64.258C24.6094 65.9192 23.2627 67.2658 21.6016 67.2658C19.9404 67.2658 18.5938 65.9192 18.5938 64.258V60.7546C18.5938 59.0934 19.9404 57.7468 21.6016 57.7468C23.2627 57.7468 24.6094 59.0934 24.6094 60.7546V64.258ZM38.8281 64.258C38.8281 65.9192 37.4815 67.2658 35.8203 67.2658C34.1591 67.2658 32.8125 65.9192 32.8125 64.258V52.9103C32.8125 51.2492 34.1591 49.9025 35.8203 49.9025C37.4815 49.9025 38.8281 51.2492 38.8281 52.9103V64.258ZM53.0469 64.258C53.0469 65.9192 51.7002 67.2658 50.0391 67.2658C48.3779 67.2658 47.0312 65.9192 47.0312 64.258V43.34C47.0312 41.6789 48.3779 40.3322 50.0391 40.3322C51.7002 40.3322 53.0469 41.6789 53.0469 43.34V64.258Z" fill="url(#paint0_linear)"/>
<path d="M60.8494 40.7178C60.5951 40.4622 60.2424 40.3172 59.8828 40.3172C59.5232 40.3172 59.1705 40.4622 58.9162 40.7178C58.6619 40.9721 58.5156 41.3248 58.5156 41.6844C58.5156 42.0439 58.6619 42.3967 58.9162 42.651C59.1705 42.9051 59.5232 43.0515 59.8828 43.0515C60.2424 43.0515 60.5951 42.9053 60.8494 42.651C61.1037 42.3967 61.25 42.0439 61.25 41.6844C61.25 41.3248 61.1037 40.9721 60.8494 40.7178Z" fill="url(#paint1_linear)"/>
<path d="M19.9031 7.48267C19.148 7.48267 18.5359 8.09489 18.5359 8.84985C18.5359 10.2491 17.4668 11.3925 16.1321 11.8128C11.0348 13.4183 7.32837 18.1895 7.32837 23.8102C7.32837 30.7439 12.9694 36.3849 19.9031 36.3849C25.5238 36.3849 30.2951 32.6784 31.9005 27.581C32.3207 26.2464 33.4641 25.1774 34.8632 25.1774C35.6183 25.1774 36.2304 24.5651 36.2304 23.8102C36.2304 14.8071 28.906 7.48267 19.9031 7.48267ZM19.9031 33.6504C14.4771 33.6504 10.0627 29.236 10.0627 23.81C10.0627 22.3093 10.4005 20.886 11.0039 19.6121C13.2081 14.9584 18.5359 18.6607 18.5359 23.81C18.5359 24.565 19.148 25.1772 19.9031 25.1772C25.0524 25.1772 28.7547 30.505 24.101 32.7092C22.8271 33.3126 21.4038 33.6504 19.9031 33.6504ZM21.2704 22.443C21.2703 22.443 21.2703 22.4429 21.2703 22.4428V19.5898C21.2703 14.6087 25.9879 10.6809 29.5101 14.2031C30.1978 14.8908 30.8123 15.6517 31.341 16.4728C33.1906 19.3461 30.4619 22.443 27.0448 22.443H21.2704Z" fill="url(#paint2_linear)"/>
<path d="M34.8633 40.2297H8.75C7.9949 40.2297 7.38281 40.8419 7.38281 41.5969C7.38281 42.3518 7.9949 42.9641 8.75 42.9641H34.8633C35.6184 42.9641 36.2305 42.3518 36.2305 41.5969C36.2305 40.8419 35.6184 40.2297 34.8633 40.2297Z" fill="url(#paint3_linear)"/>
<path d="M17.5 46.8264H8.75C7.9949 46.8264 7.38281 47.4386 7.38281 48.1935C7.38281 48.9485 7.9949 49.5607 8.75 49.5607H17.5C18.2551 49.5607 18.8672 48.9485 18.8672 48.1935C18.8672 47.4386 18.2551 46.8264 17.5 46.8264Z" fill="url(#paint4_linear)"/>
<path d="M25.3134 47.2269C25.0591 46.9726 24.7064 46.8264 24.3468 46.8264C23.9859 46.8264 23.6345 46.9725 23.3802 47.2269C23.1245 47.4812 22.9796 47.834 22.9796 48.1935C22.9796 48.5531 23.1245 48.9058 23.3802 49.16C23.6345 49.4143 23.9859 49.5607 24.3468 49.5607C24.7064 49.5607 25.0591 49.4144 25.3134 49.16C25.5677 48.9058 25.714 48.5531 25.714 48.1935C25.714 47.834 25.5677 47.4812 25.3134 47.2269Z" fill="url(#paint5_linear)"/>
</g>
</g>
<defs>
<filter id="filter0_d" x="-4" y="0.000183105" width="78" height="78" filterUnits="userSpaceOnUse" color-interpolation-filters="sRGB">
<feFlood flood-opacity="0" result="BackgroundImageFix"/>
<feColorMatrix in="SourceAlpha" type="matrix" values="0 0 0 0 0 0 0 0 0 0 0 0 0 0 0 0 0 0 127 0"/>
<feOffset dy="4"/>
<feGaussianBlur stdDeviation="2"/>
<feColorMatrix type="matrix" values="0 0 0 0 0 0 0 0 0 0 0 0 0 0 0 0 0 0 0.25 0"/>
<feBlend mode="normal" in2="BackgroundImageFix" result="effect1_dropShadow"/>
<feBlend mode="normal" in="SourceGraphic" in2="effect1_dropShadow" result="shape"/>
</filter>
<linearGradient id="paint0_linear" x1="1.43836" y1="70.0002" x2="72.0066" y2="66.155" gradientUnits="userSpaceOnUse">
<stop stop-color="#00C6FB"/>
<stop offset="1" stop-color="#005BEA"/>
</linearGradient>
<linearGradient id="paint1_linear" x1="58.5718" y1="43.0515" x2="61.3284" y2="42.9013" gradientUnits="userSpaceOnUse">
<stop stop-color="#00C6FB"/>
<stop offset="1" stop-color="#005BEA"/>
</linearGradient>
<linearGradient id="paint2_linear" x1="7.92225" y1="36.3849" x2="37.0589" y2="34.7972" gradientUnits="userSpaceOnUse">
<stop stop-color="#00C6FB"/>
<stop offset="1" stop-color="#005BEA"/>
</linearGradient>
<linearGradient id="paint3_linear" x1="7.97557" y1="42.9641" x2="29.8988" y2="30.3612" gradientUnits="userSpaceOnUse">
<stop stop-color="#00C6FB"/>
<stop offset="1" stop-color="#005BEA"/>
</linearGradient>
<linearGradient id="paint4_linear" x1="7.61879" y1="49.5607" x2="18.6529" y2="47.0355" gradientUnits="userSpaceOnUse">
<stop stop-color="#00C6FB"/>
<stop offset="1" stop-color="#005BEA"/>
</linearGradient>
<linearGradient id="paint5_linear" x1="23.0358" y1="49.5607" x2="25.7924" y2="49.4105" gradientUnits="userSpaceOnUse">
<stop stop-color="#00C6FB"/>
<stop offset="1" stop-color="#005BEA"/>
</linearGradient>
<clipPath id="clip0">
<rect width="75" height="75" fill="white" transform="translate(0 0.000183105)"/>
</clipPath>
</defs>
</svg>
