<svg width="75" height="75" viewBox="0 0 75 75" fill="none" xmlns="http://www.w3.org/2000/svg">
<g clip-path="url(#clip0)">
<g filter="url(#filter0_d)">
<path d="M66.8182 9.15527e-05C62.3059 9.15527e-05 58.6364 3.66964 58.6364 8.18191C58.6364 10.5929 58.4563 13.252 56.7514 14.9569L51.3108 20.3974C48.4047 23.3036 43.6554 23.1819 39.5455 23.1819C35.4344 23.1819 30.6853 23.3027 27.7783 20.3957L24.4552 17.0726C23.2508 15.8682 23.1818 13.9761 23.1818 12.2728C23.1818 9.26464 20.7355 6.81827 17.7273 6.81827C14.7191 6.81827 12.2727 9.26464 12.2727 12.2728C12.2727 15.281 14.7191 17.7274 17.7273 17.7274C19.4306 17.7274 21.3226 17.7964 22.5271 19.0008L25.8502 22.3239C28.7571 25.2308 28.6364 29.9799 28.6364 34.091C28.6364 38.201 28.7573 42.9498 25.8512 45.8561L17.9273 53.7807C15.5428 56.1653 11.5541 55.9092 8.18182 55.9092C3.66955 55.9092 0 59.5787 0 64.091C0 68.6033 3.66955 72.2728 8.18182 72.2728C12.6941 72.2728 16.3636 68.6033 16.3636 64.091C16.3636 61.68 16.5437 59.0209 18.2486 57.3161L30.8077 44.7569C31.9846 43.58 33.8112 43.5034 35.346 44.1472C36.8803 44.7908 38.1832 46.1529 38.1832 47.8168V51.9799C38.1832 55.8938 34.8119 59.0983 32.6788 62.3798C31.848 63.6579 31.365 65.1819 31.365 66.8183C31.365 71.3305 35.0345 75.0001 39.5468 75.0001C44.0591 75.0001 47.7286 71.3305 47.7286 66.8183C47.7286 65.1819 47.2453 63.6578 46.4139 62.3795C44.2803 59.0988 40.9104 55.8946 40.9104 51.9811V47.8168C40.9104 46.1529 42.2133 44.7908 43.7477 44.1472C45.2825 43.5034 47.109 43.58 48.2859 44.7569L54.6358 51.1068C55.8408 52.3118 55.9091 54.205 55.9091 55.9092C55.9091 58.9174 58.3554 61.3637 61.3636 61.3637C64.3718 61.3637 66.8182 58.9174 66.8182 55.9092C66.8182 52.901 64.3718 50.4546 61.3636 50.4546C59.6603 50.4546 57.7683 50.3856 56.5638 49.1812L53.2407 45.8581C50.3338 42.9512 50.4545 38.2021 50.4545 34.091C50.4545 29.981 50.3337 25.2323 53.2399 22.3261L57.0747 18.4913C59.4586 16.1074 63.4469 16.3637 66.8182 16.3637C71.3305 16.3637 75 12.6942 75 8.18191C75 3.66964 71.3305 9.15527e-05 66.8182 9.15527e-05ZM15 12.2728C15 10.7687 16.2232 9.54555 17.7273 9.54555C19.2314 9.54555 20.4545 10.7687 20.4545 12.2728C20.4545 13.7769 19.2314 15.0001 17.7273 15.0001C16.2232 15.0001 15 13.7769 15 12.2728ZM8.18182 69.5455C5.17364 69.5455 2.72727 67.0992 2.72727 64.091C2.72727 61.0828 5.17364 58.6365 8.18182 58.6365C11.19 58.6365 13.6364 61.0828 13.6364 64.091C13.6364 67.0992 11.19 69.5455 8.18182 69.5455ZM45 66.8183C45 69.8264 42.5536 72.2728 39.5455 72.2728C36.5373 72.2728 34.0909 69.8264 34.0909 66.8183C34.0909 63.8101 36.5373 61.3637 39.5455 61.3637C42.5536 61.3637 45 63.8101 45 66.8183ZM39.5455 42.2728C35.0332 42.2728 31.3636 38.6033 31.3636 34.091C31.3636 29.5787 35.0332 25.9092 39.5455 25.9092C44.0577 25.9092 47.7273 29.5787 47.7273 34.091C47.7273 38.6033 44.0577 42.2728 39.5455 42.2728ZM64.0909 55.9092C64.0909 57.4133 62.8677 58.6365 61.3636 58.6365C59.8595 58.6365 58.6364 57.4133 58.6364 55.9092C58.6364 54.4051 59.8595 53.1819 61.3636 53.1819C62.8677 53.1819 64.0909 54.4051 64.0909 55.9092ZM66.8182 13.6365C63.81 13.6365 61.3636 11.1901 61.3636 8.18191C61.3636 5.17373 63.81 2.72736 66.8182 2.72736C69.8264 2.72736 72.2727 5.17373 72.2727 8.18191C72.2727 11.1901 69.8264 13.6365 66.8182 13.6365Z" fill="url(#paint0_linear)"/>
</g>
</g>
<defs>
<filter id="filter0_d" x="-4" y="9.15527e-05" width="83" height="83" filterUnits="userSpaceOnUse" color-interpolation-filters="sRGB">
<feFlood flood-opacity="0" result="BackgroundImageFix"/>
<feColorMatrix in="SourceAlpha" type="matrix" values="0 0 0 0 0 0 0 0 0 0 0 0 0 0 0 0 0 0 127 0"/>
<feOffset dy="4"/>
<feGaussianBlur stdDeviation="2"/>
<feColorMatrix type="matrix" values="0 0 0 0 0 0 0 0 0 0 0 0 0 0 0 0 0 0 0.25 0"/>
<feBlend mode="normal" in2="BackgroundImageFix" result="effect1_dropShadow"/>
<feBlend mode="normal" in="SourceGraphic" in2="effect1_dropShadow" result="shape"/>
</filter>
<linearGradient id="paint0_linear" x1="1.5411" y1="75.0001" x2="77.1499" y2="70.8802" gradientUnits="userSpaceOnUse">
<stop stop-color="#00C6FB"/>
<stop offset="1" stop-color="#005BEA"/>
</linearGradient>
<clipPath id="clip0">
<rect width="75" height="75" fill="white"/>
</clipPath>
</defs>
</svg>
