<svg width="75" height="75" viewBox="0 0 75 75" fill="none" xmlns="http://www.w3.org/2000/svg">
<g clip-path="url(#clip0)">
<g filter="url(#filter0_d)">
<path d="M74.3749 9.68833L61.875 0.313404C61.4 -0.0428433 60.7672 -0.0990929 60.2391 0.165016C59.7094 0.430591 59.375 0.97126 59.375 1.56349C59.375 3.28934 57.9759 4.68842 56.2501 4.68842H23.4377C10.5143 4.68842 0.000366211 15.2024 0.000366211 28.1257C0.000366211 41.0491 10.5143 51.5631 23.4377 51.5631H34.3751C35.2376 51.5631 35.9377 50.863 35.9377 50.0005C35.9377 49.138 35.2376 48.438 34.3751 48.438H23.4377C12.2377 48.438 3.12529 39.3256 3.12529 28.1256C3.12529 16.9256 12.2379 7.81335 23.4377 7.81335H60.9374C61.7999 7.81335 62.4999 7.1133 62.4999 6.25081C62.4999 5.60702 63.2349 5.23955 63.7499 5.62584L67.4998 8.43846C69.1663 9.6884 69.1662 12.1881 67.4998 13.4381L63.7499 16.2507C63.2349 16.637 62.4999 16.2695 62.4999 15.6257C62.4999 14.7632 61.7999 14.0632 60.9374 14.0632H35.9377C35.0752 14.0632 34.3751 14.7632 34.3751 15.6257C34.3751 16.4882 35.0752 17.1883 35.9377 17.1883H56.2501C57.9759 17.1883 59.375 18.5874 59.375 20.3132C59.375 20.9054 59.7094 21.446 60.2391 21.7117C60.7672 21.9758 61.4016 21.9179 61.875 21.5633L74.3749 12.1884C74.7686 11.8931 74.9999 11.4306 74.9999 10.9384C74.9998 10.4461 74.7686 9.98364 74.3749 9.68833Z" fill="url(#paint0_linear)"/>
<path d="M51.5625 23.4379H40.625C39.7625 23.4379 39.0625 24.138 39.0625 25.0005C39.0625 25.863 39.7625 26.563 40.625 26.563H51.5625C62.7624 26.563 71.8749 35.6754 71.8749 46.8754C71.8749 58.0753 62.7624 67.1878 51.5625 67.1878H14.0628C13.2003 67.1878 12.5002 67.8878 12.5002 68.7503C12.5002 69.3941 11.7652 69.7616 11.2502 69.3753L7.5003 66.5625C5.83385 65.3126 5.83387 62.8128 7.50033 61.5629L11.2502 58.7503C11.7652 58.364 12.5002 58.7315 12.5002 59.3752C12.5002 60.2377 13.2003 60.9378 14.0628 60.9378H39.0626C39.9251 60.9378 40.6251 60.2377 40.6251 59.3752C40.6251 58.5127 39.9251 57.8127 39.0626 57.8127H18.7502C17.0244 57.8127 15.6253 56.4136 15.6253 54.6878C15.6253 54.0955 15.2909 53.555 14.7612 53.2893C14.2315 53.0252 13.5987 53.0814 13.1253 53.4377L0.62541 62.8126C0.231663 63.1079 0.000366211 63.5704 0.000366211 64.0626C0.000366211 64.5547 0.231663 65.0172 0.62541 65.3125L13.1253 74.6874C13.4018 74.8937 13.7316 74.9999 14.0628 74.9999C14.3002 74.9999 14.5409 74.9452 14.7612 74.8358C15.2909 74.5702 15.6253 74.0296 15.6253 73.4373C15.6253 71.7115 17.0244 70.3124 18.7502 70.3124H51.5625C64.4858 70.3124 74.9998 59.7984 74.9998 46.8751C74.9998 33.9518 64.4858 23.4379 51.5625 23.4379Z" fill="url(#paint1_linear)"/>
<path d="M29.6878 25.0006C30.5503 25.0006 31.2503 24.3005 31.2503 23.438V21.8755C31.2503 19.2911 29.1473 17.188 26.5629 17.188C25.6999 17.188 25.0003 16.4885 25.0003 15.6255C25.0003 14.763 24.3003 14.063 23.4378 14.063C22.5753 14.063 21.8753 14.763 21.8753 15.6255C21.8753 16.4885 21.1757 17.188 20.3127 17.188C17.7283 17.188 15.6253 19.2911 15.6253 21.8755V25.0004C15.6253 27.5848 17.7283 29.6879 20.3127 29.6879H26.5627C27.4236 29.6879 28.1253 30.3894 28.1253 31.2504V34.3753C28.1253 35.2362 27.4238 35.9379 26.5627 35.9379H20.3127C19.4518 35.9379 18.7502 35.2364 18.7502 34.3753V32.8128C18.7502 31.9503 18.0502 31.2503 17.1877 31.2503C16.3252 31.2503 15.6251 31.9503 15.6251 32.8128V34.3753C15.6251 36.9597 17.7282 39.0628 20.3126 39.0628C21.1756 39.0628 21.8751 39.7624 21.8751 40.6253C21.8751 41.4878 22.5752 42.1879 23.4377 42.1879C24.3002 42.1879 25.0002 41.4878 25.0002 40.6253C25.0002 39.7624 25.6998 39.0628 26.5627 39.0628C29.1471 39.0628 31.2502 36.9597 31.2502 34.3753V31.2504C31.2502 28.666 29.1471 26.563 26.5627 26.563H20.3127C19.4518 26.563 18.7502 25.8614 18.7502 25.0004V21.8755C18.7502 21.0146 19.4517 20.313 20.3127 20.313H26.5627C27.4236 20.313 28.1253 21.0145 28.1253 21.8755V23.438C28.1253 24.3005 28.8253 25.0006 29.6878 25.0006Z" fill="url(#paint2_linear)"/>
<path d="M60.9376 51.563C60.9374 48.7491 60.9376 45.0017 60.9376 42.1878C60.9376 39.9152 59.7121 37.9347 57.8906 36.8465C56.9885 36.3077 56.2501 35.4261 56.2501 34.3754C56.2501 33.5129 55.5501 32.8128 54.6876 32.8128C53.8251 32.8128 53.1251 33.5129 53.1251 34.3754C53.1251 35.2383 52.4255 35.9379 51.5626 35.9379C50.6997 35.9379 50.0001 35.2383 50.0001 34.3754C50.0001 33.5129 49.3001 32.8128 48.4376 32.8128C47.5751 32.8128 46.8751 33.5129 46.8751 34.3754C46.8751 35.2383 46.1755 35.9379 45.3125 35.9379C44.45 35.9379 43.75 36.638 43.75 37.5004V56.2503C43.75 57.1128 44.45 57.8128 45.3125 57.8128C46.1755 57.8128 46.8751 58.5124 46.8751 59.3754C46.8751 60.2379 47.5751 60.9379 48.4376 60.9379C49.3001 60.9379 50.0001 60.2379 50.0001 59.3754C50.0001 58.5124 50.6997 57.8128 51.5626 57.8128C52.4255 57.8128 53.1251 58.5124 53.1251 59.3754C53.1251 60.2379 53.8251 60.9379 54.6876 60.9379C55.5501 60.9379 56.2501 60.2379 56.2501 59.3754C56.2501 58.3246 56.9885 57.4431 57.8906 56.9042C59.7121 55.816 60.9376 53.8356 60.9376 51.563ZM54.6876 54.6878H50.0002C48.2743 54.6878 46.8752 53.2886 46.8752 51.5628C46.8752 49.8369 48.2743 48.4378 50.0002 48.4378H54.6876C56.411 48.4378 57.8125 49.8393 57.8125 51.5627C57.8125 53.2862 56.411 54.6878 54.6876 54.6878ZM54.6876 45.3128H50.0002C48.2743 45.3128 46.8752 43.9137 46.8752 42.1878C46.8752 40.4619 48.2743 39.0628 50.0002 39.0628H54.6876C56.411 39.0628 57.8125 40.4644 57.8125 42.1878C57.8125 43.9111 56.411 45.3128 54.6876 45.3128Z" fill="url(#paint3_linear)"/>
</g>
</g>
<defs>
<filter id="filter0_d" x="-3.99963" y="0.000259399" width="82.9995" height="82.9996" filterUnits="userSpaceOnUse" color-interpolation-filters="sRGB">
<feFlood flood-opacity="0" result="BackgroundImageFix"/>
<feColorMatrix in="SourceAlpha" type="matrix" values="0 0 0 0 0 0 0 0 0 0 0 0 0 0 0 0 0 0 127 0"/>
<feOffset dy="4"/>
<feGaussianBlur stdDeviation="2"/>
<feColorMatrix type="matrix" values="0 0 0 0 0 0 0 0 0 0 0 0 0 0 0 0 0 0 0.25 0"/>
<feBlend mode="normal" in2="BackgroundImageFix" result="effect1_dropShadow"/>
<feBlend mode="normal" in="SourceGraphic" in2="effect1_dropShadow" result="shape"/>
</filter>
<linearGradient id="paint0_linear" x1="1.54145" y1="51.5631" x2="76.9009" y2="45.5903" gradientUnits="userSpaceOnUse">
<stop stop-color="#00C6FB"/>
<stop offset="1" stop-color="#005BEA"/>
</linearGradient>
<linearGradient id="paint1_linear" x1="1.54145" y1="74.9999" x2="76.9008" y2="69.0271" gradientUnits="userSpaceOnUse">
<stop stop-color="#00C6FB"/>
<stop offset="1" stop-color="#005BEA"/>
</linearGradient>
<linearGradient id="paint2_linear" x1="15.9462" y1="42.1879" x2="31.7305" y2="41.7101" gradientUnits="userSpaceOnUse">
<stop stop-color="#00C6FB"/>
<stop offset="1" stop-color="#005BEA"/>
</linearGradient>
<linearGradient id="paint3_linear" x1="44.1032" y1="60.9379" x2="61.4625" y2="60.3598" gradientUnits="userSpaceOnUse">
<stop stop-color="#00C6FB"/>
<stop offset="1" stop-color="#005BEA"/>
</linearGradient>
<clipPath id="clip0">
<rect width="75" height="75" fill="white"/>
</clipPath>
</defs>
</svg>
