<svg width="75" height="75" viewBox="0 0 75 75" fill="none" xmlns="http://www.w3.org/2000/svg">
<path d="M22.9839 62.9032C20.9833 62.9032 19.3549 64.5317 19.3549 66.5323C19.3549 68.5328 20.9833 70.1613 22.9839 70.1613C24.9845 70.1613 26.6129 68.5328 26.6129 66.5323C26.6129 64.5317 24.9845 62.9032 22.9839 62.9032ZM22.9839 67.7419C22.3164 67.7419 21.7742 67.1997 21.7742 66.5323C21.7742 65.8648 22.3164 65.3226 22.9839 65.3226C23.6513 65.3226 24.1936 65.8648 24.1936 66.5323C24.1936 67.1997 23.6513 67.7419 22.9839 67.7419Z" fill="url(#paint0_linear)"/>
<path d="M74.4135 31.6247L62.9032 24.7186V13.3065C62.9032 12.8806 62.6794 12.4878 62.3167 12.2698L50.2199 5.01177C49.8378 4.78319 49.357 4.78319 48.9748 5.01177L45.9677 6.81507V6.04839C45.9677 2.71351 43.2542 0 39.9194 0H6.04839C2.71351 0 0 2.71351 0 6.04839V68.9516C0 72.2865 2.71351 75 6.04839 75H39.9194C43.2542 75 45.9677 72.2865 45.9677 68.9516V48.3458L49.5968 46.1686L52.0161 47.6204V65.4945C49.934 66.0349 48.3871 67.9126 48.3871 70.1613C48.3871 72.8299 50.5572 75 53.2258 75C55.8944 75 58.0645 72.8299 58.0645 70.1613C58.0645 67.9126 56.5176 66.0349 54.4355 65.4945V49.0717L61.0704 53.0527C61.263 53.1679 61.478 53.2258 61.6936 53.2258C61.9091 53.2258 62.1241 53.1679 62.3167 53.0527L74.4135 45.7947C74.7761 45.5767 75 45.1839 75 44.7581V32.6613C75 32.2354 74.7761 31.8426 74.4135 31.6247ZM55.6452 70.1613C55.6452 71.4956 54.5601 72.5807 53.2258 72.5807C51.8915 72.5807 50.8065 71.4956 50.8065 70.1613C50.8065 68.827 51.8915 67.7419 53.2258 67.7419C54.5601 67.7419 55.6452 68.827 55.6452 70.1613ZM61.6936 38.5089L51.9482 32.6613L56.25 30.0801L61.6936 26.8137L71.4389 32.6613L61.6936 38.5089ZM60.4839 24.7186L55.0403 27.9844L50.8065 30.5249V21.2491L60.4839 15.4429V24.7186ZM26.6129 34.7977L36.2903 40.6039V49.8797L26.6129 44.0735V34.7977ZM37.5 38.5089L27.7547 32.6613L37.5 26.8137L42.9436 30.0801L47.2453 32.6613L37.5 38.5089ZM48.3871 30.5249L44.1532 27.9844L38.7097 24.7186V15.4441L48.3871 21.2503V30.5249ZM38.7097 11.17L36.8769 12.2698C36.5142 12.4878 36.2903 12.8806 36.2903 13.3065V18.1452H19.183C18.6425 16.0631 16.7648 14.5161 14.5161 14.5161C11.8475 14.5161 9.67742 16.6862 9.67742 19.3548C9.67742 22.0235 11.8475 24.1936 14.5161 24.1936C16.7648 24.1936 18.6425 22.6466 19.183 20.5645H36.2903V24.7186L24.7801 31.6247C24.4174 31.8426 24.1936 32.2354 24.1936 32.6613V44.7581C24.1936 45.1839 24.4174 45.5767 24.7801 45.7947L36.8769 53.0527C37.0694 53.1679 37.2844 53.2258 37.5 53.2258C37.7156 53.2258 37.9306 53.1679 38.1231 53.0527L38.7097 52.7007V58.0645H7.25806V7.25806H38.7097V11.17ZM16.9355 19.3548C16.9355 20.6891 15.8504 21.7742 14.5161 21.7742C13.1818 21.7742 12.0968 20.6891 12.0968 19.3548C12.0968 18.0205 13.1818 16.9355 14.5161 16.9355C15.8504 16.9355 16.9355 18.0205 16.9355 19.3548ZM38.7097 49.8797V40.6039L48.3871 34.7977V44.0723L38.7097 49.8797ZM49.5968 7.45889L59.3421 13.3065L49.5968 19.154L39.8514 13.3065L49.5968 7.45889ZM43.5484 68.9516C43.5484 70.9522 41.9199 72.5807 39.9194 72.5807H6.04839C4.04781 72.5807 2.41935 70.9522 2.41935 68.9516V6.04839C2.41935 4.04781 4.04781 2.41935 6.04839 2.41935H39.9194C41.9199 2.41935 43.5484 4.04781 43.5484 6.04839V8.26692L41.129 9.71877V6.04839C41.129 5.37917 40.5886 4.83871 39.9194 4.83871H6.04839C5.37917 4.83871 4.83871 5.37917 4.83871 6.04839V59.2742C4.83871 59.9434 5.37917 60.4839 6.04839 60.4839H39.9194C40.5886 60.4839 41.129 59.9434 41.129 59.2742V51.2495L43.5484 49.7976V68.9516ZM50.8065 34.7977L60.4839 40.6039V49.8797L50.8065 44.0735V34.7977ZM62.9032 49.8797V40.6039L72.5807 34.7977V44.0723L62.9032 49.8797Z" fill="url(#paint1_linear)"/>
<defs>
<linearGradient id="paint0_linear" x1="22.9839" y1="62.9032" x2="22.9839" y2="70.1613" gradientUnits="userSpaceOnUse">
<stop stop-color="#00BFF9"/>
<stop offset="1" stop-color="#0069EC"/>
</linearGradient>
<linearGradient id="paint1_linear" x1="37.5" y1="0" x2="37.5" y2="75" gradientUnits="userSpaceOnUse">
<stop stop-color="#00BFF9"/>
<stop offset="1" stop-color="#0069EC"/>
</linearGradient>
</defs>
</svg>
