<svg width="75" height="75" viewBox="0 0 75 75" fill="none" xmlns="http://www.w3.org/2000/svg">
<g clip-path="url(#clip0)">
<g filter="url(#filter0_d)">
<path d="M28.7499 16.2503C28.0596 16.2503 27.4999 16.81 27.4999 17.5003V20.0003C27.4999 22.0714 25.8209 23.7503 23.7499 23.7503C23.0596 23.7503 22.4999 24.31 22.4999 25.0003V57.5003C22.4999 58.1906 23.0596 58.7503 23.7499 58.7503C25.8209 58.7503 27.4999 60.4292 27.4999 62.5003V63.7503C27.4999 64.4406 28.0596 65.0003 28.7499 65.0003C29.4402 65.0003 29.9999 64.4406 29.9999 63.7503V62.5003C29.9999 60.4292 31.6788 58.7503 33.7499 58.7503C34.4402 58.7503 34.9999 58.1906 34.9999 57.5003V25.0003C34.9999 24.31 34.4402 23.7503 33.7499 23.7503C31.6788 23.7503 29.9999 22.0714 29.9999 20.0003V17.5003C29.9999 16.81 29.4402 16.2503 28.7499 16.2503ZM28.7499 26.2503C30.8209 26.2503 32.4999 27.9292 32.4999 30.0003V52.5003C32.4999 54.5714 30.8209 56.2503 28.7499 56.2503C26.6788 56.2503 24.9999 54.5714 24.9999 52.5003V30.0003C24.9999 27.9292 26.6788 26.2503 28.7499 26.2503Z" fill="url(#paint0_linear)"/>
<path d="M46.25 11.2503C45.5597 11.2503 45 11.81 45 12.5003V15.0003C45 17.0714 43.3211 18.7503 41.25 18.7503C40.5597 18.7503 40 19.31 40 20.0003V52.5003C40 53.1906 40.5597 53.7503 41.25 53.7503C43.3211 53.7503 45 55.4292 45 57.5003V58.7503C45 59.4406 45.5597 60.0003 46.25 60.0003C46.9403 60.0003 47.5 59.4406 47.5 58.7503V57.5003C47.5 55.4292 49.1789 53.7503 51.25 53.7503C51.9403 53.7503 52.5 53.1906 52.5 52.5003V20.0003C52.5 19.31 51.9403 18.7503 51.25 18.7503C49.1789 18.7503 47.5 17.0714 47.5 15.0003V12.5003C47.5 11.81 46.9403 11.2503 46.25 11.2503ZM46.25 21.2503C48.3211 21.2503 50 22.9292 50 25.0003V47.5003C50 49.5714 48.3211 51.2503 46.25 51.2503C44.1789 51.2503 42.5 49.5714 42.5 47.5003V25.0003C42.5 22.9292 44.1789 21.2503 46.25 21.2503Z" fill="url(#paint1_linear)"/>
<path d="M63.7501 26.2503C63.0598 26.2503 62.5001 26.81 62.5001 27.5003V30.0003C62.5001 32.0714 60.8212 33.7503 58.7501 33.7503C58.0598 33.7503 57.5001 34.31 57.5001 35.0003V67.5003C57.5001 68.1906 58.0598 68.7503 58.7501 68.7503C60.8212 68.7503 62.5001 70.4292 62.5001 72.5003V73.7503C62.5001 74.4406 63.0598 75.0003 63.7501 75.0003C64.4404 75.0003 65.0001 74.4406 65.0001 73.7503V72.5003C65.0001 70.4292 66.6791 68.7503 68.7501 68.7503C69.4404 68.7503 70.0001 68.1906 70.0001 67.5003V35.0003C70.0001 34.31 69.4404 33.7503 68.7501 33.7503C66.6791 33.7503 65.0001 32.0714 65.0001 30.0003V27.5003C65.0001 26.81 64.4404 26.2503 63.7501 26.2503ZM63.7501 36.2503C65.8212 36.2503 67.5001 37.9292 67.5001 40.0003V62.5003C67.5001 64.5714 65.8212 66.2503 63.7501 66.2503C61.6791 66.2503 60.0001 64.5714 60.0001 62.5003V40.0003C60.0001 37.9292 61.6791 36.2503 63.7501 36.2503Z" fill="url(#paint2_linear)"/>
<path d="M11.25 0.000305176C10.5597 0.000305176 10 0.559998 10 1.25031V3.75031C10 5.82137 8.32107 7.50031 6.25 7.50031C5.55969 7.50031 5 8.06 5 8.75031V41.2503C5 41.9406 5.55969 42.5003 6.25 42.5003C8.32107 42.5003 10 44.1792 10 46.2503V47.5003C10 48.1906 10.5597 48.7503 11.25 48.7503C11.9403 48.7503 12.5 48.1906 12.5 47.5003V46.2503C12.5 44.1792 14.1789 42.5003 16.25 42.5003C16.9403 42.5003 17.5 41.9406 17.5 41.2503V8.75031C17.5 8.06 16.9403 7.50031 16.25 7.50031C14.1789 7.50031 12.5 5.82137 12.5 3.75031V1.25031C12.5 0.559998 11.9403 0.000305176 11.25 0.000305176ZM11.25 10.0003C13.3211 10.0003 15 11.6792 15 13.7503V36.2503C15 38.3214 13.3211 40.0003 11.25 40.0003C9.17893 40.0003 7.5 38.3214 7.5 36.2503V13.7503C7.5 11.6792 9.17893 10.0003 11.25 10.0003Z" fill="url(#paint3_linear)"/>
</g>
</g>
<defs>
<filter id="filter0_d" x="1" y="0.000305176" width="73.0001" height="83" filterUnits="userSpaceOnUse" color-interpolation-filters="sRGB">
<feFlood flood-opacity="0" result="BackgroundImageFix"/>
<feColorMatrix in="SourceAlpha" type="matrix" values="0 0 0 0 0 0 0 0 0 0 0 0 0 0 0 0 0 0 127 0"/>
<feOffset dy="4"/>
<feGaussianBlur stdDeviation="2"/>
<feColorMatrix type="matrix" values="0 0 0 0 0 0 0 0 0 0 0 0 0 0 0 0 0 0 0.25 0"/>
<feBlend mode="normal" in2="BackgroundImageFix" result="effect1_dropShadow"/>
<feBlend mode="normal" in="SourceGraphic" in2="effect1_dropShadow" result="shape"/>
</filter>
<linearGradient id="paint0_linear" x1="22.7567" y1="65.0003" x2="35.3931" y2="64.8238" gradientUnits="userSpaceOnUse">
<stop stop-color="#00C6FB"/>
<stop offset="1" stop-color="#005BEA"/>
</linearGradient>
<linearGradient id="paint1_linear" x1="40.2568" y1="60.0003" x2="52.8933" y2="59.8238" gradientUnits="userSpaceOnUse">
<stop stop-color="#00C6FB"/>
<stop offset="1" stop-color="#005BEA"/>
</linearGradient>
<linearGradient id="paint2_linear" x1="57.757" y1="75.0003" x2="70.3934" y2="74.8238" gradientUnits="userSpaceOnUse">
<stop stop-color="#00C6FB"/>
<stop offset="1" stop-color="#005BEA"/>
</linearGradient>
<linearGradient id="paint3_linear" x1="5.25685" y1="48.7503" x2="17.8933" y2="48.5738" gradientUnits="userSpaceOnUse">
<stop stop-color="#00C6FB"/>
<stop offset="1" stop-color="#005BEA"/>
</linearGradient>
<clipPath id="clip0">
<rect width="75" height="75" fill="white" transform="translate(0 0.000305176)"/>
</clipPath>
</defs>
</svg>
