<svg width="120" height="120" viewBox="0 0 120 120" fill="none" xmlns="http://www.w3.org/2000/svg">
<path d="M60 112.5C46.0761 112.5 32.7226 106.969 22.8769 97.1231C13.0312 87.2774 7.5 73.9239 7.5 60C7.5 46.0761 13.0312 32.7226 22.8769 22.8769C32.7226 13.0312 46.0761 7.5 60 7.5C73.9239 7.5 87.2774 13.0312 97.1231 22.8769C106.969 32.7226 112.5 46.0761 112.5 60C112.5 73.9239 106.969 87.2774 97.1231 97.1231C87.2774 106.969 73.9239 112.5 60 112.5ZM60 120C75.913 120 91.1742 113.679 102.426 102.426C113.679 91.1742 120 75.913 120 60C120 44.087 113.679 28.8258 102.426 17.5736C91.1742 6.32141 75.913 0 60 0C44.087 0 28.8258 6.32141 17.5736 17.5736C6.32141 28.8258 0 44.087 0 60C0 75.913 6.32141 91.1742 17.5736 102.426C28.8258 113.679 44.087 120 60 120Z" fill="white"/>
<path d="M47.0325 37.9124C47.6459 37.5965 48.3345 37.456 49.0226 37.5063C49.7107 37.5566 50.3716 37.7957 50.9325 38.1974L77.1825 56.9474C77.6686 57.2943 78.0649 57.7523 78.3383 58.2832C78.6116 58.8141 78.7543 59.4027 78.7543 59.9999C78.7543 60.5971 78.6116 61.1856 78.3383 61.7166C78.0649 62.2475 77.6686 62.7055 77.1825 63.0524L50.9325 81.8024C50.3718 82.2037 49.7112 82.4427 49.0235 82.493C48.3357 82.5432 47.6474 82.4029 47.0343 82.0874C46.4211 81.7719 45.9068 81.2935 45.5479 80.7046C45.189 80.1158 44.9994 79.4395 45 78.7499V41.2499C44.9993 40.5605 45.1886 39.8843 45.5472 39.2955C45.9057 38.7067 46.4197 38.2281 47.0325 37.9124Z" fill="white"/>
</svg>
