<svg width="75" height="75" viewBox="0 0 75 75" fill="none" xmlns="http://www.w3.org/2000/svg">
<path d="M68.9516 13.3065H62.9032V1.20968C62.9032 0.540457 62.3628 0 61.6936 0H13.3065C12.6372 0 12.0968 0.540457 12.0968 1.20968V13.3065H6.04839C2.71351 13.3065 0 16.02 0 19.3548V56.8548C0 60.1897 2.71351 62.9032 6.04839 62.9032H30.2419V65.3226H26.6129C21.9449 65.3226 18.1452 69.1223 18.1452 73.7903C18.1452 74.4595 18.6856 75 19.3548 75H55.6452C56.3144 75 56.8548 74.4595 56.8548 73.7903C56.8548 69.1223 53.0551 65.3226 48.3871 65.3226H44.7581V62.9032H68.9516C72.2865 62.9032 75 60.1897 75 56.8548V19.3548C75 16.02 72.2865 13.3065 68.9516 13.3065ZM41.129 42.3387C41.129 35.0021 47.0989 29.0323 54.4355 29.0323C61.7721 29.0323 67.7419 35.0021 67.7419 42.3387C67.7419 49.6753 61.7721 55.6452 54.4355 55.6452C47.0989 55.6452 41.129 49.6753 41.129 42.3387ZM14.5161 2.41935H60.4839V27.8261C58.6209 27.047 56.5778 26.6129 54.4355 26.6129C50.6239 26.6129 47.1266 27.9773 44.4013 30.2419H41.129V32.6613H42.0664C39.9713 35.3335 38.7097 38.6878 38.7097 42.3387C38.7097 46.5643 40.3937 50.3977 43.1143 53.2258H14.5161V2.41935ZM54.3132 72.5807H20.6868C21.2491 69.824 23.6915 67.7419 26.6129 67.7419H48.3871C51.3085 67.7419 53.7521 69.824 54.3132 72.5807ZM42.3387 65.3226H32.6613V62.9032H42.3387V65.3226ZM72.5807 56.8548C72.5807 58.8554 70.9522 60.4839 68.9516 60.4839H6.04839C4.04781 60.4839 2.41935 58.8554 2.41935 56.8548V19.3548C2.41935 17.3543 4.04781 15.7258 6.04839 15.7258H12.0968V54.4355C12.0968 55.1047 12.6372 55.6452 13.3065 55.6452H46.0936C48.5153 57.1691 51.3699 58.0645 54.4355 58.0645C63.1064 58.0645 70.1613 51.0096 70.1613 42.3387C70.1613 36.7865 67.2605 31.9076 62.9032 29.1085V15.7258H68.9516C70.9522 15.7258 72.5807 17.3543 72.5807 19.3548V56.8548Z" fill="white"/>
<path d="M54.4355 50.8064V53.2258H56.8548V50.6346C58.9369 50.0941 60.4839 48.2164 60.4839 45.9677C60.4839 44.5147 59.8282 43.2265 58.8123 42.3387C59.8282 41.4509 60.4839 40.1627 60.4839 38.7097C60.4839 36.461 58.9369 34.5833 56.8548 34.0428V31.4516H54.4355V33.871H53.2258V31.4516H50.8064V33.871H49.5968C48.9275 33.871 48.3871 34.4114 48.3871 35.0806V49.5968C48.3871 50.266 48.9275 50.8064 49.5968 50.8064H50.8064V53.2258H53.2258V50.8064H54.4355ZM58.0645 45.9677C58.0645 47.302 56.9795 48.3871 55.6452 48.3871H50.8064V43.5484H55.6452C56.9795 43.5484 58.0645 44.6334 58.0645 45.9677ZM50.8064 36.2903H55.6452C56.9795 36.2903 58.0645 37.3754 58.0645 38.7097C58.0645 40.044 56.9795 41.129 55.6452 41.129H50.8064V36.2903Z" fill="white"/>
<path d="M43.5483 41.129H45.9677V43.5484H43.5483V41.129Z" fill="white"/>
<path d="M62.9032 41.129H65.3226V43.5484H62.9032V41.129Z" fill="white"/>
<path d="M20.5645 12.0967C22.565 12.0967 24.1935 10.4683 24.1935 8.46772C24.1935 6.46714 22.565 4.83868 20.5645 4.83868C18.5639 4.83868 16.9354 6.46714 16.9354 8.46772C16.9354 10.4683 18.5639 12.0967 20.5645 12.0967ZM20.5645 7.25804C21.2319 7.25804 21.7741 7.80027 21.7741 8.46772C21.7741 9.13516 21.2319 9.67739 20.5645 9.67739C19.897 9.67739 19.3548 9.13516 19.3548 8.46772C19.3548 7.80027 19.897 7.25804 20.5645 7.25804Z" fill="white"/>
<path d="M30.2419 12.0967C32.2425 12.0967 33.871 10.4683 33.871 8.46772C33.871 6.46714 32.2425 4.83868 30.2419 4.83868C28.2414 4.83868 26.6129 6.46714 26.6129 8.46772C26.6129 10.4683 28.2414 12.0967 30.2419 12.0967ZM30.2419 7.25804C30.9094 7.25804 31.4516 7.80027 31.4516 8.46772C31.4516 9.13516 30.9094 9.67739 30.2419 9.67739C29.5745 9.67739 29.0323 9.13516 29.0323 8.46772C29.0323 7.80027 29.5745 7.25804 30.2419 7.25804Z" fill="white"/>
<path d="M39.9193 12.0967C41.9199 12.0967 43.5483 10.4683 43.5483 8.46772C43.5483 6.46714 41.9199 4.83868 39.9193 4.83868C37.9187 4.83868 36.2903 6.46714 36.2903 8.46772C36.2903 10.4683 37.9187 12.0967 39.9193 12.0967ZM39.9193 7.25804C40.5868 7.25804 41.129 7.80027 41.129 8.46772C41.129 9.13516 40.5868 9.67739 39.9193 9.67739C39.2519 9.67739 38.7096 9.13516 38.7096 8.46772C38.7096 7.80027 39.2519 7.25804 39.9193 7.25804Z" fill="white"/>
<path d="M16.9354 15.7258H29.0322V18.1452H16.9354V15.7258Z" fill="white"/>
<path d="M31.4517 15.7258H38.7097V18.1452H31.4517V15.7258Z" fill="white"/>
<path d="M41.129 15.7258H43.5484V18.1452H41.129V15.7258Z" fill="white"/>
<path d="M45.9678 15.7258H48.3871V18.1452H45.9678V15.7258Z" fill="white"/>
<path d="M16.9354 20.5645H24.1935V22.9839H16.9354V20.5645Z" fill="white"/>
<path d="M26.6129 20.5645H36.2903V22.9839H26.6129V20.5645Z" fill="white"/>
<path d="M41.129 20.5645H48.3871V22.9839H41.129V20.5645Z" fill="white"/>
<path d="M16.9354 25.4032H29.0322V27.8226H16.9354V25.4032Z" fill="white"/>
<path d="M31.4517 25.4032H38.7097V27.8226H31.4517V25.4032Z" fill="white"/>
<path d="M41.129 25.4032H43.5484V27.8226H41.129V25.4032Z" fill="white"/>
<path d="M45.9678 25.4032H48.3871V27.8226H45.9678V25.4032Z" fill="white"/>
<path d="M16.9354 30.2419H24.1935V32.6613H16.9354V30.2419Z" fill="white"/>
<path d="M26.6129 30.2419H36.2903V32.6613H26.6129V30.2419Z" fill="white"/>
<path d="M16.9354 35.0806H29.0322V37.5H16.9354V35.0806Z" fill="white"/>
<path d="M31.4517 35.0806H38.7097V37.5H31.4517V35.0806Z" fill="white"/>
<path d="M16.9354 39.9194H24.1935V42.3387H16.9354V39.9194Z" fill="white"/>
<path d="M26.6129 39.9194H36.2903V42.3387H26.6129V39.9194Z" fill="white"/>
</svg>
