<svg width="75" height="77" viewBox="0 0 75 77" fill="none" xmlns="http://www.w3.org/2000/svg">
<g clip-path="url(#clip0)">
<path d="M71.371 37.2852C73.3715 37.2852 75 35.6469 75 33.6343C75 31.6216 73.3715 29.9833 71.371 29.9833C69.7963 29.9833 68.4655 31.0042 67.9646 32.4173H55.8726C55.5967 31.5776 55.2583 30.7683 54.8773 29.9833H60.4839C60.8058 29.9833 61.1129 29.8556 61.3392 29.6268L65.8235 25.1154H67.9646C68.4655 26.5285 69.7963 27.5494 71.371 27.5494C73.3715 27.5494 75 25.9111 75 23.8984C75 21.8858 73.3715 20.2475 71.371 20.2475C69.7963 20.2475 68.4655 21.2684 67.9646 22.6815H65.3226C65.0007 22.6815 64.6935 22.8092 64.4673 23.038L59.983 27.5494H53.4892C51.1124 24.0482 47.6263 21.3718 43.5484 20.0175V17.4398L52.442 14.0848C52.9128 13.9071 53.2258 13.4531 53.2258 12.9456V7.85372C54.6304 7.34981 55.6452 6.01102 55.6452 4.42681C55.6452 2.41416 54.0167 0.775879 52.0161 0.775879C50.0156 0.775879 48.3871 2.41416 48.3871 4.42681C48.3871 6.01102 49.4019 7.34981 50.8065 7.85372V12.1024L43.5484 14.8406V12.7216C44.953 12.2177 45.9677 10.8789 45.9677 9.29472C45.9677 7.28207 44.3393 5.64379 42.3387 5.64379C40.3381 5.64379 38.7097 7.28207 38.7097 9.29472C38.7097 10.8789 39.7244 12.2177 41.129 12.7216V19.3859C39.9518 19.1595 38.741 19.0305 37.5 19.0305C36.259 19.0305 35.0482 19.1595 33.871 19.3859V7.85372C35.2756 7.34981 36.2903 6.01102 36.2903 4.42681C36.2903 2.41416 34.6619 0.775879 32.6613 0.775879C30.6607 0.775879 29.0323 2.41416 29.0323 4.42681C29.0323 6.01102 30.047 7.34981 31.4516 7.85372V20.0187C30.617 20.2962 29.8125 20.6367 29.0323 21.02V15.3796C29.0323 15.0557 28.9053 14.7468 28.6779 14.5192L24.1936 10.0078V7.85372C25.5981 7.34981 26.6129 6.01102 26.6129 4.42681C26.6129 2.41416 24.9844 0.775879 22.9839 0.775879C20.9833 0.775879 19.3548 2.41416 19.3548 4.42681C19.3548 6.01102 20.3696 7.34981 21.7742 7.85372V10.5117C21.7742 10.8355 21.9012 11.1445 22.1286 11.3721L26.6129 15.8835V22.4164C23.1327 24.8076 20.4724 28.3147 19.1263 32.4173H16.564L13.2291 23.47C13.0525 22.9964 12.6012 22.6815 12.0968 22.6815H7.03538C6.5345 21.2684 5.20374 20.2475 3.62903 20.2475C1.62846 20.2475 0 21.8858 0 23.8984C0 25.9111 1.62846 27.5494 3.62903 27.5494C5.20374 27.5494 6.5345 26.5285 7.03538 25.1154H11.2586L13.9804 32.4173H11.8741C11.3732 31.0042 10.0424 29.9833 8.46774 29.9833C6.46717 29.9833 4.83871 31.6216 4.83871 33.6343C4.83871 35.6469 6.46717 37.2852 8.46774 37.2852C10.0424 37.2852 11.3732 36.2643 11.8741 34.8512H18.4984C18.2733 36.0355 18.1452 37.2537 18.1452 38.5022C18.1452 39.7506 18.2733 40.9688 18.4984 42.1531H7.03538C6.5345 40.74 5.20374 39.7191 3.62903 39.7191C1.62846 39.7191 0 41.3574 0 43.3701C0 45.3827 1.62846 47.021 3.62903 47.021C5.20374 47.021 6.5345 46.0001 7.03538 44.5871H19.1274C19.4033 45.4267 19.7417 46.236 20.1245 47.021H14.5161C14.1942 47.021 13.8871 47.1488 13.6608 47.3775L9.17654 51.8889H7.03538C6.5345 50.4758 5.20374 49.455 3.62903 49.455C1.62846 49.455 0 51.0932 0 53.1059C0 55.1185 1.62846 56.7568 3.62903 56.7568C5.20374 56.7568 6.5345 55.7359 7.03538 54.3229H9.67742C9.99933 54.3229 10.3065 54.1951 10.5327 53.9663L15.017 49.455H21.5108C23.8876 52.9561 27.3737 55.6325 31.4516 56.9868V59.5645L22.558 62.9195C22.0872 63.0972 21.7742 63.5512 21.7742 64.0587V69.1506C20.3696 69.6545 19.3548 70.9933 19.3548 72.5775C19.3548 74.5902 20.9833 76.2285 22.9839 76.2285C24.9844 76.2285 26.6129 74.5902 26.6129 72.5775C26.6129 70.9933 25.5981 69.6545 24.1936 69.1506V64.9019L31.4516 62.1637V64.2827C30.047 64.7866 29.0323 66.1254 29.0323 67.7096C29.0323 69.7223 30.6607 71.3605 32.6613 71.3605C34.6619 71.3605 36.2903 69.7223 36.2903 67.7096C36.2903 66.1254 35.2756 64.7866 33.871 64.2827V57.6185C35.0482 57.8449 36.259 57.9738 37.5 57.9738C38.741 57.9738 39.9518 57.8449 41.129 57.6185V69.1506C39.7244 69.6545 38.7097 70.9933 38.7097 72.5775C38.7097 74.5902 40.3381 76.2285 42.3387 76.2285C44.3393 76.2285 45.9677 74.5902 45.9677 72.5775C45.9677 70.9933 44.953 69.6545 43.5484 69.1506V56.9856C44.383 56.7081 45.1875 56.3676 45.9677 55.9843V61.6247C45.9677 61.9486 46.0947 62.2576 46.3221 62.4852L50.8065 66.9965V69.1506C49.4019 69.6545 48.3871 70.9933 48.3871 72.5775C48.3871 74.5902 50.0156 76.2285 52.0161 76.2285C54.0167 76.2285 55.6452 74.5902 55.6452 72.5775C55.6452 70.9933 54.6304 69.6545 53.2258 69.1506V66.4926C53.2258 66.1688 53.0988 65.8598 52.8714 65.6322L48.3871 61.1208V54.5879C51.8673 52.1967 54.5276 48.6896 55.8737 44.5871H58.436L61.7709 53.5343C61.9475 54.0079 62.3988 54.3229 62.9032 54.3229H67.9646C68.4655 55.7359 69.7963 56.7568 71.371 56.7568C73.3715 56.7568 75 55.1185 75 53.1059C75 51.0932 73.3715 49.455 71.371 49.455C69.7963 49.455 68.4655 50.4758 67.9646 51.8889H63.7414L61.0196 44.5871H63.1259C63.6268 46.0001 64.9576 47.021 66.5323 47.021C68.5328 47.021 70.1613 45.3827 70.1613 43.3701C70.1613 41.3574 68.5328 39.7191 66.5323 39.7191C64.9576 39.7191 63.6268 40.74 63.1259 42.1531H56.5016C56.7267 40.9688 56.8548 39.7506 56.8548 38.5022C56.8548 37.2537 56.7267 36.0355 56.5016 34.8512H67.9646C68.4655 36.2643 69.7963 37.2852 71.371 37.2852ZM71.371 22.6815C72.0384 22.6815 72.5807 23.227 72.5807 23.8984C72.5807 24.5699 72.0384 25.1154 71.371 25.1154C70.7035 25.1154 70.1613 24.5699 70.1613 23.8984C70.1613 23.227 70.7035 22.6815 71.371 22.6815ZM52.0161 3.20983C52.6836 3.20983 53.2258 3.75533 53.2258 4.42681C53.2258 5.09829 52.6836 5.64379 52.0161 5.64379C51.3487 5.64379 50.8065 5.09829 50.8065 4.42681C50.8065 3.75533 51.3487 3.20983 52.0161 3.20983ZM42.3387 8.07774C43.0062 8.07774 43.5484 8.62324 43.5484 9.29472C43.5484 9.96619 43.0062 10.5117 42.3387 10.5117C41.6713 10.5117 41.129 9.96619 41.129 9.29472C41.129 8.62324 41.6713 8.07774 42.3387 8.07774ZM32.6613 3.20983C33.3287 3.20983 33.871 3.75533 33.871 4.42681C33.871 5.09829 33.3287 5.64379 32.6613 5.64379C31.9938 5.64379 31.4516 5.09829 31.4516 4.42681C31.4516 3.75533 31.9938 3.20983 32.6613 3.20983ZM22.9839 3.20983C23.6513 3.20983 24.1936 3.75533 24.1936 4.42681C24.1936 5.09829 23.6513 5.64379 22.9839 5.64379C22.3164 5.64379 21.7742 5.09829 21.7742 4.42681C21.7742 3.75533 22.3164 3.20983 22.9839 3.20983ZM3.62903 25.1154C2.96158 25.1154 2.41935 24.5699 2.41935 23.8984C2.41935 23.227 2.96158 22.6815 3.62903 22.6815C4.29648 22.6815 4.83871 23.227 4.83871 23.8984C4.83871 24.5699 4.29648 25.1154 3.62903 25.1154ZM8.46774 34.8512C7.80029 34.8512 7.25806 34.3057 7.25806 33.6343C7.25806 32.9628 7.80029 32.4173 8.46774 32.4173C9.13519 32.4173 9.67742 32.9628 9.67742 33.6343C9.67742 34.3057 9.13519 34.8512 8.46774 34.8512ZM3.62903 44.5871C2.96158 44.5871 2.41935 44.0415 2.41935 43.3701C2.41935 42.6986 2.96158 42.1531 3.62903 42.1531C4.29648 42.1531 4.83871 42.6986 4.83871 43.3701C4.83871 44.0415 4.29648 44.5871 3.62903 44.5871ZM3.62903 54.3229C2.96158 54.3229 2.41935 53.7774 2.41935 53.1059C2.41935 52.4344 2.96158 51.8889 3.62903 51.8889C4.29648 51.8889 4.83871 52.4344 4.83871 53.1059C4.83871 53.7774 4.29648 54.3229 3.62903 54.3229ZM22.9839 73.7945C22.3164 73.7945 21.7742 73.249 21.7742 72.5775C21.7742 71.906 22.3164 71.3605 22.9839 71.3605C23.6513 71.3605 24.1936 71.906 24.1936 72.5775C24.1936 73.249 23.6513 73.7945 22.9839 73.7945ZM32.6613 68.9266C31.9938 68.9266 31.4516 68.3811 31.4516 67.7096C31.4516 67.0381 31.9938 66.4926 32.6613 66.4926C33.3287 66.4926 33.871 67.0381 33.871 67.7096C33.871 68.3811 33.3287 68.9266 32.6613 68.9266ZM42.3387 73.7945C41.6713 73.7945 41.129 73.249 41.129 72.5775C41.129 71.906 41.6713 71.3605 42.3387 71.3605C43.0062 71.3605 43.5484 71.906 43.5484 72.5775C43.5484 73.249 43.0062 73.7945 42.3387 73.7945ZM52.0161 73.7945C51.3487 73.7945 50.8065 73.249 50.8065 72.5775C50.8065 71.906 51.3487 71.3605 52.0161 71.3605C52.6836 71.3605 53.2258 71.906 53.2258 72.5775C53.2258 73.249 52.6836 73.7945 52.0161 73.7945ZM71.371 51.8889C72.0384 51.8889 72.5807 52.4344 72.5807 53.1059C72.5807 53.7774 72.0384 54.3229 71.371 54.3229C70.7035 54.3229 70.1613 53.7774 70.1613 53.1059C70.1613 52.4344 70.7035 51.8889 71.371 51.8889ZM66.5323 42.1531C67.1997 42.1531 67.7419 42.6986 67.7419 43.3701C67.7419 44.0415 67.1997 44.5871 66.5323 44.5871C65.8648 44.5871 65.3226 44.0415 65.3226 43.3701C65.3226 42.6986 65.8648 42.1531 66.5323 42.1531ZM37.5 55.5398C28.161 55.5398 20.5645 47.8975 20.5645 38.5022C20.5645 29.1068 28.161 21.4645 37.5 21.4645C46.839 21.4645 54.4355 29.1068 54.4355 38.5022C54.4355 47.8975 46.839 55.5398 37.5 55.5398ZM71.371 32.4173C72.0384 32.4173 72.5807 32.9628 72.5807 33.6343C72.5807 34.3057 72.0384 34.8512 71.371 34.8512C70.7035 34.8512 70.1613 34.3057 70.1613 33.6343C70.1613 32.9628 70.7035 32.4173 71.371 32.4173Z" fill="white"/>
<path d="M43.5484 34.8513C43.5484 32.5891 42.0015 30.7 39.9194 30.1563V27.5494H37.5V29.9834H36.2904V27.5494H33.871V29.9834H32.6613C31.9921 29.9834 31.4517 30.5271 31.4517 31.2004V45.8041C31.4517 46.4774 31.9921 47.0211 32.6613 47.0211H33.871V49.455H36.2904V47.0211H37.5V49.455H39.9194V46.8482C42.0015 46.3044 43.5484 44.4154 43.5484 42.1532C43.5484 40.6914 42.8928 39.3954 41.8769 38.5022C42.8928 37.6091 43.5484 36.3131 43.5484 34.8513ZM41.1291 42.1532C41.1291 43.4955 40.044 44.5871 38.7097 44.5871H33.871V39.7192H38.7097C40.044 39.7192 41.1291 40.8108 41.1291 42.1532ZM33.871 37.2853V32.4173H38.7097C40.044 32.4173 41.1291 33.5089 41.1291 34.8513C41.1291 36.1937 40.044 37.2853 38.7097 37.2853H33.871Z" fill="white"/>
<path d="M37.5 23.8984C29.4954 23.8984 22.9839 30.4492 22.9839 38.5022C22.9839 46.5551 29.4954 53.1059 37.5 53.1059C45.5047 53.1059 52.0161 46.5551 52.0161 38.5022C52.0161 30.4492 45.5047 23.8984 37.5 23.8984ZM37.5 50.6719C30.8297 50.6719 25.4032 45.2128 25.4032 38.5022C25.4032 31.7916 30.8297 26.3324 37.5 26.3324C44.1704 26.3324 49.5968 31.7916 49.5968 38.5022C49.5968 45.2128 44.1704 50.6719 37.5 50.6719Z" fill="white"/>
</g>
<defs>
<clipPath id="clip0">
<rect width="75" height="75.4526" fill="white" transform="translate(0 0.775879)"/>
</clipPath>
</defs>
</svg>
