<svg width="75" height="75" viewBox="0 0 75 75" fill="none" xmlns="http://www.w3.org/2000/svg">
<path d="M43.5484 37.5C43.5484 40.8349 40.8349 43.5484 37.5 43.5484V45.9677C42.1692 45.9677 45.9677 42.1692 45.9677 37.5H43.5484Z" fill="white"/>
<path d="M8.46771 9.67745V12.0968C10.4683 12.0968 12.0967 10.4683 12.0967 8.46777H9.67739C9.67739 9.13404 9.13398 9.67745 8.46771 9.67745Z" fill="white"/>
<path d="M70.1613 8.46777H67.7419C67.7419 9.13404 67.1985 9.67745 66.5322 9.67745V12.0968C68.5328 12.0968 70.1613 10.4683 70.1613 8.46777Z" fill="white"/>
<path d="M8.46771 67.7419V70.1613C10.4683 70.1613 12.0967 68.5328 12.0967 66.5322H9.67739C9.67739 67.1985 9.13398 67.7419 8.46771 67.7419Z" fill="white"/>
<path d="M66.5323 58.0645C65.5937 58.0645 64.6923 58.224 63.8477 58.5087L49.1904 43.8508C50.2199 41.9625 50.8065 39.7983 50.8065 37.5C50.8065 35.2017 50.2199 33.0375 49.1904 31.1492L63.8477 16.4913C64.6923 16.776 65.5937 16.9355 66.5323 16.9355C71.2014 16.9355 75 13.1369 75 8.46774C75 3.79855 71.2014 0 66.5323 0C61.8631 0 58.0645 3.79855 58.0645 8.46774C58.0645 9.40631 58.224 10.3077 58.5087 11.1523L43.8508 25.8096C41.9625 24.7801 39.7983 24.1936 37.5 24.1936C35.2017 24.1936 33.0375 24.7801 31.1492 25.8096L16.4913 11.1523C16.776 10.3077 16.9355 9.40631 16.9355 8.46774C16.9355 3.79855 13.1369 0 8.46774 0C3.79855 0 0 3.79855 0 8.46774C0 13.1369 3.79855 16.9355 8.46774 16.9355C9.40631 16.9355 10.3077 16.776 11.1523 16.4913L25.8096 31.1492C24.7801 33.0375 24.1936 35.2017 24.1936 37.5C24.1936 39.7983 24.7801 41.9625 25.8096 43.8508L11.1523 58.5087C10.3077 58.224 9.40631 58.0645 8.46774 58.0645C3.79855 58.0645 0 61.8631 0 66.5323C0 71.2014 3.79855 75 8.46774 75C13.1369 75 16.9355 71.2014 16.9355 66.5323C16.9355 65.5937 16.776 64.6923 16.4913 63.8477L31.1492 49.1904C33.0375 50.2199 35.2017 50.8065 37.5 50.8065C39.7983 50.8065 41.9625 50.2199 43.8508 49.1904L58.5087 63.8477C58.224 64.6923 58.0645 65.5937 58.0645 66.5323C58.0645 71.2014 61.8631 75 66.5323 75C71.2014 75 75 71.2014 75 66.5323C75 61.8631 71.2014 58.0645 66.5323 58.0645ZM66.5323 2.41935C69.8671 2.41935 72.5807 5.13286 72.5807 8.46774C72.5807 11.8026 69.8671 14.5161 66.5323 14.5161C63.1974 14.5161 60.4839 11.8026 60.4839 8.46774C60.4839 5.13286 63.1974 2.41935 66.5323 2.41935ZM59.6711 13.4104C60.2045 14.1481 60.8519 14.7955 61.5896 15.3289L47.8124 29.1061C47.2388 28.4032 46.5968 27.7612 45.8939 27.1876L59.6711 13.4104ZM2.41935 8.46774C2.41935 5.13286 5.13286 2.41935 8.46774 2.41935C11.8026 2.41935 14.5161 5.13286 14.5161 8.46774C14.5161 11.8026 11.8026 14.5161 8.46774 14.5161C5.13286 14.5161 2.41935 11.8026 2.41935 8.46774ZM13.4104 15.3289C14.1481 14.7955 14.7955 14.1481 15.3289 13.4104L29.1061 27.1876C28.4032 27.7612 27.7612 28.4032 27.1876 29.1061L13.4104 15.3289ZM8.46774 72.5807C5.13286 72.5807 2.41935 69.8671 2.41935 66.5323C2.41935 63.1974 5.13286 60.4839 8.46774 60.4839C11.8026 60.4839 14.5161 63.1974 14.5161 66.5323C14.5161 69.8671 11.8026 72.5807 8.46774 72.5807ZM15.3289 61.5896C14.7955 60.8519 14.1481 60.2045 13.4104 59.6711L27.1876 45.8939C27.7612 46.5968 28.4032 47.2388 29.1061 47.8124L15.3289 61.5896ZM26.6129 37.5C26.6129 31.4977 31.4977 26.6129 37.5 26.6129C43.5023 26.6129 48.3871 31.4977 48.3871 37.5C48.3871 43.5023 43.5023 48.3871 37.5 48.3871C31.4977 48.3871 26.6129 43.5023 26.6129 37.5ZM45.8939 47.8124C46.5968 47.2388 47.2388 46.5968 47.8124 45.8939L61.5896 59.6711C60.8519 60.2045 60.2045 60.8519 59.6711 61.5896L45.8939 47.8124ZM66.5323 72.5807C63.1974 72.5807 60.4839 69.8671 60.4839 66.5323C60.4839 63.1974 63.1974 60.4839 66.5323 60.4839C69.8671 60.4839 72.5807 63.1974 72.5807 66.5323C72.5807 69.8671 69.8671 72.5807 66.5323 72.5807Z" fill="white"/>
<path d="M66.5322 67.7419V70.1613C68.5328 70.1613 70.1613 68.5328 70.1613 66.5322H67.7419C67.7419 67.1985 67.1985 67.7419 66.5322 67.7419Z" fill="white"/>
</svg>
