<svg width="75" height="75" viewBox="0 0 75 75" fill="none" xmlns="http://www.w3.org/2000/svg">
<path d="M66.5358 51.0882C68.7437 49.3127 70.1613 46.5944 70.1613 43.5484V41.129C70.1613 35.793 65.8199 31.4516 60.4839 31.4516C55.1478 31.4516 50.8065 35.793 50.8065 41.129V43.5484C50.8065 46.5944 52.224 49.3115 54.4308 51.087C51.0894 51.8501 48.2772 54.1514 46.8898 57.3108C45.8756 56.6759 44.7533 56.2004 43.5531 55.9269C45.7598 54.1514 47.1774 51.4331 47.1774 48.3871V45.9677C47.1774 40.6317 42.836 36.2903 37.5 36.2903C32.164 36.2903 27.8226 40.6317 27.8226 45.9677V48.3871C27.8226 51.4331 29.2402 54.1514 31.4481 55.9269C30.2478 56.2015 29.1256 56.6759 28.1114 57.3108C26.7239 54.1514 23.9118 51.8501 20.5704 51.087C22.776 49.3115 24.1936 46.5944 24.1936 43.5484V41.129C24.1936 35.793 19.8522 31.4516 14.5161 31.4516C9.18008 31.4516 4.83871 35.793 4.83871 41.129V43.5484C4.83871 46.5944 6.2563 49.3127 8.4642 51.0882C3.62549 52.1939 0 56.5246 0 61.6935V68.9516C0 69.619 0.542229 70.1613 1.20968 70.1613H22.9839V73.7903C22.9839 74.4578 23.5261 75 24.1936 75H50.8065C51.4739 75 52.0161 74.4578 52.0161 73.7903V70.1613H73.7903C74.4578 70.1613 75 69.619 75 68.9516V61.6935C75 56.5246 71.3745 52.1939 66.5358 51.0882ZM64.9753 58.1395L61.107 55.8182C60.7237 55.5884 60.2458 55.5884 59.8619 55.8182L55.9937 58.1395L56.693 53.2406C56.7473 53.2376 56.7993 53.2258 56.8548 53.2258H64.1129C64.1672 53.2258 64.2204 53.2329 64.2747 53.2341L64.9753 58.1395ZM67.7419 41.129C65.0733 41.129 62.9032 38.9589 62.9032 36.2903V34.2945C65.7183 35.2933 67.7419 37.9755 67.7419 41.129ZM60.4839 33.871V36.2903C60.4839 38.9589 58.3138 41.129 55.6452 41.129H53.2258C53.2258 37.1261 56.4809 33.871 60.4839 33.871ZM53.2258 43.5484H55.6452C58.1685 43.5484 60.3917 42.253 61.6936 40.2944C62.9954 42.2542 65.2186 43.5484 67.7419 43.5484C67.7419 47.5513 64.4868 50.8064 60.4839 50.8064C56.4809 50.8064 53.2258 47.5513 53.2258 43.5484ZM41.9914 62.9782L38.1231 60.6569C37.7398 60.4272 37.262 60.4272 36.878 60.6569L33.0098 62.9782L33.7103 58.0728C33.7635 58.0716 33.8166 58.0645 33.871 58.0645H41.129C41.1834 58.0645 41.2365 58.0716 41.2909 58.0728L41.9914 62.9782ZM44.7581 45.9677C42.0895 45.9677 39.9194 43.7976 39.9194 41.129V39.1332C42.7345 40.132 44.7581 42.8142 44.7581 45.9677ZM37.5 38.7097V41.129C37.5 43.7976 35.3299 45.9677 32.6613 45.9677H30.2419C30.2419 41.9648 33.4971 38.7097 37.5 38.7097ZM30.2419 48.3871H32.6613C35.1846 48.3871 37.4079 47.0918 38.7097 45.1331C40.0115 47.0929 42.2348 48.3871 44.7581 48.3871C44.7581 52.39 41.5029 55.6451 37.5 55.6451C33.4971 55.6451 30.2419 52.39 30.2419 48.3871ZM19.0075 58.1395L15.1393 55.8182C14.7559 55.5884 14.2781 55.5884 13.8942 55.8182L10.0259 58.1395L10.7264 53.2341C10.7796 53.2329 10.8328 53.2258 10.8871 53.2258H18.1452C18.2007 53.2258 18.2527 53.2376 18.307 53.2394L19.0075 58.1395ZM21.7742 41.129C19.1056 41.129 16.9355 38.9589 16.9355 36.2903V34.2945C19.7506 35.2933 21.7742 37.9755 21.7742 41.129ZM14.5161 33.871V36.2903C14.5161 38.9589 12.346 41.129 9.67742 41.129H7.25806C7.25806 37.1261 10.5132 33.871 14.5161 33.871ZM7.25806 43.5484H9.67742C12.2007 43.5484 14.424 42.253 15.7258 40.2944C17.0276 42.2542 19.2509 43.5484 21.7742 43.5484C21.7742 47.5513 18.5191 50.8064 14.5161 50.8064C10.5132 50.8064 7.25806 47.5513 7.25806 43.5484ZM2.41935 61.6935C2.41935 57.957 4.85584 54.784 8.22085 53.6623L7.26988 60.312C7.20372 60.7745 7.40927 61.2328 7.79852 61.4915C8.18836 61.7491 8.69042 61.7615 9.09089 61.5205L13.3065 58.9913V67.7419H2.41935V61.6935ZM15.7258 67.7419V58.9913L19.9414 61.5205C20.1339 61.6368 20.3489 61.6935 20.5645 61.6935C20.7978 61.6935 21.0317 61.6256 21.2337 61.4915C21.6218 61.234 21.8274 60.7745 21.7624 60.312L20.8126 53.6635C23.268 54.4792 25.2373 56.4 26.1132 58.9062C24.18 60.8731 22.9839 63.5648 22.9839 66.5322V67.7419H15.7258ZM25.4032 66.5322C25.4032 62.7957 27.8397 59.6227 31.2047 58.501L30.2555 65.1507C30.1888 65.6132 30.3943 66.0715 30.7842 66.3302C31.1734 66.5889 31.6755 66.6002 32.0759 66.3592L36.2903 63.83V72.5806H25.4032V66.5322ZM49.5968 72.5806H38.7097V63.83L42.9252 66.3592C43.1178 66.4755 43.3328 66.5322 43.5484 66.5322C43.7817 66.5322 44.0156 66.4643 44.2176 66.3302C44.6057 66.0727 44.8112 65.6132 44.7463 65.1507L43.7965 58.501C47.1603 59.6227 49.5968 62.7957 49.5968 66.5322V72.5806ZM48.8868 58.9074C49.7628 56.4 51.732 54.4804 54.1874 53.6647L53.2376 60.3132C53.1715 60.7756 53.377 61.234 53.7663 61.4927C54.1561 61.7514 54.6582 61.7626 55.0586 61.5217L59.2742 58.9913V67.7419H52.0161V66.5322C52.0161 63.5648 50.82 60.8731 48.8868 58.9074ZM72.5807 67.7419H61.6936V58.9913L65.9091 61.5205C66.1017 61.6368 66.3167 61.6935 66.5323 61.6935C66.7656 61.6935 66.9995 61.6256 67.2015 61.4915C67.5895 61.234 67.7951 60.7745 67.7301 60.312L66.7803 53.6623C70.1442 54.784 72.5807 57.957 72.5807 61.6935V67.7419Z" fill="white"/>
<path d="M37.5 21.7742C36.1657 21.7742 35.0807 20.6891 35.0807 19.3548H32.6613C32.6613 21.6023 34.2094 23.4812 36.2903 24.0216V26.6129H38.7097V24.0216C40.7906 23.4812 42.3387 21.6023 42.3387 19.3548C42.3387 16.6862 40.1686 14.5161 37.5 14.5161C36.1657 14.5161 35.0807 13.4311 35.0807 12.0967C35.0807 10.7624 36.1657 9.67739 37.5 9.67739C38.8343 9.67739 39.9194 10.7624 39.9194 12.0967H42.3387C42.3387 9.84928 40.7906 7.97038 38.7097 7.42992V4.83868H36.2903V7.42992C34.2094 7.97038 32.6613 9.84928 32.6613 12.0967C32.6613 14.7654 34.8314 16.9355 37.5 16.9355C38.8343 16.9355 39.9194 18.0205 39.9194 19.3548C39.9194 20.6891 38.8343 21.7742 37.5 21.7742Z" fill="white"/>
<path d="M44.7581 14.5161H47.1774V16.9355H44.7581V14.5161Z" fill="white"/>
<path d="M27.8226 14.5161H30.2419V16.9355H27.8226V14.5161Z" fill="white"/>
<path d="M6.0484 12.0968C7.62311 12.0968 8.95387 11.082 9.45476 9.67742H22.9874C22.3572 11.186 21.9668 12.8138 21.8356 14.5161H16.7128C16.2119 13.1115 14.8812 12.0968 13.3065 12.0968C11.3059 12.0968 9.67744 13.7252 9.67744 15.7258C9.67744 17.7264 11.3059 19.3548 13.3065 19.3548C14.8812 19.3548 16.2119 18.3401 16.7128 16.9355H21.8356C22.4564 25.0417 29.2366 31.4516 37.5 31.4516C43.0522 31.4516 47.9311 28.5509 50.7303 24.1936H65.5453C66.0462 25.5981 67.3769 26.6129 68.9516 26.6129C70.9522 26.6129 72.5807 24.9844 72.5807 22.9839C72.5807 20.9833 70.9522 19.3548 68.9516 19.3548C67.3769 19.3548 66.0462 20.3696 65.5453 21.7742H52.0126C52.6428 20.2656 53.0333 18.6378 53.1644 16.9355H58.2872C58.7881 18.3401 60.1189 19.3548 61.6936 19.3548C63.6941 19.3548 65.3226 17.7264 65.3226 15.7258C65.3226 13.7252 63.6941 12.0968 61.6936 12.0968C60.1189 12.0968 58.7881 13.1115 58.2872 14.5161H53.1644C52.5436 6.40987 45.7634 0 37.5 0C31.9478 0 27.0689 2.90075 24.2698 7.25806H9.45476C8.95387 5.85347 7.62311 4.83871 6.0484 4.83871C4.04783 4.83871 2.41937 6.46717 2.41937 8.46774C2.41937 10.4683 4.04783 12.0968 6.0484 12.0968ZM68.9516 21.7742C69.6179 21.7742 70.1613 22.3176 70.1613 22.9839C70.1613 23.6501 69.6179 24.1936 68.9516 24.1936C68.2854 24.1936 67.742 23.6501 67.742 22.9839C67.742 22.3176 68.2854 21.7742 68.9516 21.7742ZM13.3065 16.9355C12.6402 16.9355 12.0968 16.3921 12.0968 15.7258C12.0968 15.0595 12.6402 14.5161 13.3065 14.5161C13.9727 14.5161 14.5161 15.0595 14.5161 15.7258C14.5161 16.3921 13.9727 16.9355 13.3065 16.9355ZM61.6936 14.5161C62.3598 14.5161 62.9032 15.0595 62.9032 15.7258C62.9032 16.3921 62.3598 16.9355 61.6936 16.9355C61.0273 16.9355 60.4839 16.3921 60.4839 15.7258C60.4839 15.0595 61.0273 14.5161 61.6936 14.5161ZM37.5 2.41935C44.8366 2.41935 50.8065 8.38918 50.8065 15.7258C50.8065 23.0624 44.8366 29.0323 37.5 29.0323C30.1634 29.0323 24.1936 23.0624 24.1936 15.7258C24.1936 8.38918 30.1634 2.41935 37.5 2.41935ZM6.0484 7.25806C6.71467 7.25806 7.25808 7.80147 7.25808 8.46774C7.25808 9.13401 6.71467 9.67742 6.0484 9.67742C5.38214 9.67742 4.83873 9.13401 4.83873 8.46774C4.83873 7.80147 5.38214 7.25806 6.0484 7.25806Z" fill="white"/>
</svg>
