<svg width="92" height="92" viewBox="0 0 92 92" fill="none" xmlns="http://www.w3.org/2000/svg">
<g clip-path="url(#clip0)">
<path d="M76.138 47.5862C75.2619 47.5862 74.5518 46.8761 74.5518 46V38.069C74.5518 37.193 75.2619 36.4828 76.138 36.4828C77.014 36.4828 77.7242 37.193 77.7242 38.069V46C77.7242 46.8761 77.014 47.5862 76.138 47.5862Z" fill="#95A5A5"/>
<path d="M85.6551 47.5862C84.779 47.5862 84.0688 46.8761 84.0688 46V38.069C84.0688 37.193 84.779 36.4828 85.6551 36.4828C86.5311 36.4828 87.2413 37.193 87.2413 38.069V46C87.2413 46.8761 86.5311 47.5862 85.6551 47.5862Z" fill="#95A5A5"/>
<path d="M63.4483 14.2759V77.7242C63.4483 81.2281 49.2454 84.069 31.7241 84.069C14.2029 84.069 0 81.2281 0 77.7242V14.2759H63.4483Z" fill="#3F5C6C"/>
<path d="M31.7241 20.6207C49.2449 20.6207 63.4483 17.78 63.4483 14.2759C63.4483 10.7717 49.2449 7.93103 31.7241 7.93103C14.2034 7.93103 0 10.7717 0 14.2759C0 17.78 14.2034 20.6207 31.7241 20.6207Z" fill="#547580"/>
<path d="M44.3681 35.263C43.4921 35.2998 42.7521 34.6195 42.7153 33.7434C42.6785 32.8674 43.3588 32.1274 44.2349 32.0906C48.4374 31.7847 52.6094 31.1482 56.712 30.1872C57.5587 29.9763 58.4169 30.4889 58.6324 31.3345C58.848 32.1802 58.34 33.0411 57.4956 33.2612C53.2243 34.2668 48.8806 34.9345 44.5045 35.2583L44.3681 35.263Z" fill="#35495E"/>
<path d="M44.3681 76.5044C43.4921 76.5412 42.7521 75.8608 42.7153 74.9848C42.6785 74.1087 43.3588 73.3687 44.2349 73.3319C48.4374 73.026 52.6094 72.3896 56.712 71.4285C57.5587 71.2176 58.4169 71.7303 58.6324 72.5759C58.848 73.4215 58.34 74.2824 57.4956 74.5026C53.2243 75.5081 48.8806 76.1759 44.5045 76.4996L44.3681 76.5044Z" fill="#35495E"/>
<path d="M6.34451 25.3793C7.22054 25.3793 7.93071 24.6692 7.93071 23.7931C7.93071 22.9171 7.22054 22.2069 6.34451 22.2069C5.46847 22.2069 4.7583 22.9171 4.7583 23.7931C4.7583 24.6692 5.46847 25.3793 6.34451 25.3793Z" fill="#FF5364"/>
<path d="M6.34451 34.8966C5.46847 34.8966 4.7583 34.1864 4.7583 33.3104V30.138C4.7583 29.2619 5.46847 28.5518 6.34451 28.5518C7.22054 28.5518 7.93071 29.2619 7.93071 30.138V33.3104C7.93071 34.1864 7.22054 34.8966 6.34451 34.8966Z" fill="#35495E"/>
<path d="M6.34451 66.6207C7.22054 66.6207 7.93071 65.9105 7.93071 65.0344C7.93071 64.1584 7.22054 63.4482 6.34451 63.4482C5.46847 63.4482 4.7583 64.1584 4.7583 65.0344C4.7583 65.9105 5.46847 66.6207 6.34451 66.6207Z" fill="#FF5364"/>
<path d="M6.34451 76.1379C5.46847 76.1379 4.7583 75.4278 4.7583 74.5517V71.3793C4.7583 70.5033 5.46847 69.7931 6.34451 69.7931C7.22054 69.7931 7.93071 70.5033 7.93071 71.3793V74.5517C7.93071 75.4278 7.22054 76.1379 6.34451 76.1379Z" fill="#35495E"/>
<path d="M79.3103 0H82.4828C83.3588 0 84.069 0.710169 84.069 1.58621V19.0345H77.7241V1.58621C77.7241 0.710169 78.4343 0 79.3103 0Z" fill="#F29C1F"/>
<path d="M92.0004 26.9656V36.4828C92.0004 37.3589 91.2902 38.069 90.4141 38.069H71.3797C70.5036 38.069 69.7935 37.3589 69.7935 36.4828V26.9656C69.7935 22.5854 73.3443 19.0345 77.7245 19.0345H84.0693C88.4495 19.0345 92.0004 22.5854 92.0004 26.9656Z" fill="#F0C419"/>
<path d="M77.7241 72.9656H84.069V90.4139C84.069 91.2899 83.3588 92.0001 82.4828 92.0001H79.3103C78.4343 92.0001 77.7241 91.2899 77.7241 90.4139V72.9656Z" fill="#F29C1F"/>
<path d="M92.0004 55.5172V65.0345C92.0004 69.4147 88.4495 72.9655 84.0693 72.9655H77.7245C73.3443 72.9655 69.7935 69.4147 69.7935 65.0345V55.5172C69.7935 54.6412 70.5036 53.931 71.3797 53.931H90.4141C91.2902 53.931 92.0004 54.6412 92.0004 55.5172Z" fill="#F0C419"/>
<path d="M76.1383 31.7241C76.1383 32.6002 75.4281 33.3104 74.5521 33.3104H69.7935V30.1379H74.5521C75.4281 30.1379 76.1383 30.8481 76.1383 31.7241Z" fill="#F29C1F"/>
<path d="M92.0007 30.1379V33.3104H80.8972C80.0212 33.3104 79.311 32.6002 79.311 31.7241C79.311 30.8481 80.0212 30.1379 80.8972 30.1379H92.0007Z" fill="#F29C1F"/>
<path d="M92.0006 58.6896V61.862H87.242C86.3659 61.862 85.6558 61.1518 85.6558 60.2758C85.6558 59.3997 86.3659 58.6896 87.242 58.6896H92.0006Z" fill="#F29C1F"/>
<path d="M82.4831 60.2758C82.4831 61.1518 81.7729 61.862 80.8969 61.862H69.7935V58.6896H80.8969C81.7729 58.6896 82.4831 59.3997 82.4831 60.2758Z" fill="#F29C1F"/>
<path d="M0 55.5172C0 59.0211 14.2029 61.862 31.7241 61.862C49.2454 61.862 63.4483 59.0211 63.4483 55.5172V34.8965C63.4483 38.4004 49.2454 41.2413 31.7241 41.2413C14.2029 41.2413 0 38.4004 0 34.8965V55.5172Z" fill="#35495E"/>
<path d="M44.3681 55.8836C43.4921 55.9204 42.7521 55.2401 42.7153 54.3641C42.6785 53.488 43.3588 52.748 44.2349 52.7112C48.4374 52.4053 52.6094 51.7689 56.712 50.8078C57.5587 50.5969 58.4169 51.1095 58.6324 51.9552C58.848 52.8008 58.34 53.6617 57.4956 53.8818C53.2243 54.8874 48.8806 55.5552 44.5045 55.8789L44.3681 55.8836Z" fill="#2C3E50"/>
<path d="M6.34451 46C7.22054 46 7.93071 45.2899 7.93071 44.4138C7.93071 43.5378 7.22054 42.8276 6.34451 42.8276C5.46847 42.8276 4.7583 43.5378 4.7583 44.4138C4.7583 45.2899 5.46847 46 6.34451 46Z" fill="#FF5364"/>
<path d="M6.34451 55.5173C5.46847 55.5173 4.7583 54.8072 4.7583 53.9311V50.7587C4.7583 49.8827 5.46847 49.1725 6.34451 49.1725C7.22054 49.1725 7.93071 49.8827 7.93071 50.7587V53.9311C7.93071 54.8072 7.22054 55.5173 6.34451 55.5173Z" fill="#2C3E50"/>
</g>
<defs>
<clipPath id="clip0">
<rect width="92" height="92" fill="white"/>
</clipPath>
</defs>
</svg>
