<svg width="396" height="378" viewBox="0 0 396 378" fill="none" xmlns="http://www.w3.org/2000/svg">
<path d="M170.767 200.835C169.965 200.835 169.029 200.568 168.094 200.033L150.851 189.999C150.45 189.866 150.45 189.331 150.583 189.063C150.717 188.662 151.252 188.662 151.519 188.795L168.762 198.829C169.965 199.498 171.034 199.631 171.836 199.23C172.638 198.829 173.039 197.759 173.039 196.421V192.274C173.039 190.401 173.708 188.929 174.911 188.26C176.114 187.591 177.718 187.725 179.322 188.662L182.931 190.802C183.332 190.936 183.332 191.471 183.198 191.739C183.064 192.14 182.53 192.14 182.262 192.006L178.653 189.866C177.45 189.197 176.381 189.063 175.579 189.464C174.777 189.866 174.376 190.936 174.376 192.274V196.421C174.376 198.294 173.708 199.765 172.505 200.434C171.97 200.702 171.435 200.835 170.767 200.835Z" fill="#FD8E3E"/>
<path d="M164.084 204.715C163.282 204.715 162.346 204.447 161.411 203.912L144.168 193.879C143.767 193.745 143.767 193.21 143.9 192.942C144.034 192.541 144.569 192.541 144.836 192.675L162.079 202.708C163.282 203.377 164.351 203.511 165.153 203.11C165.955 202.708 166.356 201.638 166.356 200.3V196.153C166.356 194.28 167.025 192.809 168.228 192.14C169.431 191.471 171.035 191.605 172.639 192.541L176.248 194.682C176.649 194.815 176.649 195.35 176.515 195.618C176.381 196.019 175.847 196.019 175.579 195.886L171.97 193.745C170.767 193.076 169.698 192.942 168.896 193.344C168.094 193.745 167.693 194.815 167.693 196.153V200.3C167.693 202.173 167.025 203.645 165.822 204.314C165.287 204.581 164.619 204.715 164.084 204.715Z" fill="#FD8E3E"/>
<path d="M157.267 208.594C156.465 208.594 155.529 208.327 154.593 207.792L137.35 197.759C136.949 197.625 136.949 197.09 137.083 196.822C137.217 196.421 137.751 196.421 138.019 196.554L155.262 206.588C156.465 207.257 157.534 207.391 158.336 206.989C159.138 206.588 159.539 205.518 159.539 204.18V200.033C159.539 198.16 160.207 196.688 161.41 196.019C162.613 195.35 164.217 195.484 165.821 196.421L169.43 198.561C169.831 198.695 169.831 199.23 169.698 199.498C169.564 199.899 169.029 199.899 168.762 199.765L165.153 197.625C163.95 196.956 162.881 196.822 162.079 197.223C161.277 197.625 160.876 198.695 160.876 200.033V204.18C160.876 206.053 160.207 207.524 159.004 208.193C158.47 208.461 157.935 208.594 157.267 208.594Z" fill="#FD8E3E"/>
<path d="M150.583 212.474C149.781 212.474 148.846 212.207 147.91 211.671L130.667 201.638C130.266 201.504 130.266 200.969 130.4 200.702C130.533 200.3 131.068 200.3 131.335 200.434L148.578 210.467C149.781 211.136 150.851 211.27 151.653 210.869C152.455 210.467 152.856 209.397 152.856 208.059V203.912C152.856 202.039 153.524 200.568 154.727 199.899C155.93 199.23 157.534 199.364 159.138 200.3L162.747 202.441C163.148 202.575 163.148 203.11 163.014 203.377C162.881 203.779 162.346 203.779 162.079 203.645L158.47 201.504C157.267 200.835 156.197 200.702 155.395 201.103C154.593 201.504 154.192 202.575 154.192 203.912V208.059C154.192 209.932 153.524 211.404 152.321 212.073C151.786 212.34 151.118 212.474 150.583 212.474Z" fill="#FD8E3E"/>
<path d="M143.767 216.354C142.965 216.354 142.029 216.086 141.093 215.551L123.85 205.518C123.449 205.384 123.449 204.849 123.583 204.581C123.717 204.18 124.251 204.18 124.519 204.314L141.762 214.347C142.965 215.016 144.034 215.149 144.836 214.748C145.638 214.347 146.039 213.277 146.039 211.939V207.792C146.039 205.919 146.707 204.447 147.91 203.778C149.113 203.11 150.717 203.243 152.321 204.18L155.93 206.32C156.331 206.454 156.331 206.989 156.198 207.257C156.064 207.658 155.529 207.658 155.262 207.524L151.653 205.384C150.45 204.715 149.381 204.581 148.579 204.982C147.777 205.384 147.376 206.454 147.376 207.792V211.939C147.376 213.812 146.707 215.283 145.504 215.952C144.97 216.22 144.435 216.354 143.767 216.354Z" fill="#FD8E3E"/>
<path d="M137.083 220.233C136.281 220.233 135.346 219.966 134.41 219.43L117.167 209.397C116.766 209.263 116.766 208.728 116.9 208.461C117.033 208.059 117.568 208.059 117.835 208.193L135.078 218.226C136.281 218.895 137.351 219.029 138.153 218.628C138.955 218.226 139.356 217.156 139.356 215.819V211.538C139.356 209.665 140.024 208.193 141.227 207.524C142.43 206.855 144.034 206.989 145.638 207.926L149.247 210.066C149.648 210.2 149.648 210.735 149.514 211.002C149.381 211.404 148.846 211.404 148.579 211.27L144.97 209.13C143.767 208.461 142.697 208.327 141.895 208.728C141.093 209.13 140.692 210.2 140.692 211.538V215.685C140.692 217.558 140.024 219.029 138.821 219.698C138.286 220.099 137.752 220.233 137.083 220.233Z" fill="#FD8E3E"/>
<path d="M130.4 224.113C129.598 224.113 128.662 223.845 127.726 223.31L110.484 213.277C110.083 213.143 110.083 212.608 110.216 212.34C110.35 211.939 110.885 211.939 111.152 212.073L128.395 222.106C129.598 222.775 130.667 222.909 131.469 222.507C132.271 222.106 132.672 221.036 132.672 219.698V215.551C132.672 213.678 133.341 212.207 134.544 211.538C135.747 210.869 137.35 211.003 138.954 211.939L142.564 214.079C142.965 214.213 142.965 214.748 142.831 215.016C142.697 215.417 142.163 215.417 141.895 215.283L138.286 213.143C137.083 212.474 136.014 212.34 135.212 212.742C134.41 213.143 134.009 214.213 134.009 215.551V219.698C134.009 221.571 133.341 223.043 132.138 223.711C131.603 223.979 130.934 224.113 130.4 224.113Z" fill="#FD8E3E"/>
<path d="M123.583 227.992C122.781 227.992 121.845 227.725 120.91 227.19L103.667 217.156C103.266 217.022 103.266 216.487 103.399 216.22C103.533 215.818 104.068 215.818 104.335 215.952L121.578 225.986C122.781 226.654 123.85 226.788 124.652 226.387C125.454 225.986 125.855 224.915 125.855 223.578V219.43C125.855 217.558 126.524 216.086 127.727 215.417C128.93 214.748 130.534 214.882 132.138 215.818L135.747 217.959C136.148 218.093 136.148 218.628 136.014 218.895C135.88 219.297 135.346 219.297 135.078 219.163L131.469 217.022C130.266 216.354 129.197 216.22 128.395 216.621C127.593 217.022 127.192 218.093 127.192 219.43V223.578C127.192 225.45 126.524 226.922 125.321 227.591C124.786 227.858 124.251 227.992 123.583 227.992Z" fill="#FD8E3E"/>
<path d="M116.9 231.872C116.098 231.872 115.162 231.604 114.226 231.069L96.9833 221.036C96.5823 220.902 96.5823 220.367 96.7159 220.099C96.8496 219.698 97.3843 219.698 97.6516 219.832L114.895 229.865C116.098 230.534 117.167 230.668 117.969 230.267C118.771 229.865 119.172 228.795 119.172 227.457V223.31C119.172 221.437 119.84 219.966 121.043 219.297C122.246 218.628 123.85 218.762 125.454 219.698L129.063 221.839C129.464 221.972 129.464 222.507 129.331 222.775C129.197 223.176 128.662 223.176 128.395 223.043L124.786 220.902C123.583 220.233 122.514 220.099 121.712 220.501C120.91 220.902 120.509 221.972 120.509 223.31V227.457C120.509 229.33 119.84 230.802 118.637 231.47C118.103 231.738 117.568 231.872 116.9 231.872Z" fill="#FD8E3E"/>
<path d="M110.216 235.751C109.414 235.751 108.479 235.484 107.543 234.949L90.2999 224.915C89.8989 224.782 89.8989 224.247 90.0326 223.979C90.1662 223.578 90.7009 223.578 90.9682 223.711L108.211 233.745C109.414 234.414 110.484 234.547 111.286 234.146C112.088 233.745 112.489 232.675 112.489 231.337V227.19C112.489 225.317 113.157 223.845 114.36 223.176C115.563 222.507 117.167 222.641 118.771 223.578L122.38 225.718C122.781 225.852 122.781 226.387 122.647 226.655C122.514 227.056 121.979 227.056 121.712 226.922L118.103 224.782C116.9 224.113 115.83 223.979 115.028 224.38C114.226 224.782 113.825 225.852 113.825 227.19V231.337C113.825 233.21 113.157 234.681 111.954 235.35C111.419 235.618 110.751 235.751 110.216 235.751Z" fill="#FD8E3E"/>
<path d="M103.399 239.631C102.597 239.631 101.661 239.363 100.726 238.828L83.4828 228.795C83.0818 228.661 83.0818 228.126 83.2154 227.858C83.3491 227.457 83.8838 227.457 84.1511 227.591L101.394 237.624C102.597 238.293 103.666 238.427 104.468 238.026C105.27 237.624 105.671 236.554 105.671 235.216V231.069C105.671 229.196 106.34 227.725 107.543 227.056C108.746 226.387 110.35 226.521 111.954 227.457L115.563 229.598C115.964 229.731 115.964 230.266 115.83 230.534C115.696 230.935 115.162 230.935 114.894 230.802L111.285 228.661C110.082 227.992 109.013 227.858 108.211 228.26C107.409 228.661 107.008 229.731 107.008 231.069V235.216C107.008 237.089 106.34 238.561 105.137 239.23C104.602 239.497 104.067 239.631 103.399 239.631Z" fill="#FD8E3E"/>
<path d="M96.7158 243.51C95.9138 243.51 94.9781 243.243 94.0424 242.708L76.7994 232.674C76.3984 232.541 76.3984 232.006 76.5321 231.738C76.6658 231.337 77.2004 231.337 77.4678 231.47L94.7108 241.504C95.9138 242.173 96.9831 242.307 97.7851 241.905C98.5871 241.504 98.9881 240.434 98.9881 239.096V234.949C98.9881 233.076 99.6564 231.604 100.859 230.935C102.062 230.267 103.666 230.4 105.27 231.337L108.879 233.477C109.28 233.611 109.28 234.146 109.147 234.414C109.013 234.815 108.478 234.815 108.211 234.681L104.602 232.541C103.399 231.872 102.33 231.738 101.528 232.139C100.726 232.541 100.325 233.611 100.325 234.949V239.096C100.325 240.969 99.6564 242.44 98.4534 243.109C97.9188 243.377 97.3841 243.51 96.7158 243.51Z" fill="#FD8E3E"/>
<path d="M90.0324 247.39C89.2304 247.39 88.2947 247.123 87.3591 246.587L70.1161 236.554C69.7151 236.42 69.7151 235.885 69.8487 235.618C69.9824 235.216 70.5171 235.216 70.7844 235.35L88.0274 245.383C89.2304 246.052 90.2997 246.186 91.1017 245.785C91.9037 245.383 92.3047 244.313 92.3047 242.975V238.828C92.3047 236.955 92.9731 235.484 94.1761 234.815C95.3791 234.146 96.9831 234.28 98.5871 235.216L102.196 237.357C102.597 237.491 102.597 238.026 102.463 238.293C102.33 238.695 101.795 238.695 101.528 238.561L97.9187 236.42C96.7157 235.751 95.6464 235.618 94.8444 236.019C94.0424 236.42 93.6414 237.491 93.6414 238.828V242.975C93.6414 244.848 92.9731 246.32 91.7701 246.989C91.2354 247.256 90.5671 247.39 90.0324 247.39Z" fill="#FD8E3E"/>
<path d="M83.2155 251.27C82.4135 251.27 81.4778 251.002 80.5422 250.467L63.2992 240.434C62.8982 240.3 62.8982 239.765 63.0318 239.497C63.1655 239.096 63.7002 239.096 63.9675 239.23L81.2105 249.263C82.4135 249.932 83.4828 250.066 84.2848 249.664C85.0868 249.263 85.4878 248.193 85.4878 246.855V242.708C85.4878 240.835 86.1562 239.363 87.3592 238.694C88.5622 238.026 90.1662 238.159 91.7702 239.096L95.3792 241.236C95.7802 241.37 95.7802 241.905 95.6465 242.173C95.5128 242.574 94.9782 242.574 94.7108 242.44L91.1018 240.3C89.8988 239.631 88.8295 239.497 88.0275 239.898C87.2255 240.3 86.8245 241.37 86.8245 242.708V246.855C86.8245 248.728 86.1562 250.199 84.9532 250.868C84.4185 251.136 83.8839 251.27 83.2155 251.27Z" fill="#FD8E3E"/>
<path d="M76.5322 255.149C75.7302 255.149 74.7945 254.882 73.8588 254.346L56.6158 244.313C56.2148 244.179 56.2148 243.644 56.3485 243.377C56.4822 242.975 57.0168 242.975 57.2842 243.109L74.5272 253.143C75.7302 253.811 76.7995 253.945 77.6015 253.544C78.4035 253.142 78.8045 252.072 78.8045 250.734V246.587C78.8045 244.715 79.4728 243.243 80.6758 242.574C81.8788 241.905 83.4828 242.039 85.0868 242.975L88.6958 245.116C89.0968 245.25 89.0968 245.785 88.9631 246.052C88.8295 246.454 88.2948 246.454 88.0275 246.32L84.4185 244.179C83.2155 243.51 82.1462 243.377 81.3442 243.778C80.5422 244.179 80.1412 245.25 80.1412 246.587V250.734C80.1412 252.607 79.4728 254.079 78.2698 254.748C77.7352 255.015 77.2005 255.149 76.5322 255.149Z" fill="#FD8E3E"/>
<path d="M69.8488 259.029C69.0468 259.029 68.1112 258.761 67.1755 258.226L49.9325 248.193C49.5315 248.059 49.5315 247.524 49.6651 247.256C49.7988 246.855 50.3335 246.855 50.6008 246.989L67.8438 257.022C69.0468 257.691 70.1162 257.825 70.9182 257.423C71.7202 257.022 72.1212 255.952 72.1212 254.614V250.333C72.1212 248.46 72.7895 246.989 73.9925 246.32C75.1955 245.651 76.7995 245.785 78.4035 246.721L82.0125 248.862C82.4135 248.995 82.4135 249.531 82.2798 249.798C82.1462 250.199 81.6115 250.199 81.3442 250.066L77.7352 247.925C76.5322 247.256 75.4628 247.123 74.6608 247.524C73.8588 247.925 73.4578 248.995 73.4578 250.333V254.48C73.4578 256.353 72.7895 257.825 71.5865 258.494C71.0518 258.895 70.3835 259.029 69.8488 259.029Z" fill="#FD8E3E"/>
<path d="M63.0317 262.908C62.2297 262.908 61.294 262.641 60.3583 262.106L43.1154 252.072C42.7144 251.938 42.7143 251.403 42.848 251.136C42.9817 250.734 43.5164 250.734 43.7837 250.868L61.0267 260.902C62.2297 261.57 63.299 261.704 64.101 261.303C64.903 260.902 65.304 259.831 65.304 258.494V254.346C65.304 252.474 65.9724 251.002 67.1754 250.333C68.3784 249.664 69.9823 249.798 71.5863 250.734L75.1954 252.875C75.5964 253.009 75.5964 253.544 75.4627 253.811C75.329 254.213 74.7944 254.213 74.527 254.079L70.918 251.938C69.715 251.27 68.6457 251.136 67.8437 251.537C67.0417 251.938 66.6407 253.009 66.6407 254.346V258.494C66.6407 260.366 65.9724 261.838 64.7694 262.507C64.2347 262.641 63.7 262.908 63.0317 262.908Z" fill="#FD8E3E"/>
<path d="M56.3483 266.788C55.5463 266.788 54.6107 266.52 53.675 265.985L36.432 255.952C36.031 255.818 36.031 255.283 36.1647 255.015C36.2983 254.614 36.833 254.614 37.1003 254.748L54.3433 264.781C55.5463 265.45 56.6157 265.584 57.4177 265.183C58.2197 264.781 58.6207 263.711 58.6207 262.373V258.226C58.6207 256.353 59.289 254.882 60.492 254.213C61.695 253.544 63.299 253.678 64.903 254.614L68.512 256.754C68.913 256.888 68.913 257.423 68.7793 257.691C68.6457 258.092 68.111 258.092 67.8437 257.959L64.2346 255.818C63.0316 255.149 61.9623 255.015 61.1603 255.417C60.3583 255.818 59.9573 256.888 59.9573 258.226V262.373C59.9573 264.246 59.289 265.718 58.086 266.387C57.5513 266.52 56.883 266.788 56.3483 266.788Z" fill="#FD8E3E"/>
<path d="M49.5314 270.668C48.7294 270.668 47.7937 270.4 46.8581 269.865L29.6151 259.831C29.2141 259.698 29.2141 259.163 29.3478 258.895C29.4814 258.494 30.0161 258.494 30.2834 258.628L47.5264 268.661C48.7294 269.33 49.7987 269.463 50.6007 269.062C51.4027 268.661 51.8038 267.591 51.8038 266.253V262.106C51.8038 260.233 52.4721 258.761 53.6751 258.092C54.8781 257.423 56.4821 257.557 58.0861 258.494L61.6951 260.634C62.0961 260.768 62.0961 261.303 61.9624 261.571C61.8287 261.972 61.2941 261.972 61.0267 261.838L57.4177 259.698C56.2147 259.029 55.1454 258.895 54.3434 259.296C53.5414 259.698 53.1404 260.768 53.1404 262.106V266.253C53.1404 268.126 52.4721 269.597 51.2691 270.266C50.7344 270.4 50.1997 270.668 49.5314 270.668Z" fill="#FD8E3E"/>
<path d="M42.8481 274.547C42.0461 274.547 41.1104 274.279 40.1747 273.744L22.9317 263.711C22.5307 263.577 22.5308 263.042 22.6644 262.774C22.7981 262.373 23.3327 262.373 23.6001 262.507L40.8431 272.54C42.0461 273.209 43.1154 273.343 43.9174 272.942C44.7194 272.54 45.1204 271.47 45.1204 270.132V265.985C45.1204 264.112 45.7887 262.641 46.9917 261.972C48.1947 261.303 49.7988 261.437 51.4028 262.373L55.0117 264.514C55.4128 264.647 55.4127 265.182 55.2791 265.45C55.1454 265.851 54.6107 265.851 54.3434 265.718L50.7344 263.577C49.5314 262.908 48.4621 262.774 47.6601 263.176C46.8581 263.577 46.4571 264.647 46.4571 265.985V270.132C46.4571 272.005 45.7887 273.477 44.5857 274.146C44.0511 274.279 43.5164 274.547 42.8481 274.547Z" fill="#FD8E3E"/>
<path d="M198.302 201.103C197.634 201.103 197.099 200.969 196.565 200.702C195.362 200.033 194.693 198.561 194.693 196.688V192.541C194.693 191.203 194.292 190.133 193.49 189.732C192.688 189.331 191.619 189.464 190.416 190.133L186.807 192.274C186.406 192.407 186.005 192.407 185.871 192.006C185.738 191.605 185.738 191.203 186.139 191.07L189.748 188.929C191.352 187.993 192.956 187.859 194.159 188.528C195.362 189.197 196.03 190.668 196.03 192.541V196.688C196.03 198.026 196.431 199.096 197.233 199.498C198.035 199.899 199.104 199.765 200.307 199.096L217.55 189.063C217.951 188.929 218.352 188.929 218.486 189.331C218.62 189.732 218.62 190.133 218.219 190.267L200.976 200.3C200.04 200.835 199.238 201.103 198.302 201.103Z" fill="#FD8E3E"/>
<path d="M205.119 204.983C204.451 204.983 203.916 204.849 203.381 204.581C202.178 203.912 201.51 202.441 201.51 200.568V196.421C201.51 195.083 201.109 194.013 200.307 193.612C199.505 193.21 198.436 193.344 197.233 194.013L193.624 196.153C193.223 196.287 192.822 196.287 192.688 195.886C192.554 195.484 192.554 195.083 192.955 194.949L196.564 192.809C198.168 191.872 199.772 191.739 200.975 192.408C202.178 193.076 202.847 194.548 202.847 196.421V200.568C202.847 201.906 203.248 202.976 204.05 203.377C204.852 203.779 205.921 203.645 207.124 202.976L224.367 192.943C224.768 192.809 225.169 192.809 225.303 193.21C225.436 193.612 225.436 194.013 225.035 194.147L207.792 204.18C206.857 204.715 205.921 204.983 205.119 204.983Z" fill="#FD8E3E"/>
<path d="M211.802 208.862C211.134 208.862 210.599 208.728 210.065 208.461C208.862 207.792 208.193 206.32 208.193 204.447V200.3C208.193 198.963 207.792 197.892 206.99 197.491C206.188 197.09 205.119 197.223 203.916 197.892L200.307 200.033C199.906 200.166 199.505 200.167 199.371 199.765C199.238 199.364 199.238 198.963 199.639 198.829L203.248 196.688C204.852 195.752 206.456 195.618 207.659 196.287C208.862 196.956 209.53 198.427 209.53 200.3V204.447C209.53 205.785 209.931 206.855 210.733 207.257C211.535 207.658 212.604 207.524 213.807 206.855L231.051 196.822C231.452 196.688 231.852 196.688 231.986 197.09C232.12 197.491 232.12 197.892 231.719 198.026L214.476 208.059C213.54 208.594 212.604 208.862 211.802 208.862Z" fill="#FD8E3E"/>
<path d="M218.486 212.742C217.817 212.742 217.283 212.608 216.748 212.34C215.545 211.671 214.877 210.2 214.877 208.327V204.18C214.877 202.842 214.476 201.772 213.674 201.371C212.872 200.969 211.802 201.103 210.599 201.772L206.99 203.912C206.589 204.046 206.188 204.046 206.055 203.645C205.921 203.243 205.921 202.842 206.322 202.708L209.931 200.568C211.535 199.631 213.139 199.498 214.342 200.167C215.545 200.835 216.213 202.307 216.213 204.18V208.327C216.213 209.665 216.614 210.735 217.416 211.136C218.218 211.538 219.288 211.404 220.491 210.735L237.734 200.702C238.135 200.568 238.536 200.568 238.669 200.969C238.803 201.371 238.803 201.772 238.402 201.906L221.159 211.939C220.357 212.474 219.421 212.742 218.486 212.742Z" fill="#FD8E3E"/>
<path d="M225.303 216.621C224.635 216.621 224.1 216.488 223.565 216.22C222.362 215.551 221.694 214.08 221.694 212.207V208.06C221.694 206.722 221.293 205.652 220.491 205.25C219.689 204.849 218.62 204.983 217.417 205.652L213.808 207.792C213.407 207.926 213.006 207.926 212.872 207.524C212.738 207.123 212.738 206.722 213.139 206.588L216.748 204.448C218.352 203.511 219.956 203.377 221.159 204.046C222.362 204.715 223.031 206.187 223.031 208.06V212.207C223.031 213.544 223.432 214.615 224.234 215.016C225.036 215.417 226.105 215.284 227.308 214.615L244.551 204.581C244.952 204.448 245.353 204.448 245.487 204.849C245.62 205.25 245.62 205.652 245.219 205.785L227.976 215.819C227.041 216.354 226.105 216.621 225.303 216.621Z" fill="#FD8E3E"/>
<path d="M231.986 220.501C231.318 220.501 230.783 220.367 230.249 220.099C229.046 219.431 228.377 217.959 228.377 216.086V211.939C228.377 210.601 227.976 209.531 227.174 209.13C226.372 208.728 225.303 208.862 224.1 209.531L220.491 211.671C220.09 211.805 219.689 211.805 219.555 211.404C219.422 211.003 219.422 210.601 219.823 210.467L223.432 208.327C225.036 207.391 226.64 207.257 227.843 207.926C229.046 208.595 229.714 210.066 229.714 211.939V216.086C229.714 217.424 230.115 218.494 230.917 218.895C231.719 219.297 232.788 219.163 233.991 218.494L251.234 208.461C251.635 208.327 252.036 208.327 252.17 208.728C252.304 209.13 252.304 209.531 251.903 209.665L234.66 219.698C233.724 220.233 232.788 220.501 231.986 220.501Z" fill="#FD8E3E"/>
<path d="M238.67 224.38C238.001 224.38 237.467 224.247 236.932 223.979C235.729 223.31 235.061 221.839 235.061 219.966V215.819C235.061 214.481 234.66 213.411 233.858 213.009C233.056 212.608 231.986 212.742 230.783 213.411L227.174 215.551C226.773 215.685 226.372 215.685 226.239 215.283C226.105 214.882 226.105 214.481 226.506 214.347L230.115 212.207C231.719 211.27 233.323 211.136 234.526 211.805C235.729 212.474 236.397 213.946 236.397 215.819V219.966C236.397 221.303 236.798 222.374 237.6 222.775C238.402 223.176 239.472 223.043 240.675 222.374L257.918 212.34C258.319 212.207 258.72 212.207 258.853 212.608C258.987 213.009 258.987 213.411 258.586 213.544L241.477 223.578C240.541 224.113 239.605 224.38 238.67 224.38Z" fill="#FD8E3E"/>
<path d="M245.487 228.26C244.818 228.26 244.284 228.126 243.749 227.859C242.546 227.19 241.878 225.718 241.878 223.845V219.698C241.878 218.36 241.477 217.29 240.675 216.889C239.873 216.488 238.803 216.621 237.6 217.29L233.991 219.431C233.59 219.564 233.189 219.564 233.056 219.163C232.922 218.762 232.922 218.36 233.323 218.227L236.932 216.086C238.536 215.15 240.14 215.016 241.343 215.685C242.546 216.354 243.214 217.825 243.214 219.698V223.845C243.214 225.183 243.615 226.253 244.417 226.655C245.219 227.056 246.289 226.922 247.492 226.253L264.735 216.22C265.136 216.086 265.537 216.086 265.67 216.488C265.804 216.889 265.804 217.29 265.403 217.424L248.16 227.457C247.224 227.992 246.289 228.26 245.487 228.26Z" fill="#FD8E3E"/>
<path d="M252.17 232.139C251.502 232.139 250.967 232.006 250.432 231.738C249.229 231.069 248.561 229.598 248.561 227.725V223.578C248.561 222.24 248.16 221.17 247.358 220.768C246.556 220.367 245.487 220.501 244.284 221.17L240.675 223.31C240.274 223.444 239.873 223.444 239.739 223.043C239.605 222.641 239.605 222.24 240.006 222.106L243.615 219.966C245.219 219.029 246.823 218.895 248.026 219.564C249.229 220.233 249.898 221.705 249.898 223.578V227.725C249.898 229.063 250.299 230.133 251.101 230.534C251.903 230.935 252.972 230.802 254.175 230.133L271.418 220.099C271.819 219.966 272.22 219.966 272.354 220.367C272.487 220.768 272.487 221.17 272.086 221.303L254.843 231.337C253.908 231.872 252.972 232.139 252.17 232.139Z" fill="#FD8E3E"/>
<path d="M258.853 236.019C258.185 236.019 257.65 235.885 257.116 235.618C255.913 234.949 255.244 233.477 255.244 231.604V227.457C255.244 226.119 254.843 225.049 254.041 224.648C253.239 224.247 252.17 224.38 250.967 225.049L247.358 227.19C246.957 227.324 246.556 227.323 246.422 226.922C246.289 226.521 246.289 226.119 246.69 225.986L250.299 223.845C251.903 222.909 253.507 222.775 254.71 223.444C255.913 224.113 256.581 225.584 256.581 227.457V231.604C256.581 232.942 256.982 234.012 257.784 234.414C258.586 234.815 259.655 234.681 260.858 234.012L278.101 223.979C278.502 223.845 278.903 223.845 279.037 224.247C279.171 224.648 279.171 225.049 278.77 225.183L261.527 235.216C260.725 235.752 259.789 236.019 258.853 236.019Z" fill="#FD8E3E"/>
<path d="M265.67 239.899C265.002 239.899 264.467 239.765 263.933 239.497C262.73 238.828 262.061 237.357 262.061 235.484V231.337C262.061 229.999 261.66 228.929 260.858 228.528C260.056 228.126 258.987 228.26 257.784 228.929L254.175 231.069C253.774 231.203 253.373 231.203 253.239 230.802C253.106 230.4 253.106 229.999 253.507 229.865L257.116 227.725C258.72 226.788 260.324 226.655 261.527 227.324C262.73 227.992 263.398 229.464 263.398 231.337V235.484C263.398 236.822 263.799 237.892 264.601 238.293C265.403 238.695 266.472 238.561 267.675 237.892L284.918 227.859C285.319 227.725 285.72 227.725 285.854 228.126C285.988 228.528 285.988 228.929 285.587 229.063L268.344 239.096C267.408 239.631 266.472 239.899 265.67 239.899Z" fill="#FD8E3E"/>
<path d="M272.354 243.778C271.685 243.778 271.151 243.644 270.616 243.377C269.413 242.708 268.745 241.236 268.745 239.363V235.216C268.745 233.879 268.344 232.808 267.542 232.407C266.74 232.006 265.67 232.139 264.467 232.808L260.858 234.949C260.457 235.083 260.056 235.082 259.923 234.681C259.789 234.28 259.789 233.879 260.19 233.745L263.799 231.604C265.403 230.668 267.007 230.534 268.21 231.203C269.413 231.872 270.081 233.343 270.081 235.216V239.363C270.081 240.701 270.482 241.771 271.284 242.173C272.086 242.574 273.156 242.44 274.359 241.771L291.602 231.738C292.003 231.604 292.404 231.604 292.537 232.006C292.671 232.407 292.671 232.808 292.27 232.942L275.027 242.975C274.091 243.511 273.289 243.778 272.354 243.778Z" fill="#FD8E3E"/>
<path d="M279.171 247.658C278.502 247.658 277.968 247.524 277.433 247.256C276.23 246.588 275.562 245.116 275.562 243.243V239.096C275.562 237.758 275.161 236.688 274.359 236.287C273.557 235.885 272.487 236.019 271.284 236.688L267.675 238.828C267.274 238.962 266.873 238.962 266.74 238.561C266.606 238.16 266.606 237.758 267.007 237.624L270.616 235.484C272.22 234.547 273.824 234.414 275.027 235.083C276.23 235.752 276.898 237.223 276.898 239.096V243.243C276.898 244.581 277.299 245.651 278.101 246.052C278.903 246.454 279.973 246.32 281.176 245.651L298.419 235.618C298.82 235.484 299.221 235.484 299.354 235.885C299.488 236.287 299.488 236.688 299.087 236.822L281.844 246.855C280.908 247.39 279.973 247.658 279.171 247.658Z" fill="#FD8E3E"/>
<path d="M285.854 251.537C285.186 251.537 284.651 251.403 284.116 251.136C282.913 250.467 282.245 248.995 282.245 247.122V242.975C282.245 241.638 281.844 240.567 281.042 240.166C280.24 239.765 279.171 239.898 277.968 240.567L274.359 242.708C273.958 242.842 273.557 242.842 273.423 242.44C273.289 242.039 273.289 241.638 273.69 241.504L277.299 239.363C278.903 238.427 280.507 238.293 281.71 238.962C282.913 239.631 283.582 241.102 283.582 242.975V247.122C283.582 248.46 283.983 249.53 284.785 249.932C285.587 250.333 286.656 250.199 287.859 249.53L305.102 239.497C305.503 239.363 305.904 239.363 306.038 239.765C306.171 240.166 306.171 240.567 305.77 240.701L288.527 250.734C287.592 251.27 286.656 251.537 285.854 251.537Z" fill="#FD8E3E"/>
<path d="M292.537 255.417C291.869 255.417 291.334 255.283 290.8 255.015C289.597 254.347 288.928 252.875 288.928 251.002V246.855C288.928 245.517 288.527 244.447 287.725 244.046C286.923 243.644 285.854 243.778 284.651 244.447L281.042 246.587C280.641 246.721 280.24 246.721 280.106 246.32C279.973 245.919 279.973 245.517 280.374 245.383L283.983 243.243C285.587 242.307 287.191 242.173 288.394 242.842C289.597 243.511 290.265 244.982 290.265 246.855V251.002C290.265 252.34 290.666 253.41 291.468 253.811C292.27 254.213 293.339 254.079 294.542 253.41L311.785 243.377C312.186 243.243 312.587 243.243 312.721 243.644C312.855 244.046 312.855 244.447 312.454 244.581L295.211 254.614C294.275 255.149 293.473 255.417 292.537 255.417Z" fill="#FD8E3E"/>
<path d="M299.354 259.296C298.686 259.296 298.151 259.163 297.617 258.895C296.414 258.226 295.745 256.755 295.745 254.882V250.735C295.745 249.397 295.344 248.327 294.542 247.925C293.74 247.524 292.671 247.658 291.468 248.327L287.859 250.467C287.458 250.601 287.057 250.601 286.923 250.2C286.79 249.798 286.79 249.397 287.191 249.263L290.8 247.123C292.404 246.186 294.008 246.052 295.211 246.721C296.414 247.39 297.082 248.862 297.082 250.735V254.882C297.082 256.22 297.483 257.29 298.285 257.691C299.087 258.092 300.156 257.959 301.359 257.29L318.602 247.256C319.003 247.123 319.404 247.123 319.538 247.524C319.672 247.925 319.672 248.327 319.271 248.46L302.028 258.494C301.092 259.029 300.156 259.296 299.354 259.296Z" fill="#FD8E3E"/>
<path d="M306.037 263.176C305.369 263.176 304.834 263.042 304.3 262.775C303.097 262.106 302.428 260.634 302.428 258.761V254.614C302.428 253.276 302.027 252.206 301.225 251.805C300.423 251.404 299.354 251.537 298.151 252.206L294.542 254.347C294.141 254.48 293.74 254.48 293.606 254.079C293.473 253.678 293.473 253.276 293.874 253.143L297.483 251.002C299.087 250.066 300.691 249.932 301.894 250.601C303.097 251.27 303.765 252.741 303.765 254.614V258.761C303.765 260.099 304.166 261.169 304.968 261.571C305.77 261.972 306.839 261.838 308.042 261.169L325.285 251.136C325.686 251.002 326.087 251.002 326.221 251.404C326.355 251.805 326.355 252.206 325.954 252.34L308.711 262.373C307.775 262.908 306.839 263.176 306.037 263.176Z" fill="#FD8E3E"/>
<path d="M312.721 267.055C312.052 267.055 311.518 266.922 310.983 266.654C309.78 265.985 309.112 264.514 309.112 262.641V258.36C309.112 257.022 308.711 255.952 307.909 255.551C307.107 255.149 306.037 255.283 304.834 255.952L301.225 258.092C300.824 258.226 300.423 258.226 300.29 257.825C300.156 257.423 300.156 257.022 300.557 256.888L304.166 254.748C305.77 253.811 307.374 253.678 308.577 254.347C309.78 255.015 310.448 256.487 310.448 258.36V262.507C310.448 263.845 310.849 264.915 311.651 265.316C312.453 265.718 313.523 265.584 314.726 264.915L331.969 254.882C332.37 254.748 332.771 254.748 332.904 255.149C333.038 255.551 333.038 255.952 332.637 256.086L315.394 266.119C314.592 266.788 313.656 267.055 312.721 267.055Z" fill="#FD8E3E"/>
<path d="M319.538 270.935C318.869 270.935 318.335 270.801 317.8 270.534C316.597 269.865 315.929 268.393 315.929 266.52V262.373C315.929 261.036 315.528 259.965 314.726 259.564C313.924 259.163 312.854 259.296 311.651 259.965L308.042 262.106C307.641 262.24 307.24 262.24 307.107 261.838C306.973 261.437 306.973 261.036 307.374 260.902L310.983 258.761C312.587 257.825 314.191 257.691 315.394 258.36C316.597 259.029 317.265 260.5 317.265 262.373V266.52C317.265 267.858 317.666 268.928 318.468 269.33C319.27 269.731 320.34 269.597 321.543 268.928L338.786 258.895C339.187 258.761 339.588 258.761 339.721 259.163C339.855 259.564 339.855 259.965 339.454 260.099L322.211 270.132C321.275 270.668 320.34 270.935 319.538 270.935Z" fill="#FD8E3E"/>
<path d="M326.221 274.814C325.553 274.814 325.018 274.681 324.484 274.413C323.281 273.744 322.612 272.273 322.612 270.4V266.253C322.612 264.915 322.211 263.845 321.409 263.443C320.607 263.042 319.538 263.176 318.335 263.845L314.726 265.985C314.325 266.119 313.924 266.119 313.79 265.718C313.657 265.316 313.657 264.915 314.058 264.781L317.667 262.641C319.271 261.704 320.875 261.57 322.078 262.239C323.281 262.908 323.949 264.38 323.949 266.253V270.4C323.949 271.738 324.35 272.808 325.152 273.209C325.954 273.61 327.023 273.477 328.226 272.808L345.469 262.774C345.87 262.641 346.271 262.641 346.405 263.042C346.539 263.443 346.539 263.845 346.138 263.978L328.895 274.012C327.959 274.547 327.023 274.814 326.221 274.814Z" fill="#FD8E3E"/>
<path d="M317.533 266.654V282.039L184.668 358.961L51.6699 282.039V266.654H317.533Z" fill="url(#paint0_linear)"/>
<path d="M184.668 343.576L51.6699 266.654L184.535 189.866L317.533 266.654L184.668 343.576Z" fill="#00B9F8"/>
<path d="M184.668 341.704L53.1403 265.852L51.6699 266.654L184.668 343.576L317.533 266.654L316.063 265.852L184.668 341.704Z" fill="white"/>
<path d="M184.668 325.784L82.2798 266.788L184.535 207.658L286.923 266.788L184.668 325.784Z" fill="#0F054C"/>
<path opacity="0.5" d="M184.668 325.784L82.2798 266.788L184.535 207.658L286.923 266.788L184.668 325.784Z" fill="url(#paint1_linear)"/>
<path opacity="0.5" d="M184.535 192.675L286.923 251.805V266.788L184.535 207.658V192.675Z" fill="url(#paint2_linear)"/>
<path opacity="0.5" d="M184.668 207.658L82.2798 266.788V251.805L184.535 192.675L184.668 207.658Z" fill="url(#paint3_linear)"/>
<path opacity="0.5" d="M184.668 310.935L82.2798 251.805L184.535 192.675L286.923 251.805L184.668 310.935Z" fill="url(#paint4_linear)"/>
<path opacity="0.5" d="M184.535 275.484L143.766 251.805L184.535 228.26L225.437 251.805L184.535 275.484Z" fill="#FD8E3E"/>
<path opacity="0.5" d="M184.535 230.4L223.565 252.875L225.437 251.805L184.535 228.26L143.766 251.805L145.638 252.875L184.535 230.4Z" fill="#FD8E3E"/>
<path opacity="0.5" d="M184.668 310.934V325.784L286.923 266.788V251.805L184.668 310.934Z" fill="url(#paint5_linear)"/>
<path opacity="0.5" d="M82.2798 251.805V266.788L184.668 325.784V310.934L82.2798 251.805Z" fill="url(#paint6_linear)"/>
<path opacity="0.8" d="M184.668 309.329L83.7501 251.002L82.2798 251.805L184.668 310.935L286.923 251.805L285.453 251.002L184.668 309.329Z" fill="#FD8E3E"/>
<path d="M217.951 377.422C217.818 377.422 217.684 377.422 217.55 377.288L200.307 367.255C197.099 365.382 194.693 361.101 194.693 357.489V353.342C194.693 350.265 192.555 346.386 189.748 344.78L186.139 342.64C185.738 342.506 185.738 341.971 185.871 341.704C186.005 341.302 186.54 341.302 186.807 341.436L190.416 343.576C193.624 345.449 196.03 349.73 196.03 353.342V357.489C196.03 360.566 198.169 364.446 200.976 366.051L218.219 376.084C218.62 376.218 218.62 376.753 218.486 377.021C218.486 377.422 218.219 377.422 217.951 377.422Z" fill="#FD8E3E"/>
<path d="M224.768 373.543C224.634 373.543 224.501 373.543 224.367 373.409L207.124 363.375C203.916 361.503 201.51 357.222 201.51 353.61V349.463C201.51 346.386 199.371 342.506 196.564 340.901L192.955 338.76C192.554 338.627 192.554 338.091 192.688 337.824C192.822 337.423 193.356 337.423 193.624 337.556L197.233 339.697C200.441 341.57 202.847 345.851 202.847 349.463V353.61C202.847 356.687 204.985 360.566 207.792 362.171L225.035 372.205C225.436 372.339 225.436 372.874 225.303 373.141C225.169 373.409 224.902 373.543 224.768 373.543Z" fill="#FD8E3E"/>
<path d="M231.451 369.663C231.318 369.663 231.184 369.663 231.051 369.529L213.807 359.496C210.599 357.623 208.193 353.342 208.193 349.73V345.583C208.193 342.506 206.055 338.626 203.248 337.021L199.639 334.881C199.238 334.747 199.238 334.212 199.371 333.944C199.505 333.543 200.04 333.543 200.307 333.677L203.916 335.817C207.124 337.69 209.53 341.971 209.53 345.583V349.73C209.53 352.807 211.669 356.686 214.476 358.292L231.719 368.325C232.12 368.459 232.12 368.994 231.986 369.262C231.986 369.529 231.719 369.663 231.451 369.663Z" fill="#FD8E3E"/>
<path d="M238.135 365.783C238.001 365.783 237.867 365.783 237.734 365.65L220.491 355.616C217.283 353.743 214.877 349.462 214.877 345.85V341.703C214.877 338.626 212.738 334.747 209.931 333.141L206.322 331.001C205.921 330.867 205.921 330.332 206.055 330.065C206.188 329.663 206.723 329.663 206.99 329.797L210.599 331.938C213.807 333.81 216.213 338.091 216.213 341.703V345.85C216.213 348.927 218.352 352.807 221.159 354.412L238.402 364.446C238.803 364.579 238.803 365.114 238.669 365.382C238.669 365.65 238.402 365.783 238.135 365.783Z" fill="#FD8E3E"/>
<path d="M244.952 361.904C244.818 361.904 244.685 361.904 244.551 361.77L227.308 351.737C224.1 349.864 221.694 345.583 221.694 341.971V337.824C221.694 334.747 219.555 330.867 216.748 329.262L213.139 327.122C212.738 326.988 212.738 326.453 212.872 326.185C213.006 325.784 213.54 325.784 213.808 325.918L217.417 328.058C220.625 329.931 223.031 334.212 223.031 337.824V341.971C223.031 345.048 225.169 348.927 227.976 350.533L245.219 360.566C245.62 360.7 245.62 361.235 245.487 361.503C245.353 361.77 245.219 361.904 244.952 361.904Z" fill="#FD8E3E"/>
<path d="M251.635 358.024C251.502 358.024 251.368 358.024 251.234 357.89L233.991 347.857C230.783 345.984 228.377 341.703 228.377 338.091V333.944C228.377 330.867 226.239 326.988 223.432 325.382L219.823 323.242C219.422 323.108 219.422 322.573 219.555 322.306C219.689 321.904 220.224 321.904 220.491 322.038L224.1 324.178C227.308 326.051 229.714 330.332 229.714 333.944V338.091C229.714 341.168 231.853 345.048 234.66 346.653L251.903 356.686C252.304 356.82 252.304 357.355 252.17 357.623C252.17 357.89 251.903 358.024 251.635 358.024Z" fill="#FD8E3E"/>
<path d="M258.319 354.145C258.185 354.145 258.051 354.145 257.918 354.011L240.675 343.978C237.467 342.105 235.061 337.824 235.061 334.212V330.065C235.061 326.988 232.922 323.108 230.115 321.503L226.506 319.363C226.105 319.229 226.105 318.694 226.239 318.426C226.372 318.025 226.907 318.025 227.174 318.159L230.783 320.299C233.991 322.172 236.397 326.453 236.397 330.065V334.212C236.397 337.289 238.536 341.168 241.343 342.774L258.586 352.807C258.987 352.941 258.987 353.476 258.853 353.743C258.853 354.011 258.586 354.145 258.319 354.145Z" fill="#FD8E3E"/>
<path d="M265.136 350.265C265.002 350.265 264.868 350.265 264.735 350.131L247.492 340.098C244.284 338.225 241.878 333.944 241.878 330.332V326.185C241.878 323.108 239.739 319.229 236.932 317.623L233.323 315.483C232.922 315.349 232.922 314.814 233.056 314.547C233.189 314.145 233.724 314.145 233.991 314.279L237.6 316.419C240.808 318.292 243.214 322.573 243.214 326.185V330.332C243.214 333.409 245.353 337.289 248.16 338.894L265.403 348.927C265.804 349.061 265.804 349.596 265.67 349.864C265.537 350.131 265.403 350.265 265.136 350.265Z" fill="#FD8E3E"/>
<path d="M271.819 346.386C271.685 346.386 271.552 346.386 271.418 346.252L254.175 336.219C250.967 334.346 248.561 330.065 248.561 326.453V322.306C248.561 319.229 246.422 315.349 243.615 313.744L240.006 311.603C239.605 311.47 239.605 310.934 239.739 310.667C239.873 310.266 240.407 310.266 240.675 310.399L244.284 312.54C247.492 314.413 249.898 318.694 249.898 322.306V326.453C249.898 329.53 252.036 333.409 254.843 335.014L272.086 345.048C272.487 345.182 272.487 345.717 272.354 345.984C272.354 346.252 272.086 346.386 271.819 346.386Z" fill="#FD8E3E"/>
<path d="M278.636 342.506C278.502 342.506 278.369 342.506 278.235 342.372L260.992 332.339C257.784 330.466 255.378 326.185 255.378 322.573V318.56C255.378 315.483 253.239 311.604 250.432 309.998L246.823 307.858C246.422 307.724 246.422 307.189 246.556 306.921C246.69 306.52 247.224 306.52 247.492 306.654L251.101 308.794C254.309 310.667 256.715 314.948 256.715 318.56V322.707C256.715 325.784 258.853 329.664 261.66 331.269L278.903 341.302C279.304 341.436 279.304 341.971 279.171 342.239C279.037 342.372 278.77 342.506 278.636 342.506Z" fill="#FD8E3E"/>
<path d="M285.319 338.627C285.186 338.627 285.052 338.627 284.918 338.493L267.675 328.459C264.467 326.587 262.061 322.306 262.061 318.694V314.547C262.061 311.47 259.923 307.59 257.116 305.985L253.507 303.844C253.106 303.711 253.106 303.175 253.239 302.908C253.373 302.507 253.908 302.507 254.175 302.64L257.784 304.781C260.992 306.654 263.398 310.935 263.398 314.547V318.694C263.398 321.771 265.537 325.65 268.344 327.255L285.587 337.289C285.988 337.423 285.988 337.958 285.854 338.225C285.72 338.493 285.587 338.627 285.319 338.627Z" fill="#FD8E3E"/>
<path d="M292.003 334.747C291.869 334.747 291.735 334.747 291.602 334.613L274.359 324.58C271.151 322.707 268.745 318.426 268.745 314.814V310.667C268.745 307.59 266.606 303.71 263.799 302.105L260.19 299.965C259.789 299.831 259.789 299.296 259.923 299.028C260.056 298.627 260.591 298.627 260.858 298.761L264.467 300.901C267.675 302.774 270.081 307.055 270.081 310.667V314.814C270.081 317.891 272.22 321.77 275.027 323.376L292.27 333.409C292.671 333.543 292.671 334.078 292.537 334.346C292.537 334.613 292.27 334.747 292.003 334.747Z" fill="#FD8E3E"/>
<path d="M298.82 330.868C298.686 330.868 298.552 330.868 298.419 330.734L281.176 320.7C277.968 318.828 275.562 314.547 275.562 310.935V306.788C275.562 303.711 273.423 299.831 270.616 298.226L267.007 296.085C266.606 295.952 266.606 295.416 266.74 295.149C266.873 294.748 267.408 294.747 267.675 294.881L271.284 297.022C274.492 298.895 276.898 303.176 276.898 306.788V310.935C276.898 314.011 279.037 317.891 281.844 319.496L299.087 329.53C299.488 329.664 299.488 330.199 299.354 330.466C299.221 330.734 298.953 330.868 298.82 330.868Z" fill="#FD8E3E"/>
<path d="M305.503 326.988C305.369 326.988 305.236 326.988 305.102 326.854L287.859 316.821C284.651 314.948 282.245 310.667 282.245 307.055V302.908C282.245 299.831 280.106 295.951 277.299 294.346L273.69 292.206C273.289 292.072 273.289 291.537 273.423 291.269C273.557 290.868 274.091 290.868 274.359 291.002L277.968 293.142C281.176 295.015 283.582 299.296 283.582 302.908V307.055C283.582 310.132 285.72 314.011 288.527 315.617L305.77 325.65C306.171 325.784 306.171 326.319 306.038 326.587C306.038 326.854 305.77 326.988 305.503 326.988Z" fill="#FD8E3E"/>
<path d="M312.186 323.108C312.053 323.108 311.919 323.108 311.785 322.974L294.542 312.941C291.334 311.068 288.928 306.787 288.928 303.175V299.028C288.928 295.951 286.79 292.072 283.983 290.466L280.374 288.326C279.973 288.192 279.973 287.657 280.106 287.39C280.24 286.988 280.775 286.988 281.042 287.122L284.651 289.262C287.859 291.135 290.265 295.416 290.265 299.028V303.175C290.265 306.252 292.404 310.132 295.211 311.737L312.454 321.77C312.855 321.904 312.855 322.439 312.721 322.707C312.721 322.974 312.454 323.108 312.186 323.108Z" fill="#FD8E3E"/>
<path d="M319.003 319.229C318.87 319.229 318.736 319.229 318.602 319.095L301.359 309.062C298.151 307.189 295.745 302.908 295.745 299.296V295.149C295.745 292.072 293.607 288.192 290.8 286.587L287.191 284.447C286.79 284.313 286.79 283.778 286.923 283.51C287.057 283.109 287.592 283.109 287.859 283.243L291.468 285.383C294.676 287.256 297.082 291.537 297.082 295.149V299.296C297.082 302.373 299.221 306.252 302.028 307.858L319.271 317.891C319.672 318.025 319.672 318.56 319.538 318.828C319.404 319.095 319.271 319.229 319.003 319.229Z" fill="#FD8E3E"/>
<path d="M325.686 315.349C325.553 315.349 325.419 315.349 325.285 315.215L308.042 305.182C304.834 303.309 302.428 299.028 302.428 295.416V291.269C302.428 288.192 300.29 284.313 297.483 282.707L293.874 280.567C293.473 280.433 293.473 279.898 293.606 279.631C293.74 279.229 294.275 279.229 294.542 279.363L298.151 281.503C301.359 283.376 303.765 287.657 303.765 291.269V295.416C303.765 298.493 305.904 302.373 308.711 303.978L325.954 314.011C326.355 314.145 326.355 314.68 326.221 314.948C326.221 315.215 325.954 315.349 325.686 315.349Z" fill="#FD8E3E"/>
<path d="M332.37 311.47C332.236 311.47 332.102 311.47 331.969 311.336L314.726 301.302C311.518 299.43 309.112 295.149 309.112 291.537V287.39C309.112 284.313 306.973 280.433 304.166 278.828L300.557 276.687C300.156 276.554 300.156 276.018 300.29 275.751C300.423 275.35 300.958 275.35 301.225 275.483L304.834 277.624C308.042 279.497 310.448 283.778 310.448 287.39V291.537C310.448 294.614 312.587 298.493 315.394 300.098L332.637 310.132C333.038 310.266 333.038 310.801 332.904 311.068C332.904 311.336 332.637 311.47 332.37 311.47Z" fill="#FD8E3E"/>
<path d="M339.187 307.59C339.053 307.59 338.919 307.59 338.786 307.456L321.543 297.423C318.335 295.55 315.929 291.269 315.929 287.657V283.51C315.929 280.433 313.79 276.554 310.983 274.948L307.374 272.808C306.973 272.674 306.973 272.139 307.107 271.872C307.24 271.47 307.775 271.47 308.042 271.604L311.651 273.744C314.859 275.617 317.265 279.898 317.265 283.51V287.657C317.265 290.734 319.404 294.614 322.211 296.219L339.454 306.252C339.855 306.386 339.855 306.921 339.721 307.189C339.588 307.456 339.454 307.59 339.187 307.59Z" fill="#FD8E3E"/>
<path d="M345.87 303.711C345.737 303.711 345.603 303.711 345.469 303.577L328.226 293.543C325.018 291.671 322.612 287.39 322.612 283.778V279.764C322.612 276.687 320.474 272.808 317.667 271.203L314.058 269.062C313.657 268.928 313.657 268.393 313.79 268.126C313.924 267.724 314.459 267.724 314.726 267.858L318.335 269.999C321.543 271.871 323.949 276.152 323.949 279.764V283.911C323.949 286.988 326.088 290.868 328.895 292.473L346.138 302.507C346.539 302.64 346.539 303.175 346.405 303.443C346.405 303.577 346.138 303.711 345.87 303.711Z" fill="#FD8E3E"/>
<path d="M150.717 377.422C150.45 377.422 150.182 377.288 150.049 377.021C149.915 376.619 149.915 376.218 150.316 376.084L167.559 366.051C170.232 364.446 172.505 360.7 172.505 357.489V353.342C172.505 349.73 174.911 345.449 178.119 343.576L181.728 341.436C182.129 341.302 182.53 341.302 182.663 341.704C182.797 342.105 182.797 342.506 182.396 342.64L178.787 344.78C176.114 346.386 173.841 350.132 173.841 353.342V357.489C173.841 361.101 171.435 365.382 168.227 367.255L150.984 377.288C150.984 377.422 150.851 377.422 150.717 377.422Z" fill="#FD8E3E"/>
<path d="M144.034 373.543C143.766 373.543 143.499 373.409 143.365 373.141C143.232 372.74 143.232 372.339 143.633 372.205L160.876 362.171C163.549 360.566 165.821 356.82 165.821 353.61V349.463C165.821 345.851 168.227 341.57 171.435 339.697L175.044 337.556C175.445 337.423 175.846 337.423 175.98 337.824C176.114 338.225 176.114 338.627 175.713 338.76L172.104 340.901C169.43 342.506 167.158 346.252 167.158 349.463V353.61C167.158 357.222 164.752 361.503 161.544 363.375L144.301 373.409C144.301 373.543 144.167 373.543 144.034 373.543Z" fill="#FD8E3E"/>
<path d="M137.216 369.663C136.949 369.663 136.682 369.529 136.548 369.262C136.414 368.86 136.414 368.459 136.815 368.325L154.058 358.292C156.732 356.686 159.004 352.941 159.004 349.73V345.583C159.004 341.971 161.41 337.69 164.618 335.817L168.227 333.677C168.628 333.543 169.029 333.543 169.163 333.944C169.296 334.346 169.296 334.747 168.895 334.881L165.286 337.021C162.613 338.626 160.341 342.372 160.341 345.583V349.73C160.341 353.342 157.935 357.623 154.727 359.496L137.484 369.529C137.484 369.663 137.35 369.663 137.216 369.663Z" fill="#FD8E3E"/>
<path d="M130.533 365.783C130.266 365.783 129.998 365.65 129.865 365.382C129.731 364.981 129.731 364.579 130.132 364.446L147.375 354.412C150.048 352.807 152.321 349.061 152.321 345.85V341.703C152.321 338.091 154.727 333.81 157.935 331.938L161.544 329.797C161.945 329.663 162.346 329.663 162.479 330.065C162.613 330.466 162.613 330.867 162.212 331.001L158.603 333.141C155.93 334.747 153.657 338.493 153.657 341.703V345.85C153.657 349.462 151.251 353.743 148.043 355.616L130.8 365.65C130.8 365.783 130.667 365.783 130.533 365.783Z" fill="#FD8E3E"/>
<path d="M123.85 361.904C123.582 361.904 123.315 361.77 123.181 361.503C123.048 361.101 123.048 360.7 123.449 360.566L140.692 350.533C143.365 348.927 145.637 345.182 145.637 341.971V337.824C145.637 334.212 148.043 329.931 151.251 328.058L154.86 325.918C155.261 325.784 155.662 325.784 155.796 326.185C155.93 326.587 155.93 326.988 155.529 327.122L151.92 329.262C149.246 330.867 146.974 334.613 146.974 337.824V341.971C146.974 345.583 144.568 349.864 141.36 351.737L124.117 361.77C124.117 361.904 123.983 361.904 123.85 361.904Z" fill="#FD8E3E"/>
<path d="M117.033 358.024C116.766 358.024 116.498 357.89 116.365 357.623C116.231 357.222 116.231 356.82 116.632 356.686L133.875 346.653C136.548 345.048 138.821 341.302 138.821 338.091V333.944C138.821 330.332 141.227 326.051 144.435 324.178L148.044 322.038C148.445 321.904 148.846 321.904 148.979 322.306C149.113 322.707 149.113 323.108 148.712 323.242L145.103 325.382C142.43 326.988 140.157 330.734 140.157 333.944V338.091C140.157 341.703 137.751 345.984 134.543 347.857L117.3 357.89C117.3 358.024 117.167 358.024 117.033 358.024Z" fill="#FD8E3E"/>
<path d="M110.35 354.145C110.082 354.145 109.815 354.011 109.681 353.743C109.548 353.342 109.548 352.941 109.949 352.807L127.192 342.774C129.865 341.168 132.137 337.423 132.137 334.212V330.065C132.137 326.453 134.543 322.172 137.751 320.299L141.36 318.159C141.761 318.025 142.162 318.025 142.296 318.426C142.43 318.827 142.43 319.229 142.029 319.363L138.42 321.503C135.746 323.108 133.474 326.854 133.474 330.065V334.212C133.474 337.824 131.068 342.105 127.86 343.978L110.617 354.011C110.617 354.145 110.483 354.145 110.35 354.145Z" fill="#FD8E3E"/>
<path d="M103.666 350.265C103.399 350.265 103.132 350.131 102.998 349.864C102.864 349.463 102.864 349.061 103.265 348.927L120.508 338.894C123.182 337.289 125.454 333.543 125.454 330.332V326.185C125.454 322.573 127.86 318.292 131.068 316.419L134.677 314.279C135.078 314.145 135.479 314.145 135.613 314.547C135.746 314.948 135.746 315.349 135.345 315.483L131.736 317.623C129.063 319.229 126.791 322.975 126.791 326.185V330.332C126.791 333.944 124.385 338.225 121.177 340.098L103.934 350.131C103.8 350.265 103.8 350.265 103.666 350.265Z" fill="#FD8E3E"/>
<path d="M96.8494 346.386C96.582 346.386 96.3147 346.252 96.181 345.984C96.0474 345.583 96.0473 345.182 96.4483 345.048L113.691 335.014C116.365 333.409 118.637 329.663 118.637 326.453V322.306C118.637 318.694 121.043 314.413 124.251 312.54L127.86 310.399C128.261 310.266 128.662 310.266 128.796 310.667C128.929 311.068 128.929 311.47 128.528 311.603L124.919 313.744C122.246 315.349 119.974 319.095 119.974 322.306V326.453C119.974 330.065 117.568 334.346 114.36 336.219L97.1167 346.252C97.1167 346.386 96.983 346.386 96.8494 346.386Z" fill="#FD8E3E"/>
<path d="M90.166 342.506C89.8987 342.506 89.6313 342.372 89.4977 342.105C89.364 341.704 89.364 341.302 89.765 341.168L107.008 331.135C109.681 329.53 111.954 325.784 111.954 322.573V318.56C111.954 314.948 114.36 310.667 117.568 308.794L121.177 306.654C121.578 306.52 121.979 306.52 122.112 306.921C122.246 307.323 122.246 307.724 121.845 307.858L118.236 309.998C115.563 311.604 113.29 315.349 113.29 318.56V322.707C113.29 326.319 110.884 330.6 107.676 332.473L90.4333 342.506C90.4333 342.506 90.2997 342.506 90.166 342.506Z" fill="#FD8E3E"/>
<path d="M83.4827 338.627C83.2153 338.627 82.948 338.493 82.8143 338.225C82.6807 337.824 82.6806 337.423 83.0816 337.289L100.325 327.255C102.998 325.65 105.27 321.904 105.27 318.694V314.547C105.27 310.935 107.676 306.654 110.884 304.781L114.493 302.64C114.894 302.507 115.295 302.507 115.429 302.908C115.563 303.309 115.563 303.711 115.162 303.844L111.553 305.985C108.879 307.59 106.607 311.336 106.607 314.547V318.694C106.607 322.306 104.201 326.587 100.993 328.459L83.75 338.627C83.6163 338.627 83.4827 338.627 83.4827 338.627Z" fill="#FD8E3E"/>
<path d="M76.6655 334.747C76.3982 334.747 76.1308 334.613 75.9972 334.346C75.8635 333.944 75.8635 333.543 76.2645 333.409L93.5075 323.376C96.1809 321.77 98.4532 318.025 98.4532 314.814V310.667C98.4532 307.055 100.859 302.774 104.067 300.901L107.676 298.761C108.077 298.627 108.478 298.627 108.612 299.028C108.746 299.43 108.746 299.831 108.345 299.965L104.736 302.105C102.062 303.71 99.7899 307.456 99.7899 310.667V314.814C99.7899 318.426 97.3839 322.707 94.1759 324.58L76.9328 334.613C76.9328 334.747 76.7992 334.747 76.6655 334.747Z" fill="#FD8E3E"/>
<path d="M69.9822 330.868C69.7148 330.868 69.4475 330.734 69.3138 330.466C69.1802 330.065 69.1802 329.664 69.5812 329.53L86.8242 319.496C89.4975 317.891 91.7698 314.145 91.7698 310.935V306.788C91.7698 303.176 94.1758 298.895 97.3838 297.022L100.993 294.881C101.394 294.747 101.795 294.748 101.928 295.149C102.062 295.55 102.062 295.952 101.661 296.085L98.0521 298.226C95.3788 299.831 93.1065 303.577 93.1065 306.788V310.935C93.1065 314.547 90.7005 318.828 87.4925 320.7L70.2495 330.734C70.2495 330.868 70.1158 330.868 69.9822 330.868Z" fill="#FD8E3E"/>
<path d="M63.1653 326.988C62.8979 326.988 62.6306 326.854 62.4969 326.587C62.3633 326.185 62.3633 325.784 62.7643 325.65L80.0073 315.617C82.6806 314.011 84.9529 310.266 84.9529 307.055V302.908C84.9529 299.296 87.3589 295.015 90.567 293.142L94.176 291.002C94.577 290.868 94.9779 290.868 95.1116 291.269C95.2453 291.671 95.2453 292.072 94.8443 292.206L91.2353 294.346C88.562 295.951 86.2896 299.697 86.2896 302.908V307.055C86.2896 310.667 83.8836 314.948 80.6756 316.821L63.4326 326.854C63.4326 326.988 63.2989 326.988 63.1653 326.988Z" fill="#FD8E3E"/>
<path d="M56.4819 323.108C56.2146 323.108 55.9473 322.974 55.8136 322.707C55.6799 322.306 55.6799 321.904 56.0809 321.77L73.3239 311.737C75.9972 310.132 78.2696 306.386 78.2696 303.175V299.028C78.2696 295.416 80.6756 291.135 83.8836 289.262L87.4926 287.122C87.8936 286.988 88.2946 286.988 88.4282 287.39C88.5619 287.791 88.5619 288.192 88.1609 288.326L84.5519 290.466C81.8786 292.072 79.6062 295.818 79.6062 299.028V303.175C79.6062 306.787 77.2002 311.068 73.9922 312.941L56.7492 322.974C56.7492 323.108 56.6156 323.108 56.4819 323.108Z" fill="#FD8E3E"/>
<path d="M49.7986 319.229C49.5312 319.229 49.2639 319.095 49.1302 318.828C48.9966 318.426 48.9966 318.025 49.3976 317.891L66.6406 307.858C69.3139 306.252 71.5862 302.507 71.5862 299.296V295.149C71.5862 291.537 73.9922 287.256 77.2002 285.383L80.8092 283.243C81.2102 283.109 81.6112 283.109 81.7449 283.51C81.8786 283.911 81.8786 284.313 81.4776 284.447L77.8686 286.587C75.1952 288.192 72.9229 291.938 72.9229 295.149V299.296C72.9229 302.908 70.5169 307.189 67.3089 309.062L50.0659 319.095C50.0659 319.229 49.9322 319.229 49.7986 319.229Z" fill="#FD8E3E"/>
<path d="M42.9814 315.349C42.7141 315.349 42.4468 315.215 42.3131 314.948C42.1794 314.547 42.1794 314.145 42.5804 314.011L59.8234 303.978C62.4968 302.373 64.7691 298.627 64.7691 295.416V291.269C64.7691 287.657 67.1751 283.376 70.3831 281.503L73.9921 279.363C74.3931 279.229 74.7941 279.229 74.9277 279.631C75.0614 280.032 75.0614 280.433 74.6604 280.567L71.0514 282.707C68.3781 284.313 66.1058 288.059 66.1058 291.269V295.416C66.1058 299.028 63.6998 303.309 60.4918 305.182L43.2488 315.215C43.2488 315.349 43.1151 315.349 42.9814 315.349Z" fill="#FD8E3E"/>
<path d="M36.2981 311.47C36.0307 311.47 35.7634 311.336 35.6297 311.068C35.4961 310.667 35.4961 310.266 35.8971 310.132L53.1401 300.098C55.8134 298.493 58.0857 294.747 58.0857 291.537V287.39C58.0857 283.778 60.4917 279.497 63.6997 277.624L67.3087 275.483C67.7097 275.35 68.1107 275.35 68.2444 275.751C68.3781 276.152 68.3781 276.554 67.9771 276.687L64.3681 278.828C61.6947 280.433 59.4224 284.179 59.4224 287.39V291.537C59.4224 295.149 57.0164 299.43 53.8084 301.302L36.5654 311.336C36.5654 311.47 36.4317 311.47 36.2981 311.47Z" fill="#FD8E3E"/>
<path d="M29.6147 307.59C29.3474 307.59 29.0801 307.456 28.9464 307.189C28.8127 306.787 28.8127 306.386 29.2137 306.252L46.4567 296.219C49.1301 294.614 51.4024 290.868 51.4024 287.657V283.51C51.4024 279.898 53.8084 275.617 57.0164 273.744L60.6254 271.604C61.0264 271.47 61.4274 271.47 61.5611 271.872C61.6947 272.273 61.6947 272.674 61.2937 272.808L57.6847 274.948C55.0114 276.554 52.7391 280.299 52.7391 283.51V287.657C52.7391 291.269 50.3331 295.55 47.1251 297.423L29.8821 307.456C29.7484 307.59 29.7484 307.59 29.6147 307.59Z" fill="#FD8E3E"/>
<path d="M22.7978 303.711C22.5305 303.711 22.2632 303.577 22.1295 303.309C21.9958 302.908 21.9958 302.507 22.3968 302.373L39.6398 292.339C42.3132 290.734 44.5855 286.988 44.5855 283.778V279.764C44.5855 276.152 46.9915 271.871 50.1995 269.999L53.8085 267.858C54.2095 267.724 54.6105 267.724 54.7442 268.126C54.8778 268.527 54.8778 268.928 54.4768 269.062L50.8678 271.203C48.1945 272.808 45.9222 276.554 45.9222 279.764V283.911C45.9222 287.523 43.5162 291.804 40.3082 293.677L23.0652 303.711C23.0652 303.711 22.9315 303.711 22.7978 303.711Z" fill="#FD8E3E"/>
<g opacity="0.3">
<path opacity="0.3" d="M309.646 54.3489C310.849 61.1715 315.795 78.0275 336.513 89.8C365.92 103.445 386.237 121.238 393.054 141.171C393.589 142.508 394.257 144.248 394.792 145.452C395.46 144.248 395.46 144.248 395.594 141.304V107.86C395.594 88.1947 394.525 83.9138 393.054 78.4289C386.237 58.496 365.92 40.5698 336.513 27.0582C312.988 19.4329 307.374 41.5062 309.646 54.3489Z" fill="#FD8E3E"/>
<path opacity="0.3" d="M94.0424 14.2155C125.187 5.11863 162.079 0.0350702 201.377 0.436404C206.59 0.436404 211.669 0.570185 216.748 0.837741C251.234 4.04841 263.532 40.436 242.68 56.4893C233.189 63.8471 221.56 63.7133 216.748 63.7133C211.669 63.4458 206.59 63.312 201.377 63.312C162.079 63.0444 125.187 68.128 94.0424 77.0911C62.6307 84.7164 60.7594 52.7435 71.7201 33.212C75.3291 26.6569 82.2797 17.9613 94.0424 14.2155Z" fill="#FD8E3E"/>
<path opacity="0.3" d="M0.074707 156.154C0.876707 146.254 1.54506 138.361 11.7037 124.582C33.0904 93.0108 28.6794 56.3556 16.9167 58.0948C15.0454 58.3623 13.0404 60.369 11.7037 61.7067C4.48573 71.0712 0.475707 81.1045 0.074707 91.5392C0.074707 92.0743 0.074707 92.6094 0.074707 93.1445V156.154Z" fill="#FD8E3E"/>
</g>
<path d="M256.484 163.903L249.669 166.664L273.14 224.702L279.955 221.941L256.484 163.903Z" fill="#FD8E3E"/>
<path d="M127.325 159.632C139.875 159.632 150.048 149.45 150.048 136.89C150.048 124.329 139.875 114.147 127.325 114.147C114.775 114.147 104.602 124.329 104.602 136.89C104.602 149.45 114.775 159.632 127.325 159.632Z" fill="url(#paint7_linear)"/>
<path d="M244.952 170.602C244.952 214.882 218.62 250.734 186.139 250.734C153.658 250.734 127.325 214.882 127.325 170.602C127.325 126.321 153.658 113.077 186.139 113.077C218.62 113.077 244.952 126.321 244.952 170.602Z" fill="url(#paint8_linear)"/>
<path d="M244.952 170.602C244.952 214.882 218.62 250.734 186.139 250.734C153.658 250.734 127.325 214.882 127.325 170.602C127.325 126.321 153.658 113.077 186.139 113.077C218.62 113.077 244.952 126.321 244.952 170.602Z" fill="url(#paint9_linear)"/>
<path d="M186.139 160.033C208.285 160.033 226.239 149.671 226.239 136.89C226.239 124.108 208.285 113.746 186.139 113.746C163.992 113.746 146.039 124.108 146.039 136.89C146.039 149.671 163.992 160.033 186.139 160.033Z" fill="#014DA9"/>
<path d="M157.801 126.589C173.44 117.492 198.971 117.492 214.61 126.589C221.026 130.335 224.902 135.017 225.971 139.967C227.575 133.01 223.833 125.786 214.61 120.435C198.971 111.338 173.44 111.338 157.801 120.435C148.578 125.786 144.836 133.01 146.44 139.967C147.509 135.151 151.252 130.335 157.801 126.589Z" fill="#0B255B"/>
<path d="M139.756 81.7733L146.974 69.1982C151.251 64.7835 154.727 58.8973 156.331 53.0111L163.682 40.3022L153.123 34.2822C152.722 34.0146 152.454 33.8809 152.053 33.6133C148.979 32.1418 145.103 32.5431 140.692 35.0849C131.335 40.436 123.716 53.68 123.716 64.3822C123.716 69.7333 125.587 73.6129 128.662 75.352L139.756 81.7733Z" fill="url(#paint10_linear)"/>
<path d="M163.569 67.862C170.176 56.409 170.194 44.04 163.609 40.235C157.025 36.43 146.33 42.6299 139.723 54.0829C133.116 65.5359 133.098 77.9049 139.683 81.7099C146.268 85.5149 156.962 79.315 163.569 67.862Z" fill="#00B9F8"/>
<path d="M188.545 141.572C221.691 141.572 248.561 114.679 248.561 81.5057C248.561 48.332 221.691 21.4395 188.545 21.4395C155.399 21.4395 128.528 48.332 128.528 81.5057C128.528 114.679 155.399 141.572 188.545 141.572Z" fill="url(#paint11_linear)"/>
<path d="M188.545 141.572C221.691 141.572 248.561 114.679 248.561 81.5057C248.561 48.332 221.691 21.4395 188.545 21.4395C155.399 21.4395 128.528 48.332 128.528 81.5057C128.528 114.679 155.399 141.572 188.545 141.572Z" fill="url(#paint12_linear)"/>
<path d="M222.095 122.174L229.313 109.599C233.59 105.184 237.066 99.2982 238.67 93.412L246.021 80.7031L235.462 74.6831C235.061 74.4155 234.793 74.2817 234.392 74.0142C231.318 72.5426 227.442 72.944 223.031 75.4858C213.674 80.8369 206.055 94.0809 206.055 104.783C206.055 110.134 207.926 114.014 211.001 115.753L222.095 122.174Z" fill="url(#paint13_linear)"/>
<path d="M245.894 108.186C252.501 96.733 252.519 84.364 245.934 80.559C239.349 76.754 228.655 82.9539 222.048 94.4069C215.441 105.86 215.423 118.229 222.008 122.034C228.593 125.839 239.287 119.639 245.894 108.186Z" fill="#00B9F8"/>
<path d="M217.817 111.204C217.817 100.368 225.436 87.2582 234.793 81.9071C238.001 80.0342 241.075 79.3653 243.615 79.6328C240.942 78.9639 237.6 79.6328 233.991 81.7733C224.634 87.1244 217.015 100.368 217.015 111.071C217.015 118.161 220.223 122.442 225.169 123.111C220.758 122.174 217.817 117.893 217.817 111.204Z" fill="white"/>
<path d="M242.536 106.245C247.261 98.0551 247.256 89.1998 242.525 86.4661C237.794 83.7324 230.129 88.1555 225.404 96.3453C220.68 104.535 220.685 113.39 225.416 116.124C230.146 118.858 237.811 114.435 242.536 106.245Z" fill="#014DA9"/>
<path d="M240.942 85.7866C242.145 87.2582 242.947 89.5324 242.947 92.3417C242.947 100.101 237.467 109.465 230.783 113.345C228.244 114.816 225.838 115.218 223.833 114.816C225.971 117.358 229.714 117.76 233.991 115.352C240.675 111.472 246.155 102.107 246.155 94.3484C246.021 89.5324 244.016 86.5893 240.942 85.7866Z" fill="#0B255B"/>
<path d="M162.853 121.189C170.622 117.952 172.39 104.435 166.801 90.9982C161.212 77.561 150.383 69.292 142.614 72.5288C134.844 75.7657 133.077 89.2827 138.665 102.72C144.254 116.157 155.083 124.426 162.853 121.189Z" fill="#014DA9"/>
<path d="M161.945 99.6995C161.41 103.98 158.202 105.318 154.727 102.776C151.252 100.101 148.979 94.4821 149.514 90.2012C150.049 85.9204 153.257 84.5826 156.732 87.1244C160.207 89.7999 162.48 95.4186 161.945 99.6995Z" fill="#FD8E3E"/>
<path d="M154.459 116.555C144.969 109.331 138.553 93.9468 140.157 82.0406C140.825 77.2246 142.697 73.7464 145.236 71.8735C140.291 72.2749 136.548 76.5557 135.612 83.7797C134.142 95.5522 140.558 111.07 149.915 118.294C155.529 122.575 160.875 122.977 164.752 120.167C161.544 120.435 158.068 119.231 154.459 116.555Z" fill="#0B255B"/>
<path d="M150.717 117.893C141.226 110.669 134.81 95.2847 136.414 83.3785C137.083 77.8936 139.355 74.1478 142.563 72.4087C138.954 73.8802 136.281 77.7598 135.612 83.646C134.142 95.4185 140.558 110.937 149.915 118.161C154.994 122.04 159.94 122.709 163.549 120.836C159.94 122.308 155.395 121.505 150.717 117.893Z" fill="#FD8E3E"/>
<path d="M253.105 187.993C265.655 187.993 275.829 177.811 275.829 165.251C275.829 152.69 265.655 142.508 253.105 142.508C240.556 142.508 230.382 152.69 230.382 165.251C230.382 177.811 240.556 187.993 253.105 187.993Z" fill="url(#paint14_linear)"/>
<path d="M253.105 187.993C265.655 187.993 275.829 177.811 275.829 165.251C275.829 152.69 265.655 142.508 253.105 142.508C240.556 142.508 230.382 152.69 230.382 165.251C230.382 177.811 240.556 187.993 253.105 187.993Z" fill="url(#paint15_linear)"/>
<path d="M289.463 240.835C288.126 251.671 278.636 272.139 269.948 271.203C261.259 270.132 256.848 247.925 258.051 237.089C259.388 226.253 267.408 218.36 276.096 219.297C284.785 220.367 290.8 229.999 289.463 240.835Z" fill="url(#paint16_linear)"/>
<path d="M289.463 240.835C288.126 251.671 278.636 272.139 269.948 271.203C261.259 270.132 256.848 247.925 258.051 237.089C259.388 226.253 267.408 218.36 276.096 219.297C284.785 220.367 290.8 229.999 289.463 240.835Z" fill="url(#paint17_linear)"/>
<path d="M67.0412 171.137C65.7045 171.137 64.5016 170.468 63.8332 169.13C62.8976 167.391 63.5659 165.117 65.4372 164.18L112.488 139.565C114.226 138.629 116.498 139.298 117.434 141.171C118.369 142.91 117.701 145.184 115.83 146.12L68.7789 170.736C68.2442 171.003 67.5759 171.137 67.0412 171.137Z" fill="#FD8E3E"/>
<path d="M67.8434 184.782C58.2194 189.999 36.0307 194.146 31.8871 186.521C27.7434 178.896 43.1151 162.307 52.7391 157.09C62.3631 151.873 73.4574 153.746 77.6011 161.505C81.7447 169.13 77.4674 179.565 67.8434 184.782Z" fill="url(#paint18_linear)"/>
<path d="M67.8434 184.782C58.2194 189.999 36.0307 194.146 31.8871 186.521C27.7434 178.896 43.1151 162.307 52.7391 157.09C62.3631 151.873 73.4574 153.746 77.6011 161.505C81.7447 169.13 77.4674 179.565 67.8434 184.782Z" fill="url(#paint19_linear)"/>
<g opacity="0.5">
<g opacity="0.5">
<path opacity="0.5" d="M23.0654 174.615C21.5951 186.12 15.7137 192.943 9.43138 184.381C1.41137 173.411 0.609374 162.575 0.074707 156.154V93.2783C0.074707 103.044 3.28271 112.542 9.43138 121.505C22.6644 143.579 24.1347 165.251 23.0654 174.615Z" fill="#FD8E3E"/>
<path opacity="0.5" d="M209.397 186.12C204.451 186.254 199.505 186.254 194.426 186.254C154.994 185.986 118.37 180.234 87.8939 170.602C57.4179 162.441 55.5465 194.414 66.2398 214.08C73.8588 228.126 84.0175 232.006 87.8939 233.477C118.37 243.109 154.994 248.862 194.426 249.129C199.505 249.129 204.451 249.129 209.397 248.996C245.219 246.32 254.576 211.939 237.868 195.886C233.189 191.337 224.367 185.986 209.397 186.12Z" fill="#FD8E3E"/>
<path opacity="0.5" d="M395.594 136.087C395.461 163.244 393.857 168.194 391.852 174.481C383.431 194.281 361.643 211.805 331.301 224.916C304.701 232.808 297.216 205.117 308.176 184.515C315.528 170.468 327.023 164.448 331.301 162.174C361.777 149.064 383.564 131.539 391.852 111.74C392.52 110.402 393.322 108.663 394.124 107.459C394.391 107.459 394.659 107.459 394.792 107.325C395.327 108.797 395.461 109.332 395.594 116.823V136.087Z" fill="#FD8E3E"/>
</g>
</g>
<defs>
<linearGradient id="paint0_linear" x1="34.6217" y1="330.839" x2="96.9914" y2="192.144" gradientUnits="userSpaceOnUse">
<stop stop-color="#00C1FA"/>
<stop offset="1" stop-color="#0060EA"/>
</linearGradient>
<linearGradient id="paint1_linear" x1="69.1572" y1="289.796" x2="171.489" y2="152.92" gradientUnits="userSpaceOnUse">
<stop stop-color="#00C1FA"/>
<stop offset="1" stop-color="#0060EA"/>
</linearGradient>
<linearGradient id="paint2_linear" x1="177.969" y1="244.209" x2="244.769" y2="172.957" gradientUnits="userSpaceOnUse">
<stop stop-color="#00C1FA"/>
<stop offset="1" stop-color="#0060EA"/>
</linearGradient>
<linearGradient id="paint3_linear" x1="75.7142" y1="244.209" x2="142.514" y2="172.957" gradientUnits="userSpaceOnUse">
<stop stop-color="#00C1FA"/>
<stop offset="1" stop-color="#0060EA"/>
</linearGradient>
<linearGradient id="paint4_linear" x1="69.1572" y1="274.906" x2="171.638" y2="137.986" gradientUnits="userSpaceOnUse">
<stop stop-color="#00C1FA"/>
<stop offset="1" stop-color="#0060EA"/>
</linearGradient>
<linearGradient id="paint5_linear" x1="178.111" y1="303.245" x2="244.788" y2="232.089" gradientUnits="userSpaceOnUse">
<stop stop-color="#00C1FA"/>
<stop offset="1" stop-color="#0060EA"/>
</linearGradient>
<linearGradient id="paint6_linear" x1="75.7142" y1="303.245" x2="142.385" y2="232.002" gradientUnits="userSpaceOnUse">
<stop stop-color="#00C1FA"/>
<stop offset="1" stop-color="#0060EA"/>
</linearGradient>
<linearGradient id="paint7_linear" x1="101.688" y1="145.775" x2="141.424" y2="115.121" gradientUnits="userSpaceOnUse">
<stop stop-color="#00C1FA"/>
<stop offset="1" stop-color="#0060EA"/>
</linearGradient>
<linearGradient id="paint8_linear" x1="119.782" y1="208.796" x2="234.084" y2="133.387" gradientUnits="userSpaceOnUse">
<stop stop-color="#00C1FA"/>
<stop offset="1" stop-color="#0060EA"/>
</linearGradient>
<linearGradient id="paint9_linear" x1="119.782" y1="208.796" x2="234.084" y2="133.387" gradientUnits="userSpaceOnUse">
<stop stop-color="#00C1FA"/>
<stop offset="1" stop-color="#0060EA"/>
</linearGradient>
<linearGradient id="paint10_linear" x1="121.153" y1="66.8415" x2="161.071" y2="41.7098" gradientUnits="userSpaceOnUse">
<stop stop-color="#00C1FA"/>
<stop offset="1" stop-color="#0060EA"/>
</linearGradient>
<linearGradient id="paint11_linear" x1="120.831" y1="104.972" x2="225.781" y2="24.0103" gradientUnits="userSpaceOnUse">
<stop stop-color="#00C1FA"/>
<stop offset="1" stop-color="#0060EA"/>
</linearGradient>
<linearGradient id="paint12_linear" x1="120.831" y1="104.972" x2="225.781" y2="24.0103" gradientUnits="userSpaceOnUse">
<stop stop-color="#00C1FA"/>
<stop offset="1" stop-color="#0060EA"/>
</linearGradient>
<linearGradient id="paint13_linear" x1="203.492" y1="107.242" x2="243.41" y2="82.1107" gradientUnits="userSpaceOnUse">
<stop stop-color="#00C1FA"/>
<stop offset="1" stop-color="#0060EA"/>
</linearGradient>
<linearGradient id="paint14_linear" x1="227.468" y1="174.135" x2="267.204" y2="143.482" gradientUnits="userSpaceOnUse">
<stop stop-color="#00C1FA"/>
<stop offset="1" stop-color="#0060EA"/>
</linearGradient>
<linearGradient id="paint15_linear" x1="227.468" y1="174.135" x2="267.204" y2="143.482" gradientUnits="userSpaceOnUse">
<stop stop-color="#00C1FA"/>
<stop offset="1" stop-color="#0060EA"/>
</linearGradient>
<linearGradient id="paint16_linear" x1="255.818" y1="255.388" x2="292.081" y2="238.274" gradientUnits="userSpaceOnUse">
<stop stop-color="#00C1FA"/>
<stop offset="1" stop-color="#0060EA"/>
</linearGradient>
<linearGradient id="paint17_linear" x1="255.818" y1="255.388" x2="292.081" y2="238.274" gradientUnits="userSpaceOnUse">
<stop stop-color="#00C1FA"/>
<stop offset="1" stop-color="#0060EA"/>
</linearGradient>
<linearGradient id="paint18_linear" x1="28.1163" y1="179.568" x2="61.133" y2="146.109" gradientUnits="userSpaceOnUse">
<stop stop-color="#00C1FA"/>
<stop offset="1" stop-color="#0060EA"/>
</linearGradient>
<linearGradient id="paint19_linear" x1="28.1163" y1="179.568" x2="61.133" y2="146.109" gradientUnits="userSpaceOnUse">
<stop stop-color="#00C1FA"/>
<stop offset="1" stop-color="#0060EA"/>
</linearGradient>
</defs>
</svg>
