<svg width="139" height="33" viewBox="0 0 139 33" fill="none" xmlns="http://www.w3.org/2000/svg">
<path fill-rule="evenodd" clip-rule="evenodd" d="M109.063 16.4849C109.063 15.6432 109.063 14.8515 109.036 14.1204C109.018 13.4306 108.952 12.7431 108.838 12.0632C108.731 11.4423 108.543 10.8393 108.278 10.2709C107.998 9.68478 107.625 9.1515 107.173 8.69353C106.532 8.01707 105.77 7.47566 104.928 7.09954C104.017 6.71953 103.042 6.53115 102.06 6.5455C101.074 6.53237 100.095 6.72068 99.1798 7.09954C98.3332 7.47052 97.5658 8.00958 96.9214 8.68596C96.4704 9.14366 96.0982 9.67705 95.8208 10.2633C95.5583 10.8319 95.3729 11.435 95.2698 12.0556C95.1584 12.7357 95.0945 13.4232 95.0788 14.1128C95.0612 14.8439 95.0524 15.6356 95.0568 16.4773C95.0612 17.3189 95.0568 18.1046 95.0788 18.8403C95.0945 19.5298 95.1584 20.2173 95.2698 20.8975C95.3729 21.5181 95.5583 22.1212 95.8208 22.6898C96.0993 23.2753 96.4714 23.8086 96.9214 24.2671C97.5648 24.944 98.3325 25.4823 99.1798 25.8505C100.094 26.2318 101.073 26.4212 102.06 26.4076C103.042 26.4225 104.018 26.233 104.928 25.8505C105.77 25.4794 106.533 24.9414 107.173 24.2671C107.624 23.8083 107.997 23.2752 108.278 22.6898C108.543 22.1213 108.731 21.5183 108.838 20.8975C108.951 20.2195 109.016 19.534 109.033 18.8463C109.055 18.1106 109.066 17.3235 109.06 16.4833L109.063 16.4849ZM105.36 16.4849C105.36 17.4173 105.347 18.1939 105.316 18.8115C105.298 19.3188 105.249 19.8245 105.169 20.3253C105.114 20.6589 105.015 20.9833 104.875 21.2895C104.761 21.5363 104.613 21.7644 104.434 21.9662C104.158 22.2915 103.816 22.5499 103.432 22.7231C103 22.9136 102.534 23.0105 102.064 23.0077C101.592 23.0098 101.124 22.913 100.689 22.7231C100.295 22.5532 99.9439 22.2945 99.6603 21.9662C99.4805 21.7653 99.3318 21.5371 99.2195 21.2895C99.0834 20.983 98.9895 20.6585 98.9403 20.3253C98.8618 19.8242 98.8128 19.3187 98.7933 18.8115C98.7669 18.1939 98.7537 17.4183 98.7537 16.4849C98.7537 15.5524 98.7669 14.7743 98.7933 14.1567C98.8128 13.6495 98.8619 13.144 98.9403 12.6429C98.9895 12.3097 99.0834 11.9852 99.2195 11.6787C99.3321 11.4313 99.4808 11.2032 99.6603 11.002C99.9443 10.6741 100.296 10.4156 100.689 10.2451C101.123 10.0531 101.591 9.95616 102.064 9.96055C102.534 9.95552 103.001 10.0525 103.432 10.2451C103.816 10.4188 104.158 10.6772 104.434 11.002C104.613 11.2041 104.761 11.4321 104.875 11.6787C105.015 11.9849 105.114 12.3093 105.169 12.6429C105.249 13.1438 105.298 13.6494 105.316 14.1567C105.348 14.7728 105.36 15.5509 105.36 16.4849Z" fill="#23AF91"/>
<path fill-rule="evenodd" clip-rule="evenodd" d="M138.567 7.05109C138.565 6.86702 138.421 6.7182 138.242 6.71655H135.187C135.008 6.71738 134.864 6.86668 134.863 7.05109V18.6768L127.413 6.81041C127.363 6.73018 127.319 6.71655 127.209 6.71655H124.376C124.198 6.719 124.054 6.86735 124.051 7.05109V25.9156C124.054 26.0991 124.198 26.247 124.376 26.2486H127.429C127.608 26.2478 127.752 26.0992 127.753 25.9156V14.2596L135.204 26.1533C135.255 26.2335 135.296 26.2471 135.408 26.2471H138.239C138.418 26.2463 138.562 26.0979 138.564 25.9141L138.567 7.05109Z" fill="#23AF91"/>
<path fill-rule="evenodd" clip-rule="evenodd" d="M118.09 7.05109C118.089 6.86668 117.944 6.71738 117.765 6.71655H114.713C114.534 6.71738 114.389 6.86668 114.389 7.05109V25.9141C114.389 26.0985 114.534 26.2478 114.713 26.2486H117.765C117.944 26.2478 118.089 26.0985 118.09 25.9141V7.05109Z" fill="#23AF91"/>
<path fill-rule="evenodd" clip-rule="evenodd" d="M81.5563 16.4849C81.5563 15.5464 81.5666 14.7653 81.5931 14.1431C81.611 13.6358 81.6601 13.1302 81.74 12.6293C82.0221 10.9491 83.2711 9.95754 84.8653 9.95754C85.9056 9.96663 86.8489 10.3632 87.4514 11.2654C87.7242 11.6866 87.9231 12.1539 88.0391 12.646C88.0481 12.6978 88.094 12.734 88.1449 12.7292H91.7375C91.7889 12.7292 91.808 12.6929 91.7992 12.6414C91.4069 10.3511 90.2211 8.29392 88.1258 7.27516C87.096 6.78396 85.972 6.53819 84.8374 6.55612C82.8146 6.55612 81.1106 7.26961 79.7255 8.69658C78.9347 9.49059 78.3949 10.512 78.1768 11.6272C77.9652 12.7252 77.8585 14.3439 77.8565 16.4834C77.8545 18.6228 77.9613 20.241 78.1768 21.338C78.3931 22.4546 78.9313 23.4781 79.7211 24.2747C81.1052 25.7007 82.8092 26.4136 84.833 26.4136C85.9674 26.4313 87.0913 26.1861 88.1214 25.6961C90.2167 24.6774 91.4025 22.6202 91.7948 20.3298C91.8036 20.2769 91.7845 20.242 91.7331 20.242H88.139C88.0879 20.2365 88.0415 20.2731 88.0332 20.3253C87.917 20.8168 87.718 21.2835 87.4455 21.7043C86.8431 22.6126 85.8997 23.0047 84.8594 23.0122C83.2652 23.0122 82.0162 22.0222 81.7341 20.3419C81.6543 19.841 81.6052 19.3355 81.5872 18.8282C81.5666 18.203 81.5563 17.4204 81.5563 16.4849Z" fill="#23AF91"/>
<path fill-rule="evenodd" clip-rule="evenodd" d="M43.6119 7.05109C43.6111 6.86668 43.4662 6.71738 43.2872 6.71655H40.2354C40.0564 6.71738 39.9114 6.86668 39.9106 7.05109V25.9156C39.9123 26.0994 40.0569 26.2478 40.2354 26.2488H43.2872C43.4657 26.2478 43.6103 26.0994 43.6119 25.9156V20.3783L46.0613 17.3613L51.0924 26.1487C51.1311 26.2135 51.2008 26.2517 51.2746 26.2488H54.9832C55.1537 26.2488 55.1845 26.1396 55.0993 25.9898L48.5122 14.4852L54.5557 7.01628C54.6776 6.8649 54.6262 6.72109 54.4352 6.72109H50.3812C50.3319 6.71811 50.2844 6.74086 50.2549 6.78164L43.6119 14.9893V7.05109Z" fill="#23AF91"/>
<path fill-rule="evenodd" clip-rule="evenodd" d="M65.8461 23.0122C64.1284 23.0122 62.5709 21.3743 62.5709 19.4185V7.05109C62.5701 6.86668 62.4252 6.71738 62.2462 6.71655H59.1944C59.0153 6.71738 58.8704 6.86668 58.8696 7.05109V19.3701C58.8696 23.6767 61.9964 26.4136 65.8461 26.4136C69.6958 26.4136 72.8226 23.6767 72.8226 19.3701V7.05109C72.821 6.86702 72.6765 6.7182 72.4979 6.71655H69.4446C69.2661 6.71821 69.1221 6.86726 69.1213 7.05109V19.4185C69.1213 21.3728 67.5623 23.0122 65.8461 23.0122Z" fill="#23AF91"/>
<path fill-rule="evenodd" clip-rule="evenodd" d="M9.2334 16.4842L18.7078 26.2464L24.688 20.0854C25.7574 19.0935 27.3934 19.1376 28.4109 20.1859C29.4284 21.2341 29.4712 22.9195 28.5083 24.0212L20.6165 32.1531C19.5564 33.2272 17.8562 33.2272 16.7962 32.1531L5.41015 20.42V27.3939C5.41015 28.933 4.19905 30.1807 2.70508 30.1807C1.2111 30.1807 0 28.933 0 27.3939V5.56543C0 4.02631 1.2111 2.7786 2.70508 2.7786C4.19905 2.7786 5.41015 4.02631 5.41015 5.56543V12.5393L16.7947 0.809194C17.8544 -0.265662 19.5553 -0.265662 20.615 0.809194L28.5128 8.93961C29.4756 10.0413 29.4328 11.7267 28.4153 12.775C27.3978 13.8232 25.7618 13.8673 24.6924 12.8754L18.7122 6.71438L9.2334 16.4842ZM18.7122 13.6943C17.6168 13.6937 16.6289 14.3731 16.2093 15.4155C15.7896 16.458 16.021 17.6582 16.7953 18.4564C17.5697 19.2546 18.7346 19.4936 19.7467 19.0618C20.7588 18.6301 21.4187 17.6127 21.4187 16.4842C21.4191 15.7443 21.1342 15.0345 20.6266 14.511C20.119 13.9875 19.4304 13.6932 18.7122 13.6928V13.6943Z" fill="#23AF91"/>
</svg>
