<svg width="144" height="35" viewBox="0 0 144 35" fill="none" xmlns="http://www.w3.org/2000/svg">
<path d="M49.1714 0.00109786V20.4158C49.1714 21.4368 50.0245 22.2733 51.0671 22.2733H61.6309V26.9832H49.0699C46.2531 26.9832 43.9692 24.7457 43.9692 21.9879V0H49.1714V0.00109786ZM63.7563 26.9832H68.5648V7.87604H63.7563V26.9832ZM67.2356 4.6121H65.0075C64.3161 4.6121 63.7563 4.06317 63.7563 3.38689V1.22631C63.7588 0.548075 64.3186 -0.0001176 65.0075 0.00109786H67.2356C67.927 0.00109786 68.4868 0.550027 68.4868 1.22631V3.38689C68.4843 4.06512 67.9245 4.61332 67.2356 4.6121ZM119.315 4.6121H117.087C116.396 4.6121 115.836 4.06317 115.836 3.38689V1.22631C115.838 0.548075 116.398 -0.0001176 117.087 0.00109786H119.315C120.006 0.00109786 120.566 0.550027 120.566 1.22631V3.38689C120.564 4.06512 120.004 4.61332 119.315 4.6121ZM86.2967 17.4867C86.2967 14.5148 84.2471 12.083 80.779 12.083C77.3109 12.083 75.2613 14.5148 75.2613 17.4867C75.2613 20.4597 77.5083 22.8914 80.779 22.8914C84.0497 22.8914 86.2967 20.4597 86.2967 17.4867ZM86.7305 34.9338V24.7435C85.3511 26.8284 82.3157 27.4454 80.2671 27.4454C74.0402 27.4454 70.4539 23.0451 70.4539 17.4878C70.4539 11.8898 74.4338 7.52801 80.4244 7.52801C82.6323 7.52801 85.2329 8.45461 86.7305 10.5779L87.0461 7.95289H91.539V34.9338H86.7305ZM98.6692 7.95289V17.9116C98.6692 20.8066 100.285 23.0067 103.36 23.0067C106.315 23.0067 108.325 20.575 108.325 17.6799V7.95289H113.094V27.0205H108.798L108.482 24.435C106.473 26.3651 104.621 27.2917 101.901 27.2917C97.2508 27.2917 93.8607 23.8554 93.8607 17.95V7.95289H98.6692ZM115.836 26.9832H120.644V7.87604H115.836V26.9832ZM127.703 17.4483C127.703 20.7682 130.146 23.0451 133.221 23.0451C136.256 23.0451 138.857 20.8835 138.857 17.4483C138.857 14.1283 136.256 11.8898 133.221 11.8898C130.146 11.8898 127.703 14.0131 127.703 17.4483ZM143.981 0.00109786V26.9832H139.487L139.172 24.3582C137.675 26.6351 135.269 27.4069 132.905 27.4069C127.191 27.4069 122.896 23.7017 122.896 17.4494C122.896 10.8864 127.112 7.48959 132.787 7.48959C134.837 7.48959 138.028 8.57098 139.172 10.5394V0H143.981V0.00109786ZM123.789 31.794C123.969 31.8974 124.116 32.0499 124.21 32.2331C124.31 32.4208 124.359 32.6382 124.359 32.8841C124.359 33.1257 124.311 33.3398 124.213 33.5253C124.119 33.706 123.975 33.8562 123.797 33.9579C123.606 34.0634 123.391 34.1165 123.172 34.1116C122.999 34.1152 122.827 34.0788 122.67 34.0051C122.525 33.9335 122.402 33.8261 122.311 33.6933V34.0896H121.697V30.7126H122.311V32.0553C122.399 31.9224 122.52 31.8148 122.664 31.7435C122.819 31.6696 122.991 31.6331 123.163 31.637C123.4 31.637 123.608 31.6886 123.789 31.794ZM123.537 33.3958C123.672 33.2517 123.743 33.0611 123.735 32.8655C123.743 32.6708 123.672 32.4813 123.537 32.3385C123.404 32.2015 123.218 32.1269 123.026 32.1332C122.832 32.1257 122.645 32.2 122.51 32.3374C122.375 32.4804 122.304 32.6705 122.311 32.8655C122.311 33.084 122.378 33.2607 122.51 33.3979C122.645 33.5354 122.832 33.6097 123.026 33.6021C123.219 33.6086 123.405 33.5335 123.537 33.3958ZM125.391 34.8471C125.238 34.951 125.055 35.0044 124.868 34.9997C124.755 35.0011 124.642 34.9833 124.535 34.947C124.428 34.9079 124.328 34.8519 124.239 34.7812L124.504 34.3311C124.555 34.3688 124.611 34.4001 124.67 34.4244C124.721 34.4443 124.776 34.4544 124.83 34.4541C124.998 34.4541 125.12 34.3717 125.198 34.2082L125.275 34.049L124.231 31.6556H124.868L125.588 33.4254L126.244 31.6545H126.864L125.729 34.3948C125.665 34.5754 125.547 34.733 125.391 34.8471ZM131.543 34.4541C131.416 34.5639 131.272 34.6484 131.108 34.711C130.954 34.7713 130.79 34.8029 130.625 34.8043C130.418 34.8043 130.215 34.7431 130.044 34.6286C129.854 34.5012 129.697 34.3321 129.584 34.1346C129.272 34.1384 128.965 34.0632 128.691 33.9161C128.43 33.7773 128.212 33.5727 128.058 33.3233C127.903 33.073 127.823 32.7851 127.826 32.4922C127.826 32.1892 127.904 31.9125 128.058 31.6644C128.212 31.4158 128.431 31.2128 128.693 31.0771C128.963 30.9344 129.262 30.863 129.59 30.863C129.918 30.863 130.215 30.9344 130.485 31.0771C130.755 31.2198 130.967 31.4152 131.121 31.6644C131.276 31.9125 131.353 32.1892 131.353 32.4922C131.357 32.9537 131.156 33.3941 130.804 33.6988C130.63 33.8508 130.426 33.9666 130.204 34.0391C130.372 34.2093 130.537 34.2949 130.701 34.2949C130.871 34.2949 131.069 34.2093 131.296 34.0391L131.541 34.4541H131.543ZM128.628 33.0433C128.943 33.5595 129.619 33.7347 130.152 33.4386C130.496 33.2445 130.708 32.8828 130.705 32.4922C130.708 32.1033 130.496 31.7435 130.152 31.5524C129.619 31.2546 128.942 31.4277 128.624 31.9433C128.523 32.109 128.471 32.2991 128.474 32.4922C128.474 32.692 128.525 32.8765 128.628 33.0433ZM134.1 31.6545V34.0896H133.48V33.6395C133.309 33.9546 133.017 34.1116 132.6 34.1116C132.316 34.1116 132.092 34.0292 131.928 33.8623C131.764 33.6955 131.683 33.4671 131.683 33.1795V31.6545H132.302V33.006C132.294 33.1533 132.346 33.2978 132.447 33.4067C132.554 33.508 132.698 33.5609 132.846 33.5527C133.023 33.5574 133.193 33.4837 133.309 33.3518C133.425 33.2129 133.486 33.0367 133.48 32.8567V31.6545H134.1ZM136.507 31.7918C136.708 31.895 136.864 32.0399 136.975 32.2265C137.087 32.4132 137.143 32.6273 137.143 32.8699C137.143 33.1158 137.087 33.3332 136.975 33.5209C136.864 33.7086 136.708 33.8547 136.507 33.9579C136.292 34.0639 136.055 34.1167 135.815 34.1116C135.549 34.1116 135.316 34.0611 135.114 33.9579C134.918 33.8598 134.755 33.7081 134.644 33.5209C134.529 33.3227 134.471 33.0978 134.476 32.8699C134.476 32.6273 134.532 32.4132 134.644 32.2265C134.755 32.0399 134.912 31.895 135.114 31.7918C135.315 31.6886 135.549 31.637 135.815 31.637C136.076 31.637 136.306 31.6886 136.506 31.7907L136.507 31.7918ZM135.294 32.3462C135.158 32.4906 135.087 32.6822 135.095 32.8787C135.095 33.0982 135.162 33.275 135.294 33.4111C135.43 33.5495 135.619 33.6242 135.815 33.6164C136.007 33.6228 136.193 33.5481 136.325 33.4111C136.461 33.2667 136.532 33.0751 136.524 32.8787C136.524 32.6602 136.457 32.4834 136.325 32.3462C136.192 32.2096 136.007 32.1354 135.815 32.142C135.619 32.1339 135.43 32.2082 135.294 32.3462ZM137.52 31.6545H138.134V34.0896H137.52V31.6545ZM138.073 30.7082C138.14 30.7752 138.173 30.8597 138.173 30.9629C138.173 31.0639 138.14 31.1473 138.073 31.2132C138.007 31.2798 137.916 31.3161 137.822 31.3131C137.728 31.3161 137.638 31.2802 137.572 31.2143C137.505 31.1475 137.469 31.0567 137.472 30.9629C137.472 30.8597 137.505 30.7752 137.572 30.7082C137.637 30.6419 137.728 30.6056 137.822 30.6083C137.916 30.6053 138.007 30.6416 138.073 30.7082ZM140.947 31.8851C141.114 32.0531 141.197 32.2814 141.197 32.5702V34.0896H140.577V32.7425C140.586 32.5936 140.531 32.4478 140.427 32.3396C140.316 32.2367 140.167 32.1831 140.014 32.1914C139.831 32.1858 139.654 32.2592 139.53 32.3923C139.409 32.531 139.345 32.7099 139.352 32.8929V34.0896H138.739V31.6545H139.352V32.1102C139.526 31.7973 139.829 31.6381 140.261 31.6326C140.551 31.6326 140.779 31.716 140.947 31.8851ZM143.694 31.9685C143.898 32.1903 144 32.501 144 32.9017C144 32.9808 143.999 33.04 143.995 33.0796H142.127C142.161 33.2399 142.251 33.3836 142.381 33.4858C142.515 33.5871 142.682 33.6394 142.851 33.634C142.978 33.6343 143.104 33.6105 143.221 33.5637C143.338 33.5181 143.443 33.4494 143.531 33.3617L143.863 33.6933C143.737 33.8272 143.584 33.9304 143.402 34.0029C143.22 34.0764 143.02 34.1127 142.799 34.1127C142.54 34.1127 142.313 34.0611 142.115 33.9579C141.923 33.8598 141.764 33.7087 141.658 33.5231C141.548 33.3257 141.493 33.1035 141.499 32.8787C141.499 32.6371 141.552 32.4208 141.661 32.2331C141.771 32.0443 141.922 31.8983 142.119 31.794C142.323 31.6866 142.552 31.6326 142.784 31.637C143.188 31.637 143.491 31.7468 143.694 31.9685ZM143.438 32.6832C143.439 32.5214 143.372 32.3664 143.253 32.2551C143.125 32.1448 142.958 32.0878 142.789 32.0959C142.624 32.0908 142.462 32.1468 142.337 32.2529C142.212 32.3649 142.132 32.5178 142.113 32.6832H143.437H143.438Z" fill="#DBDBDB"/>
<path d="M11.3521 0.00109994C10.6596 0.00109994 10.0988 0.551069 10.0988 1.22863V6.37964C10.0988 7.42238 10.9623 8.26823 12.0268 8.26823H15.7866C16.8523 8.26823 17.7157 9.11408 17.7157 10.1568V15.7566C17.7157 16.8004 18.578 17.6463 19.6437 17.6463H25.3605C26.425 17.6463 27.2885 18.491 27.2885 19.5349V23.2175C27.2885 24.2613 28.1508 25.1072 29.2164 25.1072H34.4719C35.1645 25.1072 35.7252 24.5572 35.7252 23.8785V1.22973C35.7252 0.549969 35.1656 0 34.473 0H11.3521V0.00109994ZM9.96928 23.928V12.1785C9.96839 11.6762 9.76466 11.1948 9.403 10.8405C9.04134 10.4863 8.55145 10.2882 8.04132 10.2899H1.25328C0.560737 10.2899 0 10.8399 0 11.5174V33.7725C0.00246341 34.452 0.563216 35.0012 1.25328 35H24.3731C25.0656 35 25.6263 34.45 25.6263 33.7725V27.7074C25.6263 26.6636 24.7629 25.8177 23.6984 25.8177H11.8972C10.8354 25.8202 9.97236 24.9748 9.96928 23.9291V23.928Z" fill="#0090FF"/>
</svg>
