<svg width="151" height="29" viewBox="0 0 151 29" fill="none" xmlns="http://www.w3.org/2000/svg">
<g clip-path="url(#clip0)">
<path d="M9.70332 12.0432L15.4603 6.47761L21.2203 12.0462L24.5701 8.80757L15.4603 0L6.35352 8.80463L9.70332 12.0432Z" fill="#EAB021"/>
<path d="M3.98047 11.323L7.22675 14.5L3.98047 17.677L0.734184 14.5L3.98047 11.323Z" fill="#EAB021"/>
<path d="M9.79087 16.9566L15.6896 22.5223L21.5913 16.9539L25.0255 20.1907L25.0239 20.1925L15.6896 29L6.35831 20.1954L6.35352 20.1909L9.79087 16.9566Z" fill="#EAB021"/>
<path d="M30.1816 14.5L26.9354 17.677L23.6891 14.5L26.9354 11.323L30.1816 14.5Z" fill="#EAB021"/>
<path d="M18.647 14.4983H18.6484L15.2345 11.1539L12.7115 13.6254H12.7113L12.4215 13.9095L11.8236 14.4953L11.8188 14.4999L11.8236 14.5047L15.2345 17.8462L18.6484 14.5018L18.6501 14.4999L18.647 14.4983Z" fill="#EAB021"/>
<path d="M35.9556 6.69232H43.4176C45.2696 6.69232 46.6701 7.1533 47.6192 8.07526C48.3538 8.78929 48.7209 9.67427 48.7209 10.73V10.7746C48.7209 11.2207 48.6641 11.6149 48.5497 11.9568C48.4355 12.2992 48.283 12.6074 48.0924 12.8825C47.9022 13.1579 47.6811 13.3995 47.4298 13.6075C47.1782 13.8159 46.908 13.9945 46.6185 14.1429C47.5495 14.4852 48.2823 14.9497 48.8166 15.5372C49.3506 16.125 49.618 16.9392 49.618 17.98V18.0245C49.618 18.7385 49.4765 19.363 49.1933 19.8986C48.9101 20.4338 48.5044 20.8801 47.9761 21.2371C47.4478 21.5941 46.8125 21.8616 46.0701 22.0402C45.3277 22.2186 44.5049 22.3077 43.602 22.3077H35.9556V6.69232ZM42.6716 13.0053C43.4538 13.0053 44.0749 12.8755 44.5346 12.615C44.9946 12.3548 45.2245 11.9345 45.2245 11.3547V11.31C45.2245 10.7897 45.025 10.392 44.6265 10.1166C44.2277 9.84149 43.6526 9.70381 42.9015 9.70381H39.4054V13.0053H42.6716ZM43.6147 19.2965C44.3967 19.2965 45.0097 19.1592 45.4548 18.8839C45.8994 18.6087 46.1219 18.181 46.1219 17.6009V17.5565C46.1219 17.036 45.9147 16.6234 45.5008 16.3182C45.0867 16.0138 44.4198 15.8612 43.4996 15.8612H39.4054V19.2967H43.6147V19.2965Z" fill="#EAB021"/>
<path d="M53.7168 6.69232H56.9047V22.3077H53.7168V6.69232Z" fill="#EAB021"/>
<path d="M62.3696 6.69232H65.5923L73.0374 16.307V6.69232H76.4875V22.3077H73.5143L65.8195 12.3809V22.3077H62.3696V6.69232Z" fill="#EAB021"/>
<path d="M86.944 6.69232H90.1684L96.9812 22.3077H93.325L91.8716 18.8304H85.1498L83.6966 22.3077H80.1309L86.944 6.69232ZM90.6227 15.8177L88.5106 10.7899L86.3992 15.8177H90.6227Z" fill="#EAB021"/>
<path d="M100.625 6.69232H103.848L111.292 16.307V6.69232H114.742V22.3077H111.769L104.075 12.3809V22.3077H100.625V6.69232Z" fill="#EAB021"/>
<path d="M126.94 22.7539C125.782 22.7539 124.707 22.5466 123.714 22.1328C122.721 21.719 121.864 21.1531 121.142 20.4356C120.42 19.7184 119.856 18.8716 119.45 17.8955C119.044 16.9192 118.841 15.8766 118.841 14.7673V14.7231C118.841 13.6138 119.044 12.5751 119.45 11.6062C119.856 10.6375 120.42 9.78704 121.142 9.05499C121.864 8.32295 122.729 7.74587 123.736 7.32445C124.744 6.90303 125.857 6.69232 127.076 6.69232C127.812 6.69232 128.485 6.75176 129.094 6.86972C129.703 6.98838 130.256 7.15075 130.753 7.35776C131.249 7.565 131.707 7.81641 132.129 8.11201C132.549 8.40806 132.941 8.73326 133.302 9.0883L131.091 11.5951C130.474 11.0481 129.846 10.6188 129.207 10.3084C128.568 9.99798 127.85 9.84255 127.053 9.84255C126.391 9.84255 125.778 9.96837 125.214 10.2198C124.65 10.4712 124.165 10.8186 123.759 11.2622C123.353 11.7059 123.037 12.22 122.811 12.804C122.586 13.3885 122.474 14.0132 122.474 14.6787V14.7229C122.474 15.3883 122.586 16.0172 122.811 16.6084C123.037 17.2003 123.349 17.7177 123.748 18.1613C124.146 18.6049 124.628 18.9565 125.191 19.2153C125.756 19.4743 126.376 19.6034 127.053 19.6034C127.955 19.6034 128.718 19.4408 129.342 19.1154C129.966 18.7904 130.587 18.3465 131.204 17.7843L133.415 19.9806C133.008 20.4097 132.587 20.7943 132.151 21.1341C131.715 21.4746 131.238 21.7665 130.718 22.0107C130.2 22.2545 129.632 22.4398 129.016 22.5651C128.398 22.6907 127.707 22.7539 126.94 22.7539Z" fill="#EAB021"/>
<path d="M137.969 6.69232H150.149V9.7486H141.482V12.9163H149.109V15.9723H141.482V19.2517H150.265V22.3077H137.969V6.69232Z" fill="#EAB021"/>
</g>
<defs>
<clipPath id="clip0">
<rect width="149.832" height="29" fill="white" transform="translate(0.433105)"/>
</clipPath>
</defs>
</svg>
